<svg width="30" height="30" viewBox="0 0 30 30" fill="none" xmlns="http://www.w3.org/2000/svg">
<path d="M9.75 17.25V12" stroke="white" stroke-width="1.5" stroke-linecap="round" stroke-linejoin="round"/>
<path d="M9.93752 22.5C11.2837 22.5 12.375 21.4087 12.375 20.0625C12.375 18.7163 11.2837 17.625 9.93752 17.625C8.59132 17.625 7.5 18.7163 7.5 20.0625C7.5 21.4087 8.59132 22.5 9.93752 22.5Z" stroke="white" stroke-width="1.5" stroke-linecap="round" stroke-linejoin="round"/>
<path d="M9.74998 12C10.9926 12 12 10.9926 12 9.74998C12 8.50734 10.9926 7.5 9.74998 7.5C8.50734 7.5 7.5 8.50734 7.5 9.74998C7.5 10.9926 8.50734 12 9.74998 12Z" stroke="white" stroke-width="1.5" stroke-linecap="round" stroke-linejoin="round"/>
<path d="M20.25 12C21.4926 12 22.5 10.9926 22.5 9.74998C22.5 8.50734 21.4926 7.5 20.25 7.5C19.0073 7.5 18 8.50734 18 9.74998C18 10.9926 19.0073 12 20.25 12Z" stroke="white" stroke-width="1.5" stroke-linecap="round" stroke-linejoin="round"/>
<path d="M9.84961 17.2496C10.1871 15.9371 11.3871 14.9621 12.7996 14.9746L15.3746 14.9871C17.3371 14.9996 19.0121 13.7371 19.6246 11.9746" stroke="white" stroke-width="1.5" stroke-linecap="round" stroke-linejoin="round"/>
<path d="M11.25 2.5H18.75C25 2.5 27.5 5 27.5 11.25V18.75C27.5 25 25 27.5 18.75 27.5H11.25C5 27.5 2.5 25 2.5 18.75V11.25C2.5 5 5 2.5 11.25 2.5Z" stroke="white" stroke-width="1.5" stroke-linecap="round" stroke-linejoin="round"/>
</svg>
