<svg width="30" height="30" viewBox="0 0 30 30" fill="none" xmlns="http://www.w3.org/2000/svg">
<path d="M9.92539 18.1374C9.15039 17.8499 8.46289 17.2873 8.02539 16.4873C7.02539 14.6623 7.63789 12.2874 9.41289 11.1874L12.3379 9.37485C14.1004 8.27485 16.3754 8.87483 17.3754 10.6873C18.3754 12.5123 17.7629 14.8874 15.9879 15.9874L15.6004 16.2624" stroke="white" stroke-width="1.5" stroke-linecap="round" stroke-linejoin="round"/>
<path d="M20.1375 11.8125C20.9125 12.1 21.6 12.6625 22.0375 13.4625C23.0375 15.2875 22.425 17.6625 20.65 18.7625L17.725 20.575C15.9625 21.675 13.6875 21.075 12.6875 19.2625C11.6875 17.4375 12.3 15.0625 14.075 13.9625L14.4625 13.6875" stroke="white" stroke-width="1.5" stroke-linecap="round" stroke-linejoin="round"/>
<path d="M15 27.5C21.9036 27.5 27.5 21.9036 27.5 15C27.5 8.09644 21.9036 2.5 15 2.5C8.09644 2.5 2.5 8.09644 2.5 15C2.5 21.9036 8.09644 27.5 15 27.5Z" stroke="white" stroke-width="1.5" stroke-linecap="round" stroke-linejoin="round"/>
</svg>
