<svg width="30" height="30" viewBox="0 0 30 30" fill="none" xmlns="http://www.w3.org/2000/svg">
<path d="M2.5 21.3252H15" stroke="white" stroke-width="1.5" stroke-miterlimit="10" stroke-linecap="round" stroke-linejoin="round"/>
<path d="M5.27496 16.875H12.225C14.45 16.875 15 17.425 15 19.625V24.7625C15 26.9625 14.45 27.5125 12.225 27.5125H5.27496C3.04996 27.5125 2.5 26.9625 2.5 24.7625V19.625C2.5 17.425 3.04996 16.875 5.27496 16.875Z" stroke="white" stroke-width="1.5" stroke-linecap="round" stroke-linejoin="round"/>
<path d="M27.5 18.75C27.5 23.5875 23.5875 27.5 18.75 27.5L20.0625 25.3125" stroke="white" stroke-width="1.5" stroke-linecap="round" stroke-linejoin="round"/>
<path d="M2.5 11.25C2.5 6.4125 6.4125 2.5 11.25 2.5L9.93752 4.6875" stroke="white" stroke-width="1.5" stroke-linecap="round" stroke-linejoin="round"/>
<path d="M23.125 13.75C26.2316 13.75 28.75 11.2316 28.75 8.125C28.75 5.0184 26.2316 2.5 23.125 2.5C20.0184 2.5 17.5 5.0184 17.5 8.125C17.5 11.2316 20.0184 13.75 23.125 13.75Z" stroke="white" stroke-width="1.5" stroke-linecap="round" stroke-linejoin="round"/>
</svg>
