<svg width="135" height="192" viewBox="0 0 135 192" fill="none" xmlns="http://www.w3.org/2000/svg">
<path d="M67.1273 76.9845L56.1924 90.5472L67.1273 104.11L78.0622 90.5472L67.1273 76.9845Z" fill="white"/>
<path d="M67.1253 135.555C67.1253 135.555 82.002 126.111 98.726 117.96C113.933 110.539 132.982 100.292 132.982 100.292C132.982 100.292 130.657 95.1397 129.535 92.786C125.032 83.4428 67.1253 0 67.1253 0C67.1253 0 9.10275 83.6294 4.60015 93.0443C3.51161 95.3263 1.26855 100.306 1.26855 100.306C1.26855 100.306 20.318 110.554 35.5246 117.974C52.2486 126.126 67.1253 135.569 67.1253 135.569V135.555ZM88.8631 113.553C80.6166 117.888 74.4812 121.691 70.8527 124.059C70.0281 121.548 69.2859 119.983 67.8015 117.672C69.2364 115.821 74.2173 109.621 82.3154 104.354C87.6756 100.866 92.7885 100.393 96.7138 99.5171C98.2477 99.1727 106.89 98.6273 114.543 99.3736C117.396 99.6463 117.825 103.033 115.104 103.823C106.841 106.22 96.1695 109.721 88.8631 113.568V113.553ZM66.8944 116.209C65.7069 114.415 64.3709 112.678 62.969 111.013C55.0029 101.498 43.4413 96.2736 36.3328 94.0203C40.6375 91.48 44.7772 88.8966 47.0038 87.1457C60.5611 76.4103 67.1253 64.6847 67.1253 64.6847C67.1253 64.6847 73.6895 76.4247 87.2468 87.1457C89.7537 89.1406 94.7346 92.1689 99.6001 95.0106C80.6661 96.8046 68.7086 113.525 66.8944 116.223V116.209ZM115.301 89.2554C115.351 89.3272 115.384 89.4133 115.433 89.485C116.357 91.1929 114.163 92.8865 112.25 91.9392C107.385 89.5281 102.354 86.6864 97.555 83.3424C96.186 82.3951 94.8831 81.4048 93.6131 80.4002C102.387 78.5057 111.508 82.2373 115.318 89.2554H115.301ZM97.5879 63.0342C101.893 68.8181 98.9074 76.3673 91.7824 78.9219C87.857 75.5923 84.443 72.0329 81.4907 68.5167C83.6678 65.4023 86.5541 62.6898 90.0011 60.5226L92.6895 58.8434C93.3492 58.4272 94.2728 58.5851 94.7017 59.1592C95.4768 60.1925 96.4829 61.5416 97.5879 63.0199V63.0342ZM89.5228 52.3276C91.3866 54.7961 90.8093 58.0684 88.1539 59.9342L79.4951 66.0768C76.2295 61.9147 73.6235 57.9392 71.6774 54.6096L79.8414 42.4821C80.3362 41.7501 81.5567 41.7214 82.0845 42.439C84.41 45.5821 86.9169 48.8974 89.5064 52.3132L89.5228 52.3276ZM56.3058 36.77C61.2373 29.924 64.9647 24.255 66.4326 20.6383C66.6635 20.0785 67.5871 20.0785 67.818 20.6383C69.2529 24.1689 72.8484 29.6657 77.5984 36.2963C78.9013 38.119 78.9508 40.4154 77.6973 42.2668L71.331 51.7248C71.0341 52.1697 70.2755 52.141 70.0281 51.6817C68.0654 48.0794 67.1253 45.783 67.1253 45.7687C67.1253 45.7687 66.0697 48.309 63.9256 52.2271C63.6782 52.6864 62.9196 52.7151 62.6227 52.2702L56.2069 42.7404C54.9534 40.8746 55.0029 38.5783 56.3223 36.7556L56.3058 36.77ZM44.4968 52.629C47.0368 49.2706 49.4942 46.0127 51.8032 42.9126C52.331 42.195 53.5515 42.2237 54.0463 42.9557L62.1444 54.9827L62.4083 54.8535C60.4291 58.2119 57.8067 62.2018 54.4916 66.3639L45.8493 60.2356C43.2104 58.3554 42.6166 55.0832 44.4803 52.629H44.4968ZM36.5637 63.149C37.6192 61.7282 38.5758 60.4508 39.318 59.4749C39.7633 58.8865 40.6869 58.7429 41.3467 59.1592L44.3979 61.0823C47.713 63.1777 50.4508 65.8472 52.463 68.8898C49.5437 72.32 46.1791 75.7788 42.3527 79.0224C35.2607 76.4677 32.292 68.9329 36.5802 63.149H36.5637ZM18.8172 89.485C18.8172 89.485 18.8666 89.3846 18.8996 89.3272C22.6765 82.3377 31.7642 78.6349 40.5055 80.515C39.285 81.4909 38.0151 82.4382 36.6956 83.3424C31.8961 86.6864 26.8658 89.5424 22.0003 91.9392C20.0871 92.8865 17.8935 91.1929 18.8172 89.485ZM39.7138 99.8042C44.167 101.569 49.3458 102.904 54.5411 106.736C63.2824 113.209 66.9439 119.71 69.1704 124.533C69.1539 124.533 65.9213 125.738 64.173 124.576C60.693 122.265 54.2607 118.218 45.4039 113.568C38.081 109.721 27.3606 106.205 19.0975 103.808C16.3762 103.019 16.805 99.6319 19.6583 99.3593C28.0368 98.5555 37.8996 99.0866 39.7138 99.8042Z" fill="white"/>
<path d="M72.1733 35.593L67.1594 29.3643L62.1455 35.593L67.1594 41.8218L72.1733 35.593Z" fill="white"/>
<path d="M105.193 120.213C101.053 122.064 97.0451 124.116 93.1857 126.37L67.1102 141.569L41.0347 126.37C37.1753 124.116 33.1675 122.064 29.0278 120.213L0 105.272C0 105.272 16.1467 124.116 41.8758 158.518L67.1267 191.069L92.3775 158.518C118.123 124.116 134.253 105.272 134.253 105.272L105.193 120.213ZM32.4913 136.316L19.5937 122.796L19.8081 119.911L33.6623 128.637C33.6623 128.637 32.8871 133.761 32.4913 136.316ZM35.3611 129.642C35.3611 129.642 40.8368 132.929 44.2014 135.038C45.092 135.598 46.8567 136.746 46.8567 136.746L34.3055 139.258L35.3611 129.642ZM44.3498 148.745L37.0269 141.066C40.8863 140.019 48.638 137.937 48.638 137.937C48.638 137.937 45.5703 147.008 44.7456 149.161C44.6137 149.017 44.4817 148.874 44.3498 148.745ZM50.5182 139.258L62.5746 151.027L46.8403 152.275L50.5182 139.258ZM57.8411 166.699C55.3177 162.867 52.4974 158.762 49.6441 155.059C49.9739 155.002 58.2534 153.466 62.0468 152.763C62.5086 152.677 62.9704 152.591 63.4323 152.505C65.7083 157.385 62.5251 163.111 57.8411 166.699ZM67.1267 180.133L60.4305 171.837L67.1267 163.542L73.8229 171.837L67.1267 180.133ZM76.4123 166.699C71.7283 163.097 68.5451 157.385 70.8211 152.505C71.2829 152.591 71.7448 152.677 72.2066 152.763C76 153.466 84.2795 155.002 84.6093 155.059C81.756 158.777 78.9357 162.867 76.4123 166.699ZM71.6623 151.027L83.7187 139.258L87.3967 152.275L71.6623 151.027ZM89.9036 148.745C89.7716 148.888 89.6397 149.032 89.5078 149.161C88.6831 147.008 85.6154 137.937 85.6154 137.937C85.6154 137.937 93.3506 140.019 97.2265 141.066L89.9036 148.745ZM87.3967 136.746C87.3967 136.746 89.1614 135.598 90.052 135.038C93.4166 132.929 98.8923 129.642 98.8923 129.642L99.9479 139.258L87.3967 136.746ZM100.591 128.637L114.445 119.911L114.66 122.796L101.762 136.316C101.366 133.761 100.591 128.637 100.591 128.637Z" fill="white"/>
</svg>
