<svg width="418" height="76" viewBox="0 0 418 76" fill="none" xmlns="http://www.w3.org/2000/svg">
<g clip-path="url(#clip0_403_131)">
<path d="M58.8312 57.2561V27.9099C58.8312 26.2491 58.5965 24.9102 58.1292 23.8956C57.6619 22.881 56.5865 22.3737 54.903 22.3737H54.3418V20.7129H79.094C80.4042 20.7129 81.3946 20.9268 82.0698 21.3503C82.7428 21.776 83.2101 22.3296 83.4739 23.0112C83.7355 23.6949 83.8674 24.4051 83.8674 25.1418V29.8487H82.1839C82.1839 27.4864 81.5757 25.7881 80.3595 24.7536C79.1432 23.7214 77.4127 23.2031 75.168 23.2031H66.131V37.0457H80.7239V39.5381H66.131V54.7659H75.7292C77.7861 54.7659 79.5367 54.3137 80.9766 53.4094C82.4164 52.5051 83.6237 50.8531 84.5963 48.4533L86.1121 49.0069L84.4845 53.3807C84.0731 54.563 83.5387 55.5048 82.8859 56.204C82.2308 56.9054 81.1353 57.2561 79.6016 57.2561H58.8335H58.8312Z" fill="#4FC1FD"/>
<path d="M100.195 57.2563V23.2033H96.2105C94.2273 23.2033 92.6556 23.693 91.4952 24.6701C90.3349 25.6494 89.7558 27.3742 89.7558 29.8467H88.0723V25.1399C88.0723 24.401 88.2019 23.6908 88.4658 23.0092C88.7273 22.3277 89.2036 21.7741 89.8967 21.3484C90.5875 20.9249 91.5712 20.7109 92.8434 20.7109H119.223V23.2033H107.492V57.2563H100.195Z" fill="#4FC1FD"/>
<path d="M124.78 57.2561V27.9099C124.78 26.2491 124.546 24.9102 124.078 23.8956C123.611 22.881 122.536 22.3737 120.852 22.3737H120.291V20.7129H127.025C129.008 20.7129 130.345 21.2312 131.038 22.2635C131.729 23.2979 132.076 25.1793 132.076 27.9121V37.0479H147.23V20.7129H154.527V50.059C154.527 51.7199 154.76 53.0587 155.229 54.0733C155.697 55.0879 156.772 55.5952 158.458 55.5952H159.019V57.2561H152.283C150.338 57.2561 149.007 56.7576 148.299 55.7606C147.588 54.7637 147.232 52.8624 147.232 50.0568V39.5359H132.078V57.2538H124.78V57.2561Z" fill="#4FC1FD"/>
<path d="M180.121 58.366C176.193 58.366 172.844 57.5345 170.073 55.8737C167.303 54.2128 165.199 51.9608 163.76 49.1178C162.318 46.2747 161.598 43.0831 161.598 39.5386C161.598 36.733 162.056 34.1216 162.973 31.7042C163.889 29.2868 165.191 27.1738 166.874 25.3651C168.558 23.5565 170.523 22.1449 172.768 21.1303C175.012 20.1157 177.463 19.6084 180.121 19.6084C183.638 19.6084 186.473 20.0606 188.624 20.9649C190.774 21.8692 192.375 22.9125 193.422 24.0925C194.171 25.0519 194.6 26.2893 194.712 27.8024C194.823 29.3155 194.879 30.8859 194.879 32.5092H193.196C192.485 29.15 191.184 26.576 189.294 24.7851C187.405 22.9941 184.908 22.0986 181.802 22.0986C179.52 22.0986 177.443 22.6169 175.571 23.6491C173.7 24.6836 172.213 26.4635 171.109 28.9934C170.004 31.5233 169.452 35.0391 169.452 39.5408C169.452 41.645 169.675 43.6764 170.125 45.6306C170.574 47.587 171.294 49.3405 172.285 50.8911C173.275 52.4417 174.547 53.6592 176.101 54.5459C177.653 55.4325 179.553 55.8737 181.798 55.8737C184.38 55.8737 186.775 55.2009 188.981 53.8533C191.188 52.5056 192.966 50.5404 194.314 47.9554L196.279 49.4508C194.519 52.5145 192.369 54.7664 189.824 56.2067C187.28 57.647 184.043 58.366 180.114 58.366H180.121Z" fill="#F25EA2"/>
<path d="M200.999 57.2561V27.9099C200.999 26.2491 200.764 24.9102 200.297 23.8956C199.83 22.881 198.754 22.3737 197.071 22.3737H196.51V20.7129H203.244C205.227 20.7129 206.564 21.2312 207.257 22.2635C207.948 23.2979 208.295 25.1793 208.295 27.9121V32.7844C208.556 32.5991 208.836 32.4161 209.137 32.2308C209.437 32.0455 209.734 31.8801 210.036 31.7323C210.559 31.4742 211.197 31.2338 211.946 31.0133C212.695 30.7927 213.535 30.6802 214.472 30.6802C215.744 30.6802 217.007 30.828 218.262 31.1235C219.516 31.4191 220.665 31.9462 221.714 32.7006C222.76 33.4571 223.594 34.4916 224.211 35.8017C224.828 37.1119 225.137 38.7838 225.137 40.813V57.2583H217.839V41.0909C217.839 38.2478 217.325 36.2649 216.296 35.1378C215.268 34.0129 214.099 33.4483 212.788 33.4483C212.151 33.4483 211.563 33.5498 211.02 33.7527C210.477 33.9556 210 34.1872 209.589 34.4452C209.14 34.7033 208.71 35.0187 208.299 35.3871V57.2583H201.001L200.999 57.2561Z" fill="#F25EA2"/>
<path d="M232.598 57.2566V38.4314C232.598 36.7706 232.363 35.4317 231.896 34.4171C231.427 33.4025 230.353 32.8952 228.668 32.8952H228.106V31.2344H234.841C236.824 31.2344 238.161 31.7527 238.854 32.7849C239.545 33.8194 239.891 35.7008 239.891 38.4336V57.2588H232.594L232.598 57.2566Z" fill="#F25EA2"/>
<path d="M254.317 57.8111C251.211 57.8111 248.844 57.1185 247.216 55.7356C245.588 54.3504 244.774 52.5528 244.774 50.3362C244.774 48.565 245.195 47.0608 246.038 45.8234C246.881 44.586 248.403 43.6464 250.612 43.0002C252.819 42.3539 255.924 42.0319 259.928 42.0319H260.771C260.771 38.7102 260.302 36.4031 259.367 35.1106C258.431 33.8181 257.123 33.1718 255.439 33.1718C254.167 33.1718 253.027 33.485 252.016 34.1136C251.006 34.7422 250.277 36.0877 249.827 38.1566H246.74C246.74 37.1971 246.805 36.2178 246.936 35.2209C247.066 34.2239 247.469 33.3571 248.144 32.6182C248.817 31.8793 249.93 31.372 251.484 31.0963C253.036 30.8184 254.73 30.6816 256.564 30.6816C260.23 30.6816 263.065 31.6411 265.066 33.56C267.067 35.4789 268.069 38.397 268.069 42.3076V57.2575H263.298L261.333 54.7651H261.051C260.863 55.0607 260.631 55.3386 260.349 55.5966C260.067 55.8547 259.779 56.0951 259.479 56.3157C258.954 56.7215 258.263 57.0722 257.402 57.3678C256.541 57.6633 255.513 57.8111 254.314 57.8111H254.317ZM256 55.0408C256.861 55.0408 257.581 54.8555 258.162 54.4872C258.741 54.1188 259.238 53.713 259.649 53.2697C260.134 52.7536 260.51 52.1448 260.771 51.4434V44.5221H259.928C257.234 44.5221 255.298 45.0029 254.12 45.9624C252.942 46.9218 252.351 48.3798 252.351 50.3362C252.351 51.8867 252.678 53.0579 253.333 53.852C253.988 54.646 254.876 55.043 255.998 55.043L256 55.0408Z" fill="#F25EA2"/>
<path d="M275.477 57.2558V38.4306C275.477 36.7697 275.254 35.4309 274.805 34.4163C274.355 33.4017 273.289 32.8944 271.605 32.8944H271.044V31.2336H276.6C277.872 31.2336 278.874 31.3902 279.602 31.7034C280.331 32.0166 280.901 32.5437 281.315 33.2804C281.988 32.654 282.952 32.0629 284.206 31.5093C285.46 30.9556 287.226 30.6777 289.509 30.6777C293.026 30.6777 295.684 31.4806 297.48 33.0863C299.275 34.692 300.174 37.2859 300.174 40.8656V57.2558H292.876V40.8105C292.876 38.1174 292.371 36.2139 291.36 35.1067C290.35 33.9994 289.078 33.4458 287.544 33.4458C286.346 33.4458 285.308 33.6112 284.43 33.9443C283.551 34.2774 282.867 34.6832 282.382 35.1618L282.549 35.936C282.623 36.1941 282.679 36.5095 282.717 36.8778C282.753 37.2484 282.773 37.652 282.773 38.0953V57.2536H275.475L275.477 57.2558Z" fill="#F25EA2"/>
<path d="M317.795 68.3296C315.175 68.3296 312.827 68.0605 310.75 67.5268C308.673 66.9908 307.037 66.0953 305.838 64.8403C304.64 63.5853 304.043 61.8869 304.043 59.7452C304.043 58.4174 304.425 57.2727 305.194 56.3133C305.961 55.3538 306.925 54.5598 308.085 53.9334C309.243 53.307 310.424 52.846 311.622 52.5482C310.911 52.3276 310.312 51.9769 309.827 51.4961C309.34 51.0175 309.098 50.3514 309.098 49.5022C309.098 48.2472 309.847 47.3252 311.343 46.7341C309.771 46.1805 308.443 45.2299 307.359 43.8822C306.272 42.5346 305.731 41.0127 305.731 39.3143C305.731 37.1748 306.272 35.4765 307.359 34.2193C308.443 32.9643 309.894 32.06 311.709 31.5063C313.525 30.9527 315.555 30.6748 317.8 30.6748H329.587V32.1702L324.536 32.8341C326.108 33.4252 327.389 34.3296 328.382 35.5471C329.372 36.7646 329.868 38.0196 329.868 39.3121C329.868 41.4163 329.372 43.097 328.382 44.3498C327.389 45.6048 325.987 46.5003 324.172 47.0363C322.356 47.5723 320.232 47.8392 317.802 47.8392C316.118 47.8392 314.761 47.9318 313.733 48.1171C312.704 48.3023 312.19 48.7633 312.19 49.5022C312.19 50.1308 312.704 50.5256 313.733 50.6933C314.761 50.8587 316.118 50.9624 317.802 50.9976C320.346 51.0351 322.658 51.377 324.733 52.0211C326.81 52.6673 328.464 53.6268 329.701 54.8994C330.935 56.1721 331.554 57.7866 331.554 59.7452C331.554 61.8847 330.955 63.5831 329.759 64.8403C328.56 66.0953 326.924 66.9908 324.847 67.5268C322.77 68.0605 320.422 68.3296 317.802 68.3296H317.795ZM317.795 65.8394C319.667 65.8394 321.162 65.3498 322.285 64.3727C323.407 63.3934 323.968 61.8538 323.968 59.7496C323.968 58.0888 323.443 56.7235 322.396 55.6516C321.348 54.5818 319.964 53.8804 318.242 53.5474L315.604 53.2695C314.37 53.7878 313.395 54.5531 312.686 55.5677C311.975 56.5823 311.62 57.9763 311.62 59.7474C311.62 61.8516 312.181 63.3934 313.304 64.3705C314.426 65.3476 315.922 65.8372 317.793 65.8372L317.795 65.8394ZM317.795 45.6291C319.105 45.6291 320.181 45.1505 321.024 44.1888C321.867 43.2294 322.287 41.606 322.287 39.3165C322.287 37.2123 321.867 35.6155 321.024 34.5281C320.181 33.4407 319.105 32.8937 317.795 32.8937C316.485 32.8937 315.41 33.401 314.567 34.4156C313.724 35.4302 313.304 37.0646 313.304 39.3165C313.304 41.5685 313.724 43.2294 314.567 44.1888C315.41 45.1483 316.485 45.6291 317.795 45.6291Z" fill="#F25EA2"/>
<path d="M337.103 57.2555V38.4303C337.103 36.7695 336.88 35.4307 336.431 34.4161C335.981 33.4015 334.915 32.8942 333.231 32.8942H332.67V31.2333H338.226C339.348 31.2333 340.321 31.3899 341.144 31.7031C341.966 32.0163 342.583 32.5611 342.995 33.3375H343.218C343.891 32.7464 344.817 32.1575 345.997 31.5664C347.176 30.9752 348.607 30.6797 350.29 30.6797C351.712 30.6797 352.946 30.8738 353.995 31.262C355.041 31.6502 355.911 32.0935 356.604 32.5898C357.295 33.0883 357.773 33.5029 358.035 33.836C358.784 33.0243 359.756 32.2942 360.952 31.648C362.151 31.0017 363.834 30.6797 366.003 30.6797C369.109 30.6797 371.521 31.4825 373.243 33.0883C374.964 34.694 375.825 37.2878 375.825 40.8676V57.2577H368.527V40.8124C368.527 38.1193 368.096 36.2159 367.237 35.1086C366.376 34.0014 365.31 33.4478 364.038 33.4478C362.989 33.4478 362.046 33.6507 361.203 34.0565C360.36 34.4624 359.696 34.9608 359.211 35.552C359.285 35.6997 359.361 35.8762 359.434 36.0769C359.508 36.2798 359.584 36.5114 359.658 36.7695C359.77 37.1753 359.873 37.7201 359.966 38.4039C360.06 39.0876 360.107 39.9081 360.107 40.8676V57.2577H352.81V40.8124C352.81 38.1193 352.378 36.2159 351.52 35.1086C350.659 34.0014 349.592 33.4478 348.32 33.4478C347.46 33.4478 346.617 33.697 345.794 34.1955C344.971 34.694 344.372 35.1836 343.999 35.6622L344.166 36.4364C344.24 36.6945 344.296 37.0099 344.334 37.3782C344.37 37.7466 344.39 38.1524 344.39 38.5958V57.2555H337.092H337.103Z" fill="#F25EA2"/>
<path d="M390.144 57.8111C387.038 57.8111 384.671 57.1185 383.043 55.7356C381.415 54.3504 380.602 52.5528 380.602 50.3362C380.602 48.565 381.022 47.0608 381.865 45.8234C382.708 44.586 384.23 43.6464 386.439 43.0002C388.646 42.3539 391.751 42.0319 395.756 42.0319H396.599C396.599 38.7102 396.129 36.4031 395.194 35.1106C394.258 33.8181 392.95 33.1718 391.266 33.1718C389.994 33.1718 388.854 33.485 387.843 34.1136C386.833 34.7422 386.104 36.0877 385.654 38.1566H382.567C382.567 37.1971 382.632 36.2178 382.764 35.2209C382.893 34.2239 383.296 33.3571 383.971 32.6182C384.644 31.8793 385.757 31.372 387.311 31.0963C388.863 30.8184 390.557 30.6816 392.391 30.6816C396.057 30.6816 398.892 31.6411 400.893 33.56C402.894 35.4789 403.896 38.397 403.896 42.3076V57.2575H399.125L397.16 54.7651H396.878C396.69 55.0607 396.458 55.3386 396.176 55.5966C395.894 55.8547 395.606 56.0951 395.306 56.3157C394.781 56.7215 394.09 57.0722 393.229 57.3678C392.368 57.6633 391.34 57.8111 390.142 57.8111H390.144ZM391.827 55.0408C392.688 55.0408 393.408 54.8555 393.989 54.4872C394.568 54.1188 395.065 53.713 395.476 53.2697C395.961 52.7536 396.337 52.1448 396.599 51.4434V44.5221H395.756C393.062 44.5221 391.125 45.0029 389.947 45.9624C388.769 46.9218 388.179 48.3798 388.179 50.3362C388.179 51.8867 388.505 53.0579 389.16 53.852C389.815 54.646 390.703 55.043 391.825 55.043L391.827 55.0408Z" fill="#F25EA2"/>
<path d="M239.421 23.3994L235.719 18.1963L232.017 23.3994L235.719 28.6025L239.421 23.3994Z" fill="#F25EA2"/>
<path d="M410.702 57.2566V38.4314C410.702 36.7706 410.467 35.4317 410 34.4171C409.53 33.4025 408.457 32.8952 406.771 32.8952H406.21V31.2344H412.944C414.927 31.2344 416.264 31.7527 416.957 32.7849C417.648 33.8194 417.995 35.7008 417.995 38.4336V57.2588H410.697L410.702 57.2566Z" fill="#F25EA2"/>
<path d="M417.525 23.3994L413.823 18.1963L410.12 23.3994L413.823 28.6025L417.525 23.3994Z" fill="#F25EA2"/>
<path d="M23.3612 2.87012L3.13867 39.3802L22.9096 51.5686L43.8185 39.3802L23.3612 2.87012Z" fill="#E8EFDA"/>
<path d="M5.18457 46.2285L23.3614 58.4566L41.0262 46.2285L41.3773 47.6975L23.5649 73.6028L5.18457 46.2285Z" fill="#E8EFDA"/>
<path d="M23.5527 30.625L19.7139 36.02L23.5527 41.415L27.3893 36.02L23.5527 30.625Z" fill="#A0389D"/>
<path d="M23.5537 53.9237C23.5537 53.9237 28.772 50.1697 34.6386 46.9251C39.9754 43.974 46.6582 39.898 46.6582 39.898C46.6582 39.898 45.8443 37.8489 45.4464 36.9115C43.8702 33.1906 23.5537 0 23.5537 0C23.5537 0 3.19698 33.27 1.61853 37.013C1.23621 37.9195 0.449219 39.9002 0.449219 39.9002C0.449219 39.9002 7.13194 43.9762 12.4687 46.9274C18.3354 50.1719 23.5537 53.9259 23.5537 53.9259V53.9237ZM31.1777 45.1717C28.2846 46.8943 26.1293 48.4095 24.8616 49.3514C24.5687 48.3544 24.3094 47.7324 23.7884 46.8105C24.2937 46.0738 26.0399 43.6057 28.8838 41.5125C30.7663 40.1273 32.5594 39.9355 33.9366 39.587C34.4844 39.448 37.61 39.223 40.3332 39.5428C41.2811 39.6531 41.4153 40.9633 40.5076 41.2588C37.5943 42.2095 33.7824 43.6211 31.1799 45.1717H31.1777ZM23.4732 46.2282C23.0551 45.5135 22.5878 44.8254 22.096 44.1593C19.299 40.3744 15.2411 38.2967 12.7527 37.399C14.2618 36.391 15.7151 35.3631 16.4954 34.664C21.2531 30.396 23.5537 25.7289 23.5537 25.7267C23.5537 25.7267 25.8543 30.396 30.612 34.664C31.4929 35.4558 33.2368 36.6645 34.9472 37.7938C28.3047 38.5062 24.1082 45.1606 23.4732 46.2282ZM40.4561 35.5043C40.4718 35.5352 40.4852 35.5661 40.5008 35.5969C40.825 36.2763 40.0537 36.9512 39.3852 36.5763C37.6793 35.619 35.9108 34.4853 34.2273 33.1553C33.7488 32.7781 33.2882 32.3855 32.8433 31.9841C35.9242 31.2342 39.1214 32.7142 40.4561 35.5043ZM34.2407 25.0716C35.7543 27.3743 34.7057 30.3762 32.2061 31.3908C30.8311 30.0674 29.6283 28.6492 28.5931 27.253C29.3555 26.0178 30.3683 24.9348 31.5779 24.0746L32.5191 23.4063C32.7494 23.2431 33.0736 23.3005 33.2279 23.5343C33.5006 23.9445 33.8539 24.4805 34.2429 25.0716H34.2407ZM31.4102 20.8147C32.0653 21.7962 31.8596 23.0953 30.9317 23.843L27.8956 26.2847C26.7486 24.6305 25.8364 23.0468 25.1523 21.7256L28.0163 16.9041C28.1884 16.6129 28.62 16.6041 28.8055 16.8864C29.6238 18.137 30.5025 19.456 31.4102 20.8169V20.8147ZM19.7573 14.6256C21.4878 11.9017 22.7935 9.6475 23.31 8.20942C23.3905 7.98665 23.7147 7.98665 23.7952 8.20942C24.3004 9.61442 25.5569 11.798 27.2293 14.4382C27.6899 15.1638 27.7033 16.077 27.2651 16.8159L25.0293 20.5787C24.9265 20.7529 24.6604 20.7419 24.5732 20.5588C23.8868 19.1252 23.5537 18.2098 23.5537 18.2054C23.5537 18.2098 23.1848 19.2178 22.4291 20.775C22.3397 20.9559 22.0758 20.9691 21.973 20.7948L19.7216 17.0055C19.2834 16.2666 19.2968 15.3513 19.7596 14.6256H19.7573ZM15.6122 20.936C16.5043 19.5994 17.3673 18.3025 18.1767 17.0695C18.3622 16.7872 18.7915 16.796 18.9636 17.0872L21.8076 21.8734L21.897 21.8227C21.2017 23.1549 20.2805 24.7474 19.1224 26.4016L16.0884 23.9622C15.1606 23.2166 14.9549 21.9153 15.61 20.9338L15.6122 20.936ZM12.8309 25.1201C13.1998 24.5577 13.5374 24.0482 13.7968 23.6556C13.951 23.4218 14.2775 23.3644 14.5078 23.5298L15.5765 24.2952C16.7391 25.1289 17.7004 26.1899 18.4025 27.3986C17.3807 28.7616 16.2002 30.1402 14.8543 31.4305C12.3637 30.4115 11.3218 27.4162 12.8309 25.1179V25.1201ZM6.60654 35.5969C6.61548 35.5749 6.62666 35.555 6.6356 35.533C7.96365 32.7539 11.1474 31.2783 14.2149 32.026C13.7856 32.412 13.3407 32.7892 12.8801 33.1531C11.1966 34.4831 9.42808 35.6168 7.72219 36.574C7.05369 36.949 6.28235 36.2763 6.60654 35.5947V35.5969ZM13.9332 39.6972C15.4937 40.3986 17.3159 40.9302 19.1336 42.4565C22.201 45.0283 23.4844 47.6199 24.2669 49.5344C24.2602 49.5388 23.1244 50.0131 22.5118 49.5521C21.2911 48.6345 19.033 47.0222 15.9275 45.1717C13.3139 43.6145 9.4795 42.1984 6.56406 41.2456C5.65633 40.9501 5.79495 39.6465 6.74292 39.5362C9.7165 39.1922 13.2826 39.4039 13.9332 39.6972Z" fill="url(#paint0_linear_403_131)"/>
<path d="M25.1053 13.8495L23.5649 11.6836L22.0244 13.8495L23.5649 16.0133L25.1053 13.8495Z" fill="#A0389D"/>
<path d="M36.9104 47.8182C35.4571 48.5549 34.053 49.371 32.7004 50.2665L23.5539 56.3122L14.4073 50.2665C13.0547 49.3732 11.6484 48.5549 10.1974 47.8182L0 41.874C0 41.874 5.66321 49.3688 14.6957 63.0527L23.5539 75.9976L32.412 63.0527C41.4445 49.3688 47.1077 41.874 47.1077 41.874L36.9126 47.816L36.9104 47.8182ZM11.4002 54.2234L6.875 48.8439L6.95102 47.6969L11.8116 51.1686C11.8116 51.1686 11.5388 53.2044 11.4024 54.2234H11.4002ZM12.4085 51.5678C12.4085 51.5678 14.3291 52.8758 15.5096 53.7161C15.8226 53.9389 16.4396 54.3955 16.4396 54.3955L12.0374 55.3924L12.4085 51.5656V51.5678ZM15.5587 59.1663L12.9898 56.1137C14.3469 55.699 17.0612 54.8697 17.0612 54.8697C17.0612 54.8697 15.9858 58.4803 15.6951 59.3339C15.6504 59.2788 15.6035 59.2214 15.5587 59.1663ZM17.7274 55.3924L21.9598 60.075L16.4396 60.5691L17.7274 55.3924ZM20.2963 66.3082C19.4087 64.7819 18.4228 63.1519 17.4211 61.6763C17.5374 61.6521 20.4394 61.0433 21.7719 60.7632C21.9352 60.7301 22.0961 60.6948 22.2593 60.6617C23.0553 62.6005 21.9396 64.8789 20.2963 66.3104V66.3082ZM26.8091 66.3082C25.1659 64.8767 24.048 62.6005 24.8461 60.6595C25.0093 60.6926 25.1703 60.7279 25.3335 60.761C26.6661 61.0411 29.5681 61.6499 29.6843 61.6741C28.6827 63.1497 27.6967 64.7797 26.8091 66.306V66.3082ZM25.1457 60.0772L29.378 55.3946L30.6659 60.5713L25.1457 60.0772ZM31.5467 59.1663C31.502 59.2214 31.4551 59.2788 31.4104 59.3339C31.1197 58.4803 30.0443 54.8697 30.0443 54.8697C30.0443 54.8697 32.7585 55.699 34.1156 56.1137L31.5467 59.1663ZM30.6659 54.3955C30.6659 54.3955 31.2829 53.9389 31.5959 53.7161C32.7787 52.8758 34.6969 51.5678 34.6969 51.5678L35.0681 55.3946L30.6659 54.3977V54.3955ZM35.2961 51.1686L40.1567 47.6969L40.2327 48.8439L35.7075 54.2234C35.5711 53.2044 35.2984 51.1686 35.2984 51.1686H35.2961Z" fill="url(#paint1_linear_403_131)"/>
<path d="M23.5533 71.6564L21.4785 68.7428L23.5533 65.8291L25.6259 68.7428L23.5533 71.6564Z" fill="#A0389D"/>
</g>
<defs>
<linearGradient id="paint0_linear_403_131" x1="0.446983" y1="26.9618" x2="46.6582" y2="26.9618" gradientUnits="userSpaceOnUse">
<stop stop-color="#3C95DF"/>
<stop offset="1" stop-color="#A190F6"/>
</linearGradient>
<linearGradient id="paint1_linear_403_131" x1="0" y1="58.9369" x2="47.1055" y2="58.9369" gradientUnits="userSpaceOnUse">
<stop stop-color="#3C95DF"/>
<stop offset="1" stop-color="#A190F6"/>
</linearGradient>
<clipPath id="clip0_403_131">
<rect width="418" height="76" fill="white"/>
</clipPath>
</defs>
</svg>
