<svg width="1191" height="244" viewBox="0 0 1191 244" fill="none" xmlns="http://www.w3.org/2000/svg">
<g filter="url(#filter0_d_148_184)">
<path d="M83.3797 102.622L73.5439 116.649L83.3797 130.677L93.2154 116.649L83.3797 102.622Z" fill="white"/>
<path d="M83.3774 163.199C83.3774 163.199 96.7587 153.432 111.802 145.001C125.48 137.327 142.614 126.728 142.614 126.728C142.614 126.728 140.522 121.399 139.514 118.965C135.464 109.302 83.3774 23 83.3774 23C83.3774 23 31.1873 109.494 27.1373 119.232C26.1582 121.592 24.1406 126.743 24.1406 126.743C24.1406 126.743 41.2752 137.341 54.9532 145.016C69.9961 153.447 83.3774 163.214 83.3774 163.214V163.199ZM102.93 140.444C95.5125 144.927 89.9939 148.86 86.7301 151.309C85.9884 148.712 85.3208 147.094 83.9856 144.704C85.2763 142.789 89.7565 136.377 97.0406 130.929C101.862 127.322 106.461 126.832 109.992 125.927C111.371 125.57 119.145 125.006 126.028 125.778C128.595 126.06 128.981 129.563 126.533 130.38C119.1 132.859 109.502 136.48 102.93 140.459V140.444ZM83.1697 143.19C82.1016 141.334 80.8999 139.538 79.6389 137.816C72.4736 127.975 62.0741 122.572 55.6802 120.241C59.5521 117.614 63.2758 114.942 65.2785 113.131C77.473 102.028 83.3774 89.9007 83.3774 89.9007C83.3774 89.9007 89.2818 102.043 101.476 113.131C103.731 115.194 108.211 118.327 112.588 121.266C95.557 123.121 84.8016 140.414 83.1697 143.205V143.19ZM126.711 115.313C126.755 115.387 126.785 115.477 126.83 115.551C127.66 117.317 125.687 119.069 123.966 118.089C119.59 115.595 115.065 112.656 110.748 109.198C109.517 108.218 108.345 107.194 107.203 106.155C115.095 104.195 123.299 108.055 126.726 115.313H126.711ZM110.778 88.1937C114.65 94.1757 111.965 101.984 105.556 104.626C102.025 101.182 98.9543 97.5007 96.2988 93.864C98.257 90.6429 100.853 87.8375 103.954 85.5961L106.372 83.8593C106.965 83.4289 107.796 83.5922 108.182 84.1859C108.879 85.2547 109.784 86.65 110.778 88.1789V88.1937ZM103.524 77.1203C105.2 79.6734 104.681 83.0578 102.292 84.9875L94.5038 91.3406C91.5664 87.0359 89.2224 82.9242 87.4719 79.4804L94.8153 66.9375C95.2603 66.1804 96.3581 66.1508 96.8329 66.8929C98.9246 70.1437 101.18 73.5726 103.509 77.1054L103.524 77.1203ZM73.6455 61.0297C78.0812 53.9492 81.434 48.0859 82.7543 44.3453C82.962 43.7664 83.7928 43.7664 84.0005 44.3453C85.2911 47.9969 88.5252 53.682 92.7977 60.5398C93.9697 62.425 94.0142 64.8 92.8867 66.7148L87.1604 76.4969C86.8933 76.957 86.2109 76.9273 85.9884 76.4523C84.223 72.7265 83.3774 70.3515 83.3774 70.3367C83.3774 70.3367 82.4279 72.964 80.4994 77.0164C80.2768 77.4914 79.5944 77.5211 79.3274 77.0609L73.5565 67.2047C72.429 65.275 72.4736 62.9 73.6604 61.0148L73.6455 61.0297ZM63.0236 77.432C65.3082 73.9586 67.5186 70.589 69.5955 67.3828C70.0703 66.6406 71.1681 66.6703 71.6131 67.4273L78.8972 79.8664L79.1345 79.7328C77.3543 83.2062 74.9955 87.3328 72.0137 91.6375L64.24 85.2992C61.8664 83.3547 61.3324 79.9703 63.0087 77.432H63.0236ZM55.8879 88.3125C56.8373 86.8429 57.6977 85.5218 58.3653 84.5125C58.7659 83.9039 59.5966 83.7554 60.19 84.1859L62.9345 86.175C65.9164 88.3422 68.379 91.1031 70.1889 94.25C67.5631 97.7976 64.5367 101.375 61.095 104.73C54.7159 102.087 52.0455 94.2945 55.9027 88.3125H55.8879ZM39.9252 115.551C39.9252 115.551 39.9697 115.447 39.9994 115.387C43.3967 108.159 51.5708 104.329 59.4335 106.273C58.3357 107.283 57.1933 108.262 56.0065 109.198C51.6895 112.656 47.1648 115.61 42.7884 118.089C41.0675 119.069 39.0945 117.317 39.9252 115.551ZM58.7214 126.223C62.7269 128.049 67.3851 129.43 72.0582 133.393C79.9208 140.087 83.2142 146.812 85.2169 151.799C85.2021 151.799 82.2944 153.046 80.7219 151.844C77.5917 149.454 71.806 145.268 63.8395 140.459C57.2527 136.48 47.6098 132.844 40.1774 130.365C37.7296 129.548 38.1153 126.045 40.6818 125.763C48.2181 124.932 57.0895 125.481 58.7214 126.223Z" fill="white"/>
<path d="M87.9182 59.8124L83.4083 53.3702L78.8984 59.8124L83.4083 66.2546L87.9182 59.8124Z" fill="white"/>
<path d="M117.619 147.331C113.895 149.246 110.29 151.369 106.819 153.699L83.3642 169.419L59.9099 153.699C56.4384 151.369 52.8335 149.246 49.1099 147.331L23 131.879C23 131.879 37.5236 151.369 60.6665 186.949L83.3791 220.615L106.092 186.949C129.249 151.369 143.758 131.879 143.758 131.879L117.619 147.331ZM52.2253 163.986L40.6242 150.003L40.817 147.019L53.2785 156.044C53.2785 156.044 52.5813 161.344 52.2253 163.986ZM54.8066 157.083C54.8066 157.083 59.7318 160.483 62.7582 162.665C63.5593 163.244 65.1467 164.431 65.1467 164.431L53.8571 167.029L54.8066 157.083ZM62.8917 176.84L56.3049 168.899C59.7763 167.815 66.7489 165.663 66.7489 165.663C66.7489 165.663 63.9895 175.044 63.2478 177.271C63.1291 177.123 63.0104 176.974 62.8917 176.84ZM68.4401 167.029L79.2846 179.201L65.1318 180.492L68.4401 167.029ZM75.0269 195.41C72.7571 191.447 70.2203 187.201 67.6538 183.372C67.9505 183.312 75.3978 181.724 78.8098 180.997C79.2252 180.908 79.6406 180.819 80.056 180.73C82.1032 185.776 79.2401 191.699 75.0269 195.41ZM83.3791 209.304L77.356 200.724L83.3791 192.144L89.4021 200.724L83.3791 209.304ZM91.7313 195.41C87.5181 191.684 84.6549 185.776 86.7021 180.73C87.1175 180.819 87.5329 180.908 87.9483 180.997C91.3604 181.724 98.8076 183.312 99.1043 183.372C96.5379 187.216 94.001 191.447 91.7313 195.41ZM87.4587 179.201L98.3032 167.029L101.611 180.492L87.4587 179.201ZM103.866 176.84C103.748 176.989 103.629 177.137 103.51 177.271C102.769 175.044 100.009 165.663 100.009 165.663C100.009 165.663 106.967 167.815 110.453 168.899L103.866 176.84ZM101.611 164.431C101.611 164.431 103.199 163.244 104 162.665C107.026 160.483 111.952 157.083 111.952 157.083L112.901 167.029L101.611 164.431ZM113.48 156.044L125.941 147.019L126.134 150.003L114.533 163.986C114.177 161.344 113.48 156.044 113.48 156.044Z" fill="white"/>
<path d="M191.061 174.495V93.5523C191.061 88.9656 190.423 85.2844 189.147 82.4789C187.872 79.6734 184.949 78.2781 180.365 78.2781H178.837V73.6914H246.144C249.704 73.6914 252.404 74.2852 254.229 75.443C256.054 76.6156 257.33 78.1445 258.042 80.0297C258.754 81.9148 259.11 83.8742 259.11 85.9078V98.8961H254.526C254.526 92.3797 252.864 87.7039 249.571 84.8391C246.263 81.9891 241.56 80.5641 235.448 80.5641H210.881V118.742H250.565V125.615H210.881V167.608H236.976C242.569 167.608 247.331 166.361 251.247 163.867C255.164 161.373 258.442 156.816 261.098 150.196L265.222 151.725L260.801 163.793C259.674 167.059 258.235 169.641 256.454 171.586C254.674 173.516 251.692 174.48 247.524 174.48H191.046L191.061 174.495Z" fill="white"/>
<path d="M303.555 174.495V80.579H292.725C287.325 80.579 283.052 81.9297 279.907 84.6313C276.747 87.3329 275.175 92.0977 275.175 98.911H270.591V85.9227C270.591 83.8891 270.947 81.9297 271.659 80.0446C272.371 78.1594 273.662 76.6305 275.546 75.4579C277.43 74.2852 280.1 73.7063 283.557 73.7063H355.3V80.579H323.404V174.495H303.555Z" fill="white"/>
<path d="M370.405 174.495V93.5523C370.405 88.9656 369.767 85.2844 368.491 82.4789C367.215 79.6734 364.293 78.2781 359.709 78.2781H358.181V73.6914H376.502C381.887 73.6914 385.537 75.1164 387.421 77.9664C389.305 80.8164 390.239 86.0117 390.239 93.5375V118.742H431.451V73.6914H451.301V154.634C451.301 159.221 451.939 162.902 453.215 165.708C454.49 168.513 457.413 169.909 461.997 169.909H463.525V174.495H445.204C439.908 174.495 436.303 173.115 434.374 170.369C432.445 167.623 431.481 162.383 431.481 154.634V125.615H390.269V174.48H370.42L370.405 174.495Z" fill="white"/>
<path d="M520.892 177.553C510.21 177.553 501.102 175.267 493.565 170.68C486.029 166.094 480.303 159.889 476.401 152.051C472.485 144.214 470.526 135.412 470.526 125.63C470.526 117.896 471.773 110.682 474.265 104.017C476.757 97.3522 480.288 91.5186 484.872 86.5311C489.456 81.5436 494.797 77.6546 500.894 74.8491C507.006 72.0436 513.667 70.6483 520.892 70.6483C530.46 70.6483 538.16 71.8952 544.02 74.3889C549.865 76.8827 554.226 79.7624 557.075 83.0132C559.107 85.6553 560.279 89.0694 560.591 93.2405C560.902 97.4116 561.05 101.746 561.05 106.229H556.466C554.538 96.9663 550.992 89.871 545.859 84.928C540.726 79.985 533.932 77.521 525.476 77.521C519.275 77.521 513.622 78.946 508.534 81.796C503.446 84.646 499.396 89.5592 496.399 96.5358C493.402 103.512 491.889 113.205 491.889 125.63C491.889 131.433 492.497 137.03 493.714 142.433C494.93 147.836 496.888 152.66 499.588 156.935C502.288 161.21 505.745 164.565 509.973 167.014C514.201 169.463 519.364 170.68 525.461 170.68C532.478 170.68 538.991 168.825 544.999 165.099C551.007 161.388 555.828 155.955 559.493 148.83L564.833 152.957C560.057 161.403 554.197 167.622 547.283 171.586C540.355 175.549 531.558 177.538 520.877 177.538L520.892 177.553Z" fill="white"/>
<path d="M577.682 174.495V93.5523C577.682 88.9656 577.044 85.2844 575.768 82.4789C574.493 79.6734 571.57 78.2781 566.986 78.2781H565.458V73.6914H583.779C589.165 73.6914 592.814 75.1164 594.698 77.9664C596.582 80.8164 597.517 86.0117 597.517 93.5375V106.971C598.229 106.466 598.985 105.962 599.801 105.442C600.617 104.937 601.433 104.477 602.249 104.062C603.673 103.349 605.409 102.681 607.442 102.073C609.474 101.464 611.759 101.152 614.31 101.152C617.767 101.152 621.209 101.553 624.606 102.37C628.018 103.186 631.148 104.641 633.996 106.719C636.845 108.812 639.115 111.662 640.791 115.269C642.467 118.891 643.313 123.492 643.313 129.088V174.451H623.463V129.86C623.463 122.023 622.069 116.545 619.265 113.443C616.461 110.341 613.287 108.782 609.726 108.782C607.99 108.782 606.388 109.064 604.92 109.628C603.451 110.192 602.145 110.83 601.033 111.543C599.816 112.255 598.644 113.116 597.517 114.141V174.466H577.667L577.682 174.495Z" fill="white"/>
<path d="M663.606 174.495V122.572C663.606 117.985 662.968 114.304 661.692 111.498C660.416 108.693 657.494 107.298 652.91 107.298H651.382V102.711H669.703C675.103 102.711 678.738 104.136 680.622 106.986C682.506 109.836 683.441 115.031 683.441 122.557V174.48H663.591L663.606 174.495Z" fill="white"/>
<path d="M722.678 176.024C714.237 176.024 707.798 174.109 703.378 170.294C698.957 166.48 696.731 161.507 696.731 155.406C696.731 150.523 697.874 146.366 700.158 142.952C702.443 139.538 706.597 136.941 712.605 135.159C718.613 133.378 727.054 132.487 737.944 132.487H740.228C740.228 123.329 738.952 116.961 736.415 113.398C733.864 109.836 730.303 108.055 725.734 108.055C722.278 108.055 719.177 108.916 716.418 110.652C713.673 112.389 711.685 116.1 710.469 121.8H702.072C702.072 119.158 702.25 116.456 702.606 113.71C702.962 110.964 704.06 108.574 705.885 106.526C707.709 104.492 710.736 103.097 714.964 102.325C719.192 101.568 723.791 101.182 728.775 101.182C738.745 101.182 746.459 103.824 751.903 109.123C757.348 114.423 760.063 122.468 760.063 133.259V174.495H747.082L741.741 167.623H740.985C740.48 168.439 739.842 169.196 739.071 169.909C738.314 170.621 737.513 171.289 736.712 171.898C735.288 173.026 733.404 173.991 731.06 174.792C728.716 175.609 725.927 176.009 722.663 176.009L722.678 176.024ZM727.247 168.394C729.591 168.394 731.55 167.89 733.122 166.866C734.695 165.856 736.045 164.728 737.172 163.511C738.492 162.086 739.516 160.409 740.228 158.464V139.375H737.944C730.615 139.375 725.348 140.696 722.144 143.338C718.94 145.98 717.337 150.003 717.337 155.406C717.337 159.681 718.228 162.917 720.008 165.099C721.788 167.296 724.206 168.38 727.262 168.38L727.247 168.394Z" fill="white"/>
<path d="M780.209 174.495V122.572C780.209 117.985 779.601 114.304 778.385 111.498C777.168 108.693 774.26 107.298 769.691 107.298H768.163V102.711H783.28C786.737 102.711 789.466 103.141 791.439 104.002C793.427 104.863 794.97 106.318 796.098 108.352C797.922 106.615 800.548 104.997 803.96 103.468C807.372 101.939 812.179 101.182 818.38 101.182C827.949 101.182 835.173 103.394 840.054 107.832C844.935 112.255 847.383 119.41 847.383 129.296V174.495H827.533V129.133C827.533 121.696 826.154 116.456 823.409 113.398C820.665 110.341 817.208 108.812 813.025 108.812C809.761 108.812 806.942 109.272 804.554 110.192C802.165 111.112 800.311 112.226 798.976 113.547L799.436 115.684C799.643 116.397 799.792 117.258 799.895 118.282C799.999 119.306 800.044 120.419 800.044 121.637V174.48H780.194L780.209 174.495Z" fill="white"/>
<path d="M895.3 205.044C888.179 205.044 881.785 204.301 876.147 202.832C870.495 201.348 866.045 198.883 862.796 195.425C859.532 191.966 857.915 187.276 857.915 181.368C857.915 177.701 858.953 174.54 861.045 171.898C863.122 169.255 865.748 167.059 868.908 165.337C872.053 163.6 875.272 162.338 878.521 161.522C876.593 160.913 874.961 159.948 873.64 158.627C872.32 157.306 871.652 155.466 871.652 153.135C871.652 149.676 873.685 147.123 877.764 145.505C873.492 143.976 869.872 141.364 866.92 137.638C863.968 133.927 862.499 129.726 862.499 125.036C862.499 119.128 863.968 114.452 866.92 110.979C869.872 107.52 873.818 105.027 878.744 103.498C883.684 101.969 889.202 101.212 895.3 101.212H927.358V105.338L913.621 107.164C917.894 108.797 921.38 111.291 924.08 114.645C926.78 118 928.13 121.473 928.13 125.036C928.13 130.84 926.78 135.471 924.08 138.93C921.38 142.388 917.567 144.867 912.627 146.337C907.687 147.821 901.916 148.548 895.3 148.548C890.716 148.548 887.036 148.801 884.233 149.305C881.429 149.81 880.034 151.087 880.034 153.12C880.034 154.857 881.429 155.941 884.233 156.401C887.036 156.861 890.716 157.143 895.3 157.247C902.213 157.351 908.503 158.286 914.155 160.067C919.807 161.848 924.302 164.491 927.67 168.009C931.023 171.526 932.714 175.98 932.714 181.368C932.714 187.276 931.082 191.951 927.833 195.425C924.569 198.883 920.119 201.348 914.481 202.832C908.829 204.301 902.45 205.044 895.329 205.044H895.3ZM895.3 198.171C900.388 198.171 904.453 196.82 907.509 194.119C910.565 191.417 912.093 187.172 912.093 181.368C912.093 176.781 910.669 173.026 907.821 170.072C904.972 167.118 901.204 165.188 896.531 164.268L889.351 163.511C885.998 164.936 883.343 167.044 881.414 169.849C879.485 172.655 878.521 176.499 878.521 181.383C878.521 187.187 880.049 191.432 883.105 194.133C886.161 196.835 890.226 198.186 895.314 198.186L895.3 198.171ZM895.3 142.418C898.86 142.418 901.783 141.097 904.082 138.455C906.367 135.812 907.509 131.33 907.509 125.021C907.509 119.217 906.367 114.809 904.082 111.81C901.797 108.812 898.86 107.298 895.3 107.298C891.739 107.298 888.817 108.693 886.517 111.498C884.233 114.304 883.09 118.802 883.09 125.021C883.09 131.241 884.233 135.812 886.517 138.455C888.802 141.097 891.724 142.418 895.3 142.418Z" fill="white"/>
<path d="M947.805 174.495V122.572C947.805 117.985 947.197 114.304 945.98 111.498C944.764 108.693 941.856 107.298 937.287 107.298H935.759V102.711H950.876C953.932 102.711 956.573 103.141 958.813 104.002C961.053 104.863 962.729 106.362 963.857 108.515H964.465C966.29 106.882 968.812 105.264 972.016 103.631C975.22 101.998 979.107 101.182 983.691 101.182C987.563 101.182 990.916 101.716 993.764 102.785C996.613 103.854 998.971 105.071 1000.86 106.452C1002.74 107.832 1004.03 108.975 1004.74 109.88C1006.77 107.639 1009.42 105.635 1012.68 103.854C1015.93 102.073 1020.51 101.182 1026.42 101.182C1034.86 101.182 1041.43 103.394 1046.1 107.832C1050.78 112.255 1053.12 119.41 1053.12 129.296V174.495H1033.27V129.133C1033.27 121.696 1032.1 116.456 1029.75 113.398C1027.41 110.341 1024.52 108.812 1021.06 108.812C1018.21 108.812 1015.65 109.376 1013.35 110.489C1011.06 111.617 1009.25 112.983 1007.93 114.616C1008.14 115.016 1008.33 115.506 1008.54 116.07C1008.75 116.634 1008.94 117.273 1009.15 117.985C1009.46 119.113 1009.73 120.612 1009.99 122.498C1010.25 124.383 1010.38 126.654 1010.38 129.296V174.495H990.53V129.133C990.53 121.696 989.358 116.456 987.014 113.398C984.67 110.341 981.777 108.812 978.321 108.812C975.977 108.812 973.692 109.495 971.452 110.875C969.212 112.255 967.58 113.606 966.571 114.927L967.031 117.065C967.239 117.777 967.387 118.638 967.491 119.662C967.595 120.687 967.64 121.8 967.64 123.017V174.48H947.79L947.805 174.495Z" fill="white"/>
<path d="M1092.04 176.024C1083.6 176.024 1077.16 174.109 1072.74 170.294C1068.32 166.48 1066.1 161.507 1066.1 155.406C1066.1 150.523 1067.24 146.366 1069.52 142.952C1071.81 139.538 1075.96 136.941 1081.97 135.159C1087.98 133.378 1096.42 132.487 1107.31 132.487H1109.59C1109.59 123.329 1108.32 116.961 1105.78 113.398C1103.23 109.836 1099.67 108.055 1095.1 108.055C1091.64 108.055 1088.54 108.916 1085.78 110.652C1083.04 112.389 1081.05 116.1 1079.83 121.8H1071.44C1071.44 119.158 1071.62 116.456 1071.97 113.71C1072.33 110.964 1073.43 108.574 1075.25 106.526C1077.07 104.492 1080.1 103.097 1084.33 102.325C1088.56 101.568 1093.16 101.182 1098.14 101.182C1108.11 101.182 1115.82 103.824 1121.27 109.123C1126.71 114.423 1129.43 122.468 1129.43 133.259V174.495H1116.45L1111.11 167.623H1110.35C1109.85 168.439 1109.21 169.196 1108.44 169.909C1107.68 170.621 1106.88 171.289 1106.08 171.898C1104.65 173.026 1102.77 173.991 1100.43 174.792C1098.08 175.609 1095.29 176.009 1092.03 176.009L1092.04 176.024ZM1096.61 168.394C1098.96 168.394 1100.91 167.89 1102.49 166.866C1104.06 165.856 1105.41 164.728 1106.54 163.511C1107.86 162.086 1108.88 160.409 1109.59 158.464V139.375H1107.31C1099.98 139.375 1094.71 140.696 1091.51 143.338C1088.3 145.98 1086.7 150.003 1086.7 155.406C1086.7 159.681 1087.59 162.917 1089.37 165.099C1091.15 167.296 1093.57 168.38 1096.63 168.38L1096.61 168.394Z" fill="white"/>
<path d="M682.163 81.1132L672.09 66.7593L662.017 81.1132L672.09 95.4671L682.163 81.1132Z" fill="white"/>
<path d="M1147.94 174.495V122.572C1147.94 117.985 1147.3 114.304 1146.03 111.498C1144.75 108.693 1141.83 107.298 1137.25 107.298H1135.72V102.711H1154.04C1159.44 102.711 1163.07 104.136 1164.96 106.986C1166.84 109.836 1167.78 115.031 1167.78 122.557V174.48H1147.93L1147.94 174.495Z" fill="white"/>
<path d="M1166.5 81.1132L1156.43 66.7593L1146.36 81.1132L1156.43 95.4671L1166.5 81.1132Z" fill="white"/>
</g>
<defs>
<filter id="filter0_d_148_184" x="0" y="0" width="1190.78" height="243.615" filterUnits="userSpaceOnUse" color-interpolation-filters="sRGB">
<feFlood flood-opacity="0" result="BackgroundImageFix"/>
<feColorMatrix in="SourceAlpha" type="matrix" values="0 0 0 0 0 0 0 0 0 0 0 0 0 0 0 0 0 0 127 0" result="hardAlpha"/>
<feOffset/>
<feGaussianBlur stdDeviation="11.5"/>
<feComposite in2="hardAlpha" operator="out"/>
<feColorMatrix type="matrix" values="0 0 0 0 0.498039 0 0 0 0 0.423529 0 0 0 0 0.709804 0 0 0 0.9 0"/>
<feBlend mode="normal" in2="BackgroundImageFix" result="effect1_dropShadow_148_184"/>
<feBlend mode="normal" in="SourceGraphic" in2="effect1_dropShadow_148_184" result="shape"/>
</filter>
</defs>
</svg>
