<svg width="132" height="60" viewBox="0 0 132 60" fill="none" xmlns="http://www.w3.org/2000/svg">
<g clip-path="url(#clip0_622_214)">
<path d="M16.316 9C15.0376 9 14 10.0654 14 11.378V39.9146C14 41.2273 15.0376 42.2927 16.316 42.2927C17.5945 42.2927 18.6321 41.2273 18.6321 39.9146V11.378C18.6321 10.0654 17.5945 9 16.316 9ZM16.316 47.0488C15.0376 47.0488 14 48.1141 14 49.4268C14 50.7395 15.0376 51.8049 16.316 51.8049C17.5945 51.8049 18.6321 50.7395 18.6321 49.4268C18.6321 48.1141 17.5945 47.0488 16.316 47.0488ZM24.0362 42.2927C22.7577 42.2927 21.7202 43.358 21.7202 44.6707V49.4268C21.7202 50.7395 22.7577 51.8049 24.0362 51.8049C25.3147 51.8049 26.3522 50.7395 26.3522 49.4268V44.6707C26.3522 43.358 25.3147 42.2927 24.0362 42.2927ZM24.0362 9C22.7577 9 21.7202 10.0654 21.7202 11.378V35.1585C21.7202 36.4712 22.7577 37.5366 24.0362 37.5366C25.3147 37.5366 26.3522 36.4712 26.3522 35.1585V11.378C26.3522 10.0654 25.3147 9 24.0362 9ZM31.7563 9C30.4779 9 29.4403 10.0654 29.4403 11.378V30.4024C29.4403 31.7151 30.4779 32.7805 31.7563 32.7805C33.0348 32.7805 34.0724 31.7151 34.0724 30.4024V11.378C34.0724 10.0654 33.0348 9 31.7563 9ZM31.7563 37.5366C30.4779 37.5366 29.4403 38.602 29.4403 39.9146V49.4268C29.4403 50.7395 30.4779 51.8049 31.7563 51.8049C33.0348 51.8049 34.0724 50.7395 34.0724 49.4268V39.9146C34.0724 38.602 33.0348 37.5366 31.7563 37.5366ZM39.4765 32.7805C38.198 32.7805 37.1605 33.8459 37.1605 35.1585V44.6707C37.1605 45.9834 38.198 47.0488 39.4765 47.0488C40.755 47.0488 41.7925 45.9834 41.7925 44.6707V35.1585C41.7925 33.8459 40.755 32.7805 39.4765 32.7805ZM39.4765 13.7561C38.198 13.7561 37.1605 14.8215 37.1605 16.1341V25.6463C37.1605 26.959 38.198 28.0244 39.4765 28.0244C40.755 28.0244 41.7925 26.959 41.7925 25.6463V16.1341C41.7925 14.8215 40.755 13.7561 39.4765 13.7561Z" fill="white"/>
<path d="M80.7018 16.9266C78.5695 16.9266 76.8418 18.7006 76.8418 20.89C76.8418 23.0794 78.5695 24.8534 80.7018 24.8534C82.8341 24.8534 84.5619 23.0794 84.5619 20.89C84.5619 18.7006 82.8341 16.9266 80.7018 16.9266ZM107.414 13.9144C108.167 13.9144 108.782 14.5311 108.803 15.2984V15.3412V19.8484L115.155 14.2584C115.737 13.7463 116.616 13.8145 117.115 14.4138C117.604 15.0004 117.549 15.8787 116.997 16.3955L116.965 16.4256L112.841 20.0561L117.144 25.5446C117.626 26.1582 117.53 27.0571 116.933 27.5501C116.346 28.0352 115.493 27.9512 115.006 27.3678L114.978 27.3329L110.729 21.9126L108.803 23.6073V26.4388C108.803 27.2267 108.181 27.8656 107.414 27.8656C106.646 27.8656 106.046 27.2489 106.024 26.4816V26.4388V15.3412C106.024 14.5533 106.646 13.9144 107.414 13.9144ZM52.8321 13.9144C55.0925 13.9144 56.9238 15.7946 56.9238 18.1156C56.9238 18.9781 56.6705 19.7802 56.2367 20.4477C57.1291 21.2182 57.6958 22.3739 57.6958 23.6644C57.6958 25.9616 55.9001 27.8276 53.672 27.8656H53.6041H47.042C46.2746 27.8656 45.6523 27.2267 45.6523 26.4388C45.6523 25.6509 46.253 25.0342 47.0003 25.012H47.042H53.6041C54.3282 25.012 54.9165 24.4079 54.9165 23.6644C54.9165 22.9209 54.3499 22.339 53.6427 22.3168H53.6041H52.8491H52.8321H47.042C46.2746 22.3168 45.6523 21.6779 45.6523 20.89C45.6523 20.1021 46.253 19.4854 47.0003 19.4632H47.042H52.8413H52.8707C53.5779 19.441 54.1445 18.8465 54.1445 18.1156C54.1445 17.3848 53.5779 16.7902 52.8707 16.7681H52.8321H47.042C46.2746 16.7681 45.6523 16.1292 45.6523 15.3412C45.6523 14.5533 46.253 13.9366 47.0003 13.9144H47.042H52.8321ZM62.7911 13.9144C63.5446 13.9144 64.1591 14.5311 64.1807 15.2984V15.3412V25.012H70.5112C71.2647 25.012 71.8792 25.6287 71.9009 26.396V26.4388C71.9009 27.2124 71.3018 27.8434 70.5529 27.8656H70.5112H62.7911C62.0376 27.8656 61.4231 27.2489 61.4015 26.4816V26.4388V15.3412C61.4015 14.5533 62.0237 13.9144 62.7911 13.9144ZM97.6862 13.7559C99.488 13.7559 101.151 14.4249 102.473 15.6583C103.062 16.1989 103.109 17.2009 102.473 17.8778C101.955 18.4977 100.973 18.5452 100.311 17.8778C99.627 17.296 98.7083 16.9266 97.6862 16.9266C95.5832 16.9266 93.8446 18.7006 93.8261 20.89C93.8446 23.0794 95.5832 24.8534 97.6862 24.8534C98.6419 24.8534 99.505 24.53 100.246 23.9529L100.311 23.9022C100.952 23.2665 101.932 23.3235 102.473 23.9022C103.075 24.6299 103.019 25.6318 102.318 26.2802C101.108 27.3726 99.4649 28.0242 97.6862 28.0242C93.8678 28.0242 90.738 24.8296 90.738 20.89C90.738 16.9504 93.8678 13.7559 97.6862 13.7559ZM80.7018 13.7559C84.5387 13.7559 87.65 16.9504 87.65 20.89C87.65 24.8296 84.5387 28.0242 80.7018 28.0242C76.8649 28.0242 73.7537 24.8296 73.7537 20.89C73.7537 16.9504 76.8649 13.7559 80.7018 13.7559ZM80.7018 36.945L78.9277 41.3412H82.4744L80.7003 36.945H80.7018ZM70.5112 32.9388C71.2786 32.9388 71.9009 33.5777 71.9009 34.3656C71.9009 35.1535 71.3002 35.7702 70.5529 35.7924H70.5112H64.1807V38.1705H69.276C70.0434 38.1705 70.6656 38.8094 70.6656 39.5973C70.6656 40.3853 70.065 41.002 69.3177 41.0242H69.276H64.1807V44.0363H70.5112C71.2647 44.0363 71.8792 44.6531 71.9009 45.4204V45.4632C71.9009 46.2368 71.3018 46.8678 70.5529 46.89H70.5112H62.7911C62.0376 46.89 61.4231 46.2733 61.4015 45.506V45.4632V34.3656C61.4015 33.592 62.0021 32.961 62.7494 32.9388H62.7911H70.5112ZM52.8321 32.9388C55.0925 32.9388 56.9238 34.819 56.9238 37.14C56.9238 38.0024 56.6705 38.8046 56.2367 39.4721C57.1291 40.2426 57.6958 41.3983 57.6958 42.6888C57.6958 44.986 55.9001 46.852 53.672 46.89H53.6041H47.042C46.2746 46.89 45.6523 46.2511 45.6523 45.4632C45.6523 44.6752 46.253 44.0585 47.0003 44.0363H47.042H53.6041C54.3282 44.0363 54.9165 43.4323 54.9165 42.6888C54.9165 41.9452 54.3499 41.3634 53.6427 41.3412H53.6041H47.042C46.2746 41.3412 45.6523 40.7023 45.6523 39.9144C45.6523 39.1265 46.253 38.5098 47.0003 38.4876H47.042H52.8321C53.5562 38.4876 54.1445 37.8835 54.1445 37.14C54.1445 36.3965 53.5779 35.8146 52.8707 35.7924H52.8321H47.042C46.2746 35.7924 45.6523 35.1535 45.6523 34.3656C45.6523 33.5777 46.253 32.961 47.0003 32.9388H47.042H52.8321ZM80.7018 32.6217C81.4754 32.6217 82.1316 33.0593 82.4358 33.787L86.9258 44.9162C87.2192 45.6439 86.8826 46.4794 86.1739 46.7806C85.4775 47.0771 84.6808 46.7489 84.3751 46.0482L84.3581 46.0085L83.6262 44.1949H77.7759L77.044 46.0085C76.7553 46.7235 75.9663 47.0692 75.2668 46.7965L75.2282 46.7806C74.5319 46.4841 74.1953 45.674 74.4609 44.9559L74.4763 44.9162L78.9663 33.787C79.2705 33.0593 79.9267 32.6217 80.7003 32.6217H80.7018ZM99.539 33.2559C100.306 33.2559 100.929 33.8948 100.929 34.6827C100.929 35.4706 100.328 36.0873 99.5807 36.1095H99.539H96.4509V45.4632C96.4509 46.3383 95.7592 47.0485 94.9069 47.0485C94.0546 47.0485 93.386 46.3621 93.3629 45.5076V45.4632V36.1095H90.2748C89.5074 36.1095 88.8852 35.4706 88.8852 34.6827C88.8852 33.8948 89.4858 33.2781 90.2331 33.2559H90.2748H99.539ZM107.877 32.6217C109.776 32.6217 111.474 33.1687 112.66 34.2499C113.235 34.7731 113.285 35.6751 112.778 36.2649C112.277 36.8435 111.423 36.9054 110.849 36.4139L110.815 36.3838C110.187 35.8115 109.144 35.4754 107.878 35.4754C107.299 35.4754 106.691 35.6387 106.276 35.9145C105.893 36.1682 105.717 36.4694 105.717 36.9022V36.9529C105.737 37.6331 106.147 37.9042 107.897 38.3005L108.379 38.4067C109.629 38.6873 110.482 38.9648 111.26 39.4213C112.523 40.1601 113.282 41.2826 113.282 42.7681C113.282 45.5726 110.891 47.2071 107.878 47.2071C105.723 47.2071 103.864 46.2987 102.843 45.1635C102.323 44.5849 102.357 43.6828 102.92 43.147C103.473 42.6222 104.33 42.646 104.854 43.1945L104.884 43.2278C105.057 43.4196 105.408 43.6812 105.84 43.8937C106.438 44.187 107.122 44.355 107.878 44.355C109.538 44.355 110.503 43.6955 110.503 42.7696C110.503 42.099 109.739 41.6345 107.742 41.1874L107.239 41.0765C106.032 40.8038 105.372 40.5834 104.696 40.1633C103.569 39.461 102.937 38.3592 102.937 36.9054C102.937 35.4516 103.626 34.2768 104.769 33.519C105.66 32.9293 106.79 32.6249 107.878 32.6249L107.877 32.6217Z" fill="white"/>
</g>
<defs>
<clipPath id="clip0_622_214">
<rect width="103.45" height="42.8049" fill="white" transform="translate(14 9)"/>
</clipPath>
</defs>
</svg>
