<svg width="328" height="60" viewBox="0 0 328 60" fill="none" xmlns="http://www.w3.org/2000/svg">
<path d="M135.628 15.3496H128.586V45.1218H135.628V15.3496Z" fill="white"/>
<path d="M74.3184 38.6322C69.6862 38.6322 65.9189 34.8647 65.9189 30.2344C65.9189 25.6022 69.6864 21.8347 74.3184 21.8347C77.7576 21.8347 80.7194 23.912 82.0167 26.8797L88.0915 23.6212C85.6288 18.4936 80.3874 14.9561 74.3184 14.9561C65.8794 14.9561 59.04 21.7954 59.04 30.2344C59.04 38.6715 65.8794 45.5107 74.3184 45.5107C80.3874 45.5107 85.6288 41.9712 88.0932 36.8458L82.0166 33.5892C80.7194 36.5549 77.7576 38.6322 74.3184 38.6322Z" fill="white"/>
<path d="M108.601 14.9561C100.163 14.9561 93.3232 21.7964 93.3232 30.2339C93.3232 38.6714 100.163 45.5115 108.601 45.5115C117.039 45.5115 123.879 38.6714 123.879 30.2339C123.879 21.7964 117.039 14.9561 108.601 14.9561ZM108.601 38.6332C103.97 38.6332 100.202 34.8653 100.202 30.2341C100.202 25.6028 103.97 21.8349 108.601 21.8349C113.232 21.8349 117 25.6028 117 30.2341C117 34.8653 113.232 38.6332 108.601 38.6332Z" fill="white"/>
<path d="M166.555 38.12H165.418L155.167 15.5695L155.083 15.373L142.718 15.4476V45.0233H149.596V22.2515H150.649L160.967 44.9986L173.434 45.0233V15.4476H166.555V38.12Z" fill="white"/>
<path d="M273.09 38.12H271.953L261.618 15.373L249.252 15.4476V45.0233H256.131V22.2515H257.183L267.516 44.9986L279.968 45.0233V15.4476H273.09V38.12Z" fill="white"/>
<path d="M223.765 15.4473L214.585 45.1491H221.784L223.83 38.532H236.109L238.155 45.1491H245.354L236.174 15.4473H223.765ZM225.956 31.6534L228.822 22.385L228.822 22.3847H231.117L231.118 22.385L233.983 31.6534H225.956Z" fill="white"/>
<path d="M210.307 27.1276V26.7778C210.307 20.4889 205.191 15.373 198.902 15.373L180.453 15.448V45.0237H187.332V38.5323H197.309L202.505 45.1163H211.266L204.781 36.8972C208.091 34.9004 210.307 31.2685 210.307 27.1276ZM187.333 22.2515H198.902C201.398 22.2515 203.428 24.2816 203.428 26.7776V27.1274C203.428 29.6232 201.398 31.6535 198.902 31.6535H187.333V22.2515Z" fill="white"/>
<path d="M292.836 15.5918H286.083V44.8043H292.836V15.5918Z" fill="white"/>
<path d="M315.428 15.5918H306.894L297.199 28.1342L297.158 28.1872V32.2093L306.835 44.7278L306.894 44.8043H315.428L304.138 30.1944L315.428 15.5918Z" fill="white"/>
<path d="M11.2158 21.5391L11.2204 39.028L19.9343 30.2963V21.5391H11.2158Z" fill="white"/>
<path d="M37.3713 30.2971V39.0155H19.9343V34.9566L6.85742 47.734H28.6528L37.3713 39.0155H46.0926V21.54L37.3713 30.2971ZM28.6526 47.7338L37.3713 39.0153L28.6526 47.7338Z" fill="white"/>
<path d="M28.6103 12.8574L19.9336 21.5385H37.3706V25.9358L50.4503 12.8574H28.6103Z" fill="white"/>
</svg>
