<svg width="189" height="60" viewBox="0 0 189 60" fill="none" xmlns="http://www.w3.org/2000/svg">
<path fill-rule="evenodd" clip-rule="evenodd" d="M36.6271 52.8719C49.4594 52.8719 59.8622 42.4974 59.8622 29.6998C59.8622 16.9023 49.4594 6.52774 36.6271 6.52774C23.7947 6.52774 13.392 16.9023 13.392 29.6998C13.392 42.4974 23.7947 52.8719 36.6271 52.8719ZM62.1106 29.6998C62.1106 43.7358 50.7014 55.1145 36.6271 55.1145C22.5528 55.1145 11.1436 43.7358 11.1436 29.6998C11.1436 15.6638 22.5528 4.28516 36.6271 4.28516C50.7014 4.28516 62.1106 15.6638 62.1106 29.6998Z" fill="white"/>
<path d="M62.1113 29.5771L49.3957 16.9033H38.0967L43.7482 22.5357L60.32 39.0629C61.5045 36.0827 62.1123 32.9062 62.1113 29.7004C62.1113 29.6594 62.1113 29.6183 62.1113 29.5771Z" fill="white"/>
<path d="M38.0964 16.9033L28.3828 26.5985L34.0267 32.2306L43.748 22.5357L49.3955 16.9033H38.0964Z" fill="white"/>
<path d="M24.042 25.4053L29.6897 31.0412L43.8518 45.1614L49.4996 39.5251L35.341 25.4053H24.042Z" fill="white"/>
<path d="M35.3417 25.4053H24.0426L12.2676 37.1743C13.0987 39.8571 14.3715 42.3833 16.034 44.6492L29.6901 31.0412L35.3417 25.4053Z" fill="white"/>
<path d="M168.092 27.084H167.271V20.5323C167.271 18.4021 166.509 17.0803 164.985 16.5669C164.591 16.4261 164.175 16.3564 163.756 16.3613C163.116 16.3397 162.481 16.4728 161.904 16.7496C161.327 17.0261 160.826 17.4381 160.443 17.9497C160.278 18.1756 160.132 18.4143 160.005 18.6636V11.1104H155.23V11.7793H156.729V25.7573C156.729 26.5609 156.354 26.9945 155.575 27.0616C155.451 27.0804 155.326 27.0893 155.2 27.0878V27.7531H161.234C161.235 27.5811 161.169 27.4154 161.05 27.2906C160.932 27.1658 160.769 27.0918 160.597 27.084H160.005V20.9435C160.005 19.4484 160.469 18.443 161.391 17.9535C161.65 17.8066 161.941 17.7271 162.238 17.7217C163.285 17.7217 163.867 18.3622 163.984 19.6428C164.004 19.7953 164.012 19.9488 164.011 20.1026V25.7573C164.011 26.4412 163.91 26.8413 163.703 26.9607C163.485 27.055 163.248 27.0985 163.01 27.0878V27.7531H168.759C168.759 27.6655 168.743 27.5785 168.709 27.4975C168.676 27.4161 168.627 27.3424 168.565 27.2802C168.503 27.2182 168.429 27.1689 168.348 27.1351C168.267 27.1015 168.18 27.084 168.092 27.084Z" fill="white"/>
<path d="M177.592 24.9651C177.251 26.3443 176.745 27.1068 176.093 27.2412C175.991 27.259 175.889 27.2679 175.786 27.2674C175.151 27.2674 174.765 26.8239 174.628 25.9369C174.594 25.7255 174.578 25.5118 174.579 25.2978V17.5389H177.952V16.8736H174.579V13.9023L171.319 14.4406V16.8736H169.546V17.5389H171.319V23.9411C171.319 26.4152 172.345 27.7719 174.399 28.0113C174.605 28.0113 174.807 28.0375 175.014 28.0375C176.333 28.0375 177.24 27.61 177.734 26.7553C178.004 26.2239 178.19 25.6541 178.285 25.066L177.592 24.9651Z" fill="white"/>
<path d="M155.125 16.549C155.13 16.2585 155.044 15.9738 154.879 15.7347C154.713 15.4955 154.477 15.3136 154.203 15.2147C153.919 15.093 153.613 15.032 153.304 15.0353C152.417 15.0353 151.723 15.5474 151.224 16.5716C151.141 16.7584 151.063 16.9452 150.995 17.132C150.076 16.6024 149.024 16.3431 147.963 16.3845C145.981 16.3845 144.523 17.0164 143.601 18.2795C143.093 18.9593 142.822 19.7863 142.829 20.6341C142.829 21.8624 143.429 22.9377 144.628 23.8595C144.843 24.0214 145.07 24.1675 145.306 24.2969C144.858 24.2616 144.41 24.3726 144.03 24.6133C143.65 24.854 143.359 25.2111 143.2 25.6312C143.067 25.9562 142.997 26.3039 142.994 26.6551C142.993 27.0376 143.077 27.4158 143.242 27.7612C143.407 28.1068 143.647 28.4108 143.946 28.6509C143.544 29.0759 143.308 29.6299 143.279 30.2132C143.279 31.1352 143.886 31.8265 145.1 32.2875C146.058 32.6161 147.067 32.7717 148.08 32.7473C150.888 32.7473 152.702 32.0905 153.521 30.7776C153.767 30.3949 153.897 29.9499 153.896 29.4957C153.896 27.7739 152.954 26.7921 151.07 26.5504C150.841 26.5169 150.609 26.5006 150.377 26.5019L145.063 26.3972C144.881 26.4122 144.701 26.3611 144.555 26.2531C144.409 26.145 144.307 25.9877 144.268 25.8106C144.251 25.7613 144.242 25.7094 144.242 25.6573C144.236 25.5704 144.249 25.4835 144.279 25.4017C144.308 25.3198 144.355 25.2451 144.415 25.1823C144.475 25.1193 144.548 25.0697 144.629 25.0362C144.709 25.0029 144.796 24.9864 144.883 24.9882C144.951 24.9737 145.02 24.9661 145.089 24.9658L147.836 24.9882C149.71 24.9882 151.141 24.3492 152.097 23.0709C152.637 22.3448 152.926 21.4634 152.921 20.5594C152.926 19.9754 152.802 19.3975 152.558 18.8665C152.314 18.3356 151.956 17.8647 151.509 17.4873C151.572 17.2997 151.685 17.133 151.836 17.0049C151.987 16.8771 152.17 16.7927 152.366 16.7612C152.561 16.7297 152.762 16.752 152.946 16.826C153.13 16.9 153.29 17.0225 153.409 17.1808C153.522 17.2748 153.648 17.3528 153.784 17.4123C153.901 17.4657 154.029 17.4949 154.158 17.4985C154.261 17.4972 154.362 17.4781 154.458 17.4423C154.542 17.4136 154.623 17.3747 154.698 17.3264L154.769 17.2667C154.877 17.18 154.965 17.071 155.026 16.947C155.088 16.8229 155.121 16.6872 155.125 16.549ZM144.557 29.036C144.9 29.1719 145.267 29.2416 145.636 29.2416L150.823 29.2901C151.816 29.2901 152.397 29.4434 152.569 29.7534C152.64 29.8866 152.675 30.0363 152.67 30.187C152.67 30.9919 151.875 31.5462 150.283 31.8501C149.556 31.9935 148.817 32.0623 148.076 32.0557C145.987 32.0557 144.729 31.5947 144.302 30.6729C144.219 30.4976 144.176 30.3062 144.175 30.1123C144.186 29.7224 144.32 29.346 144.557 29.036ZM149.541 22.727C149.541 22.9377 149.499 23.1461 149.418 23.3403C149.337 23.5347 149.218 23.7111 149.068 23.8595C148.919 24.0079 148.741 24.1251 148.546 24.2046C148.35 24.2842 148.141 24.3243 147.93 24.3231H147.679C147.254 24.3231 146.847 24.1548 146.547 23.8554C146.247 23.5563 146.078 23.1504 146.078 22.727V18.616C146.078 18.1925 146.247 17.7867 146.547 17.4875C146.847 17.1882 147.254 17.0199 147.679 17.0199H147.93C148.354 17.0199 148.761 17.1882 149.061 17.4875C149.361 17.7867 149.53 18.1925 149.53 18.616L149.541 22.727Z" fill="white"/>
<path d="M82.6776 27.0622H79.6494V20.2264H84.5963V19.4789H79.6494V13.0841H82.5501C84.0916 13.0841 85.1097 13.8865 85.6045 15.4911C85.6124 15.4975 85.6187 15.5054 85.6231 15.5143C85.6276 15.5234 85.6302 15.5333 85.6307 15.5435L86.1965 17.4381H86.946L86.845 12.3926H74.002V13.0841H76.0555V27.0622H74.002V27.7537H82.6776V27.0622Z" fill="white"/>
<path d="M107.556 27.0846H105.705V21.5569C105.825 19.768 106.262 18.6767 107.017 18.283C107.137 18.2307 107.549 18.0363 107.965 18.7949C108.166 19.2404 108.515 19.6023 108.954 19.8191C109.139 19.8699 109.329 19.8951 109.52 19.8938C109.836 19.9065 110.148 19.8193 110.411 19.645C110.674 19.4704 110.875 19.2173 110.985 18.922C111.086 18.7054 111.139 18.4696 111.139 18.2307C111.166 17.8561 111.053 17.485 110.823 17.1879C110.593 16.8908 110.261 16.6885 109.891 16.6196C109.681 16.5701 109.466 16.5449 109.25 16.5449C108.722 16.5467 108.2 16.6588 107.717 16.8746C107.235 17.0903 106.804 17.4044 106.451 17.7971C106.102 18.191 105.824 18.6424 105.63 19.1314L105.45 16.7505H100.953V17.4159H102.452V25.7577C102.452 26.5054 102.152 26.9352 101.557 27.0396C101.361 27.0747 101.163 27.091 100.964 27.0884V27.7535H108.231C108.231 27.6654 108.214 27.5777 108.18 27.4961C108.147 27.4145 108.097 27.3403 108.034 27.278C107.972 27.2158 107.897 27.1667 107.815 27.1334C107.733 27.1001 107.645 27.0836 107.556 27.0846Z" fill="white"/>
<path d="M122.601 25.1172L121.987 24.9116C121.777 25.4003 121.47 25.8412 121.083 26.207C120.696 26.5729 120.239 26.8555 119.738 27.0383C119.336 27.189 118.909 27.2662 118.479 27.2662C117.112 27.2662 116.23 26.394 115.833 24.6498C115.666 23.8068 115.58 22.9493 115.578 22.0898L117.939 22.1683C120.687 22.2555 122.288 21.8194 122.74 20.8602C122.847 20.6099 122.899 20.3397 122.894 20.0678C122.894 18.6176 122.144 17.5599 120.645 16.8948C119.743 16.5232 118.773 16.34 117.797 16.3565C115.863 16.3565 114.357 17.013 113.277 18.3261C112.434 19.4167 111.998 20.7659 112.044 22.1421C112.044 24.6163 112.978 26.3404 114.844 27.3148C115.782 27.786 116.821 28.0233 117.872 28.0061C119.871 28.0061 121.308 27.3059 122.185 25.9058C122.355 25.6603 122.495 25.3955 122.601 25.1172ZM117.801 17.0254C118.895 17.0592 119.453 17.9899 119.468 19.8175C119.468 20.6173 119.228 21.1144 118.749 21.3124C118.247 21.447 117.725 21.49 117.208 21.4394L115.567 21.3647C115.687 18.5244 116.432 17.0778 117.801 17.0254Z" fill="white"/>
<path d="M130.046 20.9966C129.695 20.8533 129.353 20.6911 129.019 20.5109C127.993 20.0001 127.479 19.3772 127.479 18.6422C127.478 18.4686 127.503 18.296 127.554 18.1301C127.804 17.4124 128.48 17.0538 129.582 17.0538C131.208 17.0688 132.056 17.8536 132.126 19.4082H132.939V16.209C132.852 16.2085 132.765 16.2255 132.683 16.2586C132.602 16.2918 132.529 16.3409 132.466 16.4027C132.404 16.4647 132.355 16.5381 132.322 16.6192C132.289 16.7 132.272 16.7867 132.272 16.8743V17.08C131.523 16.6014 130.478 16.3622 129.139 16.3622C128.377 16.3516 127.617 16.4639 126.891 16.6949C125.299 17.2058 124.503 18.1873 124.503 19.64C124.491 20.3071 124.729 20.9549 125.17 21.4564C125.583 21.9349 126.43 22.4557 127.711 23.0186C128.106 23.1749 128.492 23.3548 128.866 23.5569C129.965 24.1348 130.513 24.8599 130.511 25.7321C130.509 25.8434 130.5 25.9545 130.485 26.0648C130.312 26.8819 129.652 27.2918 128.506 27.2944C126.471 27.2944 125.437 26.218 125.403 24.1213H124.53V28.0118C124.714 28.0118 124.89 27.9391 125.02 27.8093C125.15 27.6796 125.223 27.5038 125.223 27.3205V27.2158C126.406 27.7808 127.708 28.0537 129.019 28.0118C129.742 28.0202 130.461 27.9168 131.152 27.7053C132.691 27.1947 133.461 26.198 133.464 24.7155C133.477 23.9518 133.202 23.211 132.692 22.6412C132.262 22.1428 131.38 21.5946 130.046 20.9966Z" fill="white"/>
<path d="M140.548 27.084H139.648V16.7461H134.896V17.4114H136.395V25.7571C136.395 26.5046 136.096 26.9346 135.496 27.039C135.301 27.0741 135.103 27.0904 134.904 27.0876V27.7529H141.222C141.223 27.6647 141.206 27.5771 141.172 27.4955C141.138 27.4139 141.088 27.3397 141.026 27.2774C140.963 27.2151 140.888 27.1661 140.806 27.1328C140.724 27.0995 140.636 27.083 140.548 27.084Z" fill="white"/>
<path d="M85.2216 33.3602H87.2754V43.2684L78.2247 32.6689H73.8701V33.3602H75.9275V47.3421H73.8701V48.0336H79.1879C79.1879 47.8501 79.1149 47.6743 78.9849 47.5446C78.8549 47.415 78.6786 47.3421 78.4947 47.3421H76.9957V36.6641L86.8818 48.1607H88.3433V33.3602H90.3971V32.6689H85.2216V33.3602Z" fill="white"/>
<path d="M99.9055 37.176C99.0029 36.8047 98.0336 36.6214 97.0572 36.6377C95.1235 36.6377 93.6169 37.2954 92.5377 38.6112C91.6977 39.6961 91.2619 41.0383 91.3046 42.4084C91.3046 44.885 92.2378 46.6092 94.1041 47.581C95.0418 48.0545 96.0816 48.2919 97.1322 48.2723C99.1311 48.2723 100.569 47.5721 101.446 46.172C101.613 45.9245 101.751 45.6586 101.858 45.3796L101.24 45.174C101.03 45.663 100.723 46.1037 100.336 46.4696C99.9495 46.8353 99.4916 47.1182 98.9912 47.3007C98.59 47.4529 98.1646 47.5314 97.7357 47.5325C96.3639 47.5325 95.4822 46.6602 95.0899 44.916C94.9225 44.073 94.8373 43.2155 94.835 42.356L97.1958 42.4307C99.9441 42.5179 101.544 42.0831 101.997 41.1265C102.101 40.8741 102.153 40.6032 102.15 40.3302C102.143 38.8925 101.394 37.8411 99.9055 37.176ZM98.0053 41.5786C97.5042 41.7148 96.9824 41.759 96.4652 41.7095L94.8238 41.6309C94.9436 38.798 95.6931 37.3552 97.0722 37.3031C98.1666 37.3379 98.7225 38.2686 98.7401 40.0949C98.7251 40.9132 98.4851 41.3918 98.0053 41.5786Z" fill="white"/>
<path d="M127.528 41.287C127.177 41.1436 126.834 40.9815 126.501 40.8013C125.474 40.2905 124.961 39.6676 124.961 38.9326C124.961 38.759 124.988 38.5862 125.039 38.4205C125.294 37.703 125.972 37.3442 127.067 37.3442C128.693 37.3614 129.54 38.1465 129.608 39.6986H130.428V36.4844C130.251 36.4844 130.082 36.5545 129.957 36.6793C129.832 36.8041 129.761 36.9734 129.761 37.1497V37.3553C129.012 36.877 127.969 36.6376 126.632 36.6376C125.869 36.6267 125.11 36.739 124.383 36.9703C122.792 37.4811 121.995 38.4629 121.993 39.9154C121.982 40.583 122.221 41.2308 122.663 41.7317C123.072 42.2103 123.919 42.7336 125.204 43.2942C125.733 43.5184 126.119 43.6978 126.359 43.8323C127.453 44.4117 128 45.1404 128 46.0113C127.999 46.1224 127.992 46.2334 127.977 46.344C127.805 47.1611 127.145 47.5697 125.999 47.5697C123.965 47.5547 122.929 46.497 122.892 44.3967H122.034V48.2874C122.218 48.2874 122.394 48.2145 122.524 48.0849C122.654 47.9553 122.727 47.7794 122.727 47.5959V47.495C123.913 48.0569 125.215 48.3286 126.527 48.2874C127.25 48.2976 127.969 48.1942 128.659 47.9809C130.201 47.4701 130.971 46.4733 130.968 44.9909C130.984 44.2275 130.709 43.4866 130.2 42.9166C129.754 42.4083 128.866 41.8702 127.528 41.287Z" fill="white"/>
<path d="M119.647 37.0225H117.338V37.6876H118.927L116.54 45.1625L114.026 37.6876H115.566V37.0225H110.585L111.458 39.5825L109.764 45.1402L107.272 37.6876H108.813V37.0225H102.884V37.6876H103.959L106.958 46.2838C107.332 47.3078 107.677 47.8946 108.037 48.0517C108.242 48.1246 108.46 48.1589 108.678 48.1525H109.525L111.912 40.7523L113.812 46.2838C114.157 47.2554 114.439 47.8186 114.659 47.9731C114.903 48.1055 115.18 48.1675 115.457 48.1525H116.304L119.512 38.435C119.559 38.2383 119.666 38.0609 119.819 37.9272C119.971 37.7933 120.161 37.7097 120.363 37.6876C120.533 37.6789 120.694 37.6057 120.811 37.4827C120.929 37.3595 120.995 37.1963 120.996 37.026H119.662L119.647 37.0225Z" fill="white"/>
<path d="M137.965 15.2583C139.015 15.2583 139.865 14.41 139.865 13.3637C139.865 12.3171 139.015 11.4688 137.965 11.4688C136.916 11.4688 136.065 12.3171 136.065 13.3637C136.065 14.41 136.916 15.2583 137.965 15.2583Z" fill="white"/>
<path d="M97.6453 17.565C96.5606 16.7489 95.2298 16.3245 93.8715 16.3616C91.7653 16.3616 90.1476 17.0778 89.0183 18.5104C88.2304 19.5382 87.8144 20.8013 87.8379 22.0947C87.8379 24.0234 88.5062 25.5518 89.8428 26.6807C90.9065 27.5679 92.2566 28.0409 93.6428 28.0112C95.6592 28.0112 97.2418 27.2848 98.3912 25.8321C99.2409 24.754 99.6935 23.4175 99.6729 22.0461C99.6729 20.1326 98.997 18.6388 97.6453 17.565ZM96.1464 25.1782C96.1464 25.7729 95.9095 26.3432 95.4877 26.7638C95.0659 27.1844 94.494 27.4205 93.8977 27.4205H93.5904C92.9941 27.4205 92.4222 27.1844 92.0004 26.7638C91.5788 26.3432 91.342 25.7729 91.342 25.1782V19.3178C91.342 18.7231 91.5788 18.1526 92.0004 17.7322C92.4222 17.3116 92.9941 17.0753 93.5904 17.0753H93.8939C94.4905 17.0753 95.0624 17.3116 95.4839 17.7322C95.9057 18.1526 96.1426 18.7231 96.1426 19.3178L96.1464 25.1782Z" fill="white"/>
</svg>
