<svg width="96" height="60" viewBox="0 0 96 60" fill="none" xmlns="http://www.w3.org/2000/svg">
<g clip-path="url(#clip0_560_275)">
<path d="M55.6246 51.4277V24.987H65.4292V51.4277H55.6246ZM67.1739 51.4277V41.2469H82.2863V51.4277H67.1739ZM67.1739 35.1698V24.9879H82.2863V35.1698H67.1739ZM67.1739 19.6439V9.46304H82.2863V19.6439H67.1739ZM55.3622 19.6439V9.42773H65.2008V19.6439H55.3622ZM13.7148 9.46582H24.1971L30.6062 27.5686C31.4205 29.9936 32.0725 32.6443 32.8324 35.238H33.1042C33.9192 32.6443 34.5705 29.9936 35.3311 27.5686L41.5214 9.46583H52.0594V51.424H43.2067V37.043C43.2067 32.8699 43.9666 26.6099 44.4557 22.4935H44.2382L40.8715 32.5312L35.4394 47.871H30.1172L24.6314 32.5312L21.3727 22.4944H21.1555C21.6443 26.611 22.4045 32.8709 22.4045 37.0439V51.425H13.7148V9.46582Z" fill="white"/>
</g>
<defs>
<clipPath id="clip0_560_275">
<rect width="68.5714" height="42" fill="white" transform="translate(13.7148 9.42773)"/>
</clipPath>
</defs>
</svg>
