<svg width="172" height="60" viewBox="0 0 172 60" fill="none" xmlns="http://www.w3.org/2000/svg">
<g clip-path="url(#clip0_622_192)">
<path d="M70.5524 15.1777V19.3062C69.5257 19.5188 68.9264 19.9987 68.3042 20.5435C67.4691 21.2758 67.3381 22.3885 67.3299 23.4298C67.2939 28.1079 67.253 32.7878 67.343 37.4643C67.3823 39.4671 67.7409 40.6927 70.5524 41.6626V45.8326C69.1835 45.8592 67.9456 45.4523 66.7978 44.8395C63.6195 43.1439 61.9968 40.437 61.9608 36.8133C61.9199 32.5238 61.9477 28.2325 61.9477 23.9413C61.9477 19.5304 65.2651 15.7424 69.5847 15.2226C69.8745 15.1877 70.2151 15.1794 70.5524 15.1794V15.1777Z" fill="white"/>
<path d="M70.8827 45.8342C70.8827 44.4176 70.85 42.8981 70.8827 41.6592C71.0006 41.631 71.089 41.5994 71.2692 41.5297C73.6434 40.686 74.0904 39.4953 74.097 37.3497C74.1101 32.7794 74.1068 28.2109 74.0986 23.6406C74.0937 21.1878 72.9 19.4972 70.8827 19.3029V15.1793C71.8013 15.0814 74.621 15.6776 75.9456 16.8932C78.2773 18.6618 79.4497 21.0632 79.4563 24.0193C79.4661 28.2574 79.4595 32.4938 79.4595 36.7319C79.4595 40.9767 77.0509 44.2565 73.0146 45.4589C72.3711 45.6515 71.5655 45.7944 70.8827 45.8359V45.8342Z" fill="white"/>
<path d="M90.7528 15.8223H85.2871V45.1768H90.7528V15.8223Z" fill="white"/>
<path d="M91.2702 19.431V15.8223H96.0236C97.8346 15.8223 101.075 18.315 101.172 21.0701C101.26 23.5711 101.182 37.2304 101.168 39.7629C101.167 40.0951 101.123 40.4172 101.028 40.7344C100.279 43.2089 98.0671 44.9294 95.5177 45.0224L91.2702 45.1768V41.3389C91.2702 41.3389 93.3071 41.4203 93.9376 41.2409C94.568 41.0599 95.8501 39.7779 95.8452 38.813C95.8402 37.7468 95.8452 22.1263 95.8452 22.1263C95.8452 22.1263 95.8844 21.0551 94.8512 20.1966C94.3207 19.7565 93.6428 19.5422 92.9584 19.509L91.2686 19.4293L91.2702 19.431Z" fill="white"/>
<path d="M111.079 15.8223L104.401 45.1785H109.834L111.192 38.2417L115.171 38.2899L114.766 34.9934H111.775L113.311 27.3675L111.079 15.8223Z" fill="white"/>
<path d="M111.629 15.8223H116.173L122.511 45.1785H117L111.629 15.8223Z" fill="white"/>
<path d="M132.355 15.8223H126.909V45.1768H132.355V15.8223Z" fill="white"/>
<path d="M143.612 15.8223H138.166V45.1768H143.612V15.8223Z" fill="white"/>
<path d="M150.468 41.4971H144.009V45.1788H150.468V41.4971Z" fill="white"/>
<path d="M150.711 15.8223H155.401L161.673 38.6187V45.1785H156.193V36.2572L150.711 15.8223Z" fill="white"/>
<path d="M161.447 36.5843L167 15.8223H162.03L159.086 27.8922L161.447 36.5843Z" fill="white"/>
<path d="M28.9817 8.12074C30.3588 8.3167 31.7325 8.57909 33.0687 8.95275C43.0078 11.7228 49.6934 20.9845 49.3283 31.4204C48.9566 42.0738 41.038 51.0665 30.5913 52.689C29.7611 52.8185 28.9211 52.8916 28.0189 52.9995V42.3743C28.8294 42.2199 29.6432 42.1169 30.4292 41.906C36.3059 40.3333 40.1161 34.4644 39.1157 28.554C38.0628 22.333 32.7592 18.0418 26.6238 18.4453C20.6914 18.8372 15.825 23.7662 15.6809 29.7796C15.5335 36.0056 15.5925 42.2365 15.563 48.4658C15.563 48.7946 15.563 49.1218 15.563 49.625C15.2159 49.4157 14.9899 49.2912 14.777 49.1483C7.258 44.0882 3.58199 34.7949 5.50432 25.7059C7.37098 16.8776 14.6739 9.87444 23.516 8.43627C23.8615 8.37981 24.2053 8.32168 24.5492 8.2619C25.1763 8.15395 25.8084 8.06759 26.4437 8.02774C27.2951 7.97459 28.0647 7.98954 28.9817 8.12074Z" fill="white"/>
<path d="M26.9597 19.3675V52.9701C25.183 52.9701 23.7847 52.6712 22.3061 52.266C20.5246 51.7777 18.8168 51.1002 17.0778 50.3595C16.7585 50.1918 16.5506 50.0672 16.508 49.9908C16.4965 49.8397 16.4818 49.6221 16.4834 49.4245C16.5014 43.1936 16.4523 36.961 16.508 30.73C16.5604 24.9109 20.8488 20.1049 26.5225 19.3692C26.6518 19.3526 26.7828 19.3675 26.9597 19.3675Z" fill="white"/>
</g>
<defs>
<clipPath id="clip0_622_192">
<rect width="162" height="45" fill="white" transform="translate(5 8)"/>
</clipPath>
</defs>
</svg>
