<svg width="292" height="60" viewBox="0 0 292 60" fill="none" xmlns="http://www.w3.org/2000/svg">
<g clip-path="url(#clip0_560_257)">
<mask id="mask0_560_257" style="mask-type:luminance" maskUnits="userSpaceOnUse" x="7" y="12" width="267" height="36">
<path d="M273.428 12.8574H7.71387V48.0003H273.428V12.8574Z" fill="white"/>
</mask>
<g mask="url(#mask0_560_257)">
<path d="M114.758 14.1621H92.7129V19.8972H100.758V44.5836H106.667V19.8972H114.758V14.1621Z" fill="white"/>
<path d="M124.088 22.2441C117.365 22.2441 112.788 27.2377 112.788 33.7144C112.788 40.191 117.328 45.1846 124.523 45.1846C128.638 45.1846 131.846 43.4857 133.853 40.5383L129.396 37.9289C128.453 39.1867 126.742 40.1066 124.597 40.1066C121.684 40.1066 119.335 38.8863 118.558 36.0234H134.704C134.833 35.2819 134.916 34.5498 134.916 33.7238C134.916 27.3316 130.422 22.2535 124.088 22.2535V22.2441ZM118.475 31.6775C119.113 28.8991 121.129 27.2847 124.088 27.2847C126.4 27.2847 128.712 28.5424 129.396 31.6775H118.475Z" fill="white"/>
<path d="M148.75 39.6278C145.458 39.6278 143.017 37.1498 143.017 33.7144C143.017 30.2789 145.458 27.7634 148.75 27.7634C150.932 27.7634 152.772 28.8897 153.632 30.6732L158.385 27.8478C156.628 24.4969 152.994 22.2441 148.796 22.2441C142.286 22.2441 137.496 27.2377 137.496 33.7144C137.496 40.191 142.295 45.1846 148.796 45.1846C152.994 45.1846 156.628 42.9225 158.468 39.534L153.669 36.7556C152.809 38.539 150.969 39.6278 148.75 39.6278Z" fill="white"/>
<path d="M173.283 22.2438C170.416 22.2438 168.188 23.3327 166.902 25.2851V14.1621H161.382V44.5836H166.902V32.8505C166.902 29.0678 168.918 27.4627 171.609 27.4627C174.097 27.4627 175.844 28.9833 175.844 31.94V44.5836H181.365V31.2454C181.365 25.4634 177.814 22.2532 173.274 22.2532H173.283V22.2438Z" fill="white"/>
<path d="M186.339 44.5836H192.248V32.8505H203.899V27.1154H192.248V19.8972H204.241V14.1621H186.339V44.5836Z" fill="white"/>
<path d="M213.821 12.8574H208.301V44.5836H213.821V12.8574Z" fill="white"/>
<path d="M229.07 22.2441C222.773 22.2441 217.771 27.2377 217.771 33.7144C217.771 40.191 222.782 45.1846 229.07 45.1846C235.358 45.1846 240.417 40.191 240.417 33.7144C240.417 27.2377 235.368 22.2441 229.07 22.2441ZM229.07 39.7123C225.815 39.7123 223.291 37.2343 223.291 33.7144C223.291 30.1945 225.815 27.7164 229.07 27.7164C232.325 27.7164 234.896 30.1945 234.896 33.7144C234.896 37.2343 232.372 39.7123 229.07 39.7123Z" fill="white"/>
<path d="M263.922 36.2386L260.029 22.8535H254.805L250.902 36.1917L247.268 22.8535H241.396L248.212 44.5831H253.473L257.412 31.414L261.352 44.5831H266.622L273.428 22.8535H267.566L263.922 36.2386Z" fill="white"/>
<path d="M71.0932 30.7576C65.2213 20.4512 54.2543 13.5146 41.6783 13.5146C22.9253 13.5146 7.71387 28.9554 7.71387 48.0005H41.6783C54.2451 48.0005 65.2121 41.0639 71.0932 30.7576Z" fill="url(#paint0_linear_560_257)"/>
<path d="M41.6973 13.5146C54.264 13.5146 65.231 20.4512 71.1122 30.7576C74.0065 25.6889 75.671 19.8036 75.671 13.5146H41.6973Z" fill="white"/>
</g>
</g>
<defs>
<linearGradient id="paint0_linear_560_257" x1="8.85126" y1="49.9998" x2="64.1495" y2="18.5396" gradientUnits="userSpaceOnUse">
<stop stop-color="white"/>
<stop offset="0.09" stop-color="white" stop-opacity="0.96"/>
<stop offset="0.25" stop-color="white" stop-opacity="0.86"/>
<stop offset="0.45" stop-color="white" stop-opacity="0.69"/>
<stop offset="0.69" stop-color="white" stop-opacity="0.45"/>
<stop offset="0.95" stop-color="white" stop-opacity="0.16"/>
<stop offset="1" stop-color="white" stop-opacity="0.1"/>
</linearGradient>
<clipPath id="clip0_560_257">
<rect width="265.714" height="35.1429" fill="white" transform="translate(7.71387 12.8574)"/>
</clipPath>
</defs>
</svg>
