<svg width="254" height="75" viewBox="0 0 254 75" fill="none" xmlns="http://www.w3.org/2000/svg">
<path d="M56.1491 39.7471C53.4733 39.4974 49.7417 40.043 47.6756 38.8779C47.2206 38.619 46.7655 38.3231 46.3104 37.9902C45.8917 37.6851 45.8917 37.0471 46.3104 36.742C46.7655 36.4091 47.2206 36.1132 47.6756 35.8543C49.7508 34.6892 53.6553 35.207 56.1491 34.9851C62.229 34.4488 67.1802 29.8532 66.9617 23.5933C66.7706 17.8604 62.1561 13.1909 56.495 13.006C50.3515 12.8118 45.8917 17.8327 45.3274 23.9909C45.0817 26.7094 45.6187 30.5005 44.4719 32.5995C44.2171 33.0618 43.9258 33.5241 43.5982 33.9865C43.2978 34.4118 42.6698 34.4118 42.3695 33.9865C42.0418 33.5241 41.7506 33.0618 41.4957 32.5995C40.3489 30.4913 40.8495 26.4505 40.6402 23.9909C40.1123 17.8234 35.607 12.8025 29.4544 13.006C23.7933 13.2094 19.197 17.8882 19.0059 23.6303C18.8056 29.8717 23.7478 34.4303 29.8185 34.9851C32.4215 35.2255 36.2259 34.6892 38.292 35.8543C38.7471 36.1132 39.2021 36.4091 39.6572 36.742C40.0759 37.0471 40.0759 37.6851 39.6572 37.9902C39.2021 38.3231 38.7471 38.619 38.292 38.8779C36.2168 40.043 32.2395 39.5344 29.8185 39.7471C23.7478 40.2926 18.8056 44.8697 19.0059 51.1296C19.197 56.8718 23.8024 61.5505 29.4635 61.7355C35.607 61.9389 40.0941 56.918 40.6402 50.7505C40.8768 48.106 40.3489 44.2409 41.4957 42.142C41.7506 41.6796 42.0418 41.2173 42.3695 40.755C42.6698 40.3296 43.2978 40.3296 43.5982 40.755C43.9258 41.2173 44.2171 41.6796 44.4719 42.142C45.6187 44.2502 45.109 48.217 45.3274 50.7505C45.8553 56.9272 50.3788 61.9574 56.5314 61.7355C62.1834 61.532 66.7797 56.844 66.9617 51.1019C67.1529 44.8605 62.2108 40.3296 56.1491 39.7563V39.7471Z" fill="#8AF8CA"/>
<path d="M100.128 41.6895H98.8535V28.9385C98.8535 27.9768 98.2619 27.3758 97.3153 27.3758H93.7384C92.7919 27.3758 92.2003 27.9768 92.2003 28.9385V41.6802H87.4857C85.7655 41.6802 83.8542 41.6063 83.0624 40.6631C82.6346 40.1546 82.5072 39.3963 82.671 38.3237L85.356 20.2929C85.4379 19.7381 85.2467 19.3682 85.0738 19.1648C84.7917 18.8319 84.3548 18.6562 83.8269 18.6562H80.1681C79.3034 18.6562 78.7847 19.1556 78.6299 20.1357L75.945 38.185C75.499 41.2364 75.9814 43.77 77.383 45.4159C78.8211 47.108 81.6243 47.9679 84.8281 47.9679H92.2003V54.2463C92.2003 55.208 92.7919 55.809 93.7384 55.809H97.3153C98.2619 55.809 98.8535 55.208 98.8535 54.2463V47.9772H100.128C101.074 47.9772 101.666 47.3761 101.666 46.4145V43.2522C101.666 42.2905 101.074 41.6895 100.128 41.6895Z" fill="white"/>
<path d="M122.68 34.7449L119.959 34.3842C114.662 33.6722 114.161 32.5164 114.161 29.6407C114.161 25.9791 115.791 24.4811 119.786 24.4811H122.553C127.404 24.4811 128.032 26.6911 128.032 28.6144C128.032 29.5298 128.724 30.1678 129.716 30.1678H133.293C134.239 30.1678 134.822 29.576 134.822 28.6144C134.822 22.1972 130.644 18.665 123.063 18.665H119.386C111.868 18.665 107.372 22.7705 107.372 29.6407C107.372 35.3274 109.492 39.3959 119.823 40.7644L122.544 41.125C128.26 41.8462 128.842 42.2253 128.842 45.212C128.842 48.8459 127.177 50.2606 122.917 50.2606H119.641C115.39 50.2606 113.661 49.0955 113.661 46.2384C113.661 45.3229 112.969 44.6849 111.977 44.6849H108.4C107.454 44.6849 106.871 45.2767 106.871 46.2384C106.871 52.7757 110.894 56.086 118.83 56.086H123.663C131.709 56.086 135.623 52.526 135.623 45.212C135.623 36.8716 131.181 35.8914 122.671 34.7541L122.68 34.7449Z" fill="white"/>
<path d="M165.257 18.9238H153.871C145.398 18.9238 141.457 22.4283 141.457 29.955V44.805C141.457 52.3317 145.398 55.8362 153.871 55.8362H165.257C166.204 55.8362 166.787 55.2444 166.787 54.2828V51.2129C166.787 50.2513 166.204 49.6595 165.257 49.6595H154.272C149.876 49.6595 148.238 48.3187 148.238 44.7126V40.3297H164.247C165.185 40.3297 165.776 39.7379 165.776 38.7762V35.7064C165.776 34.7447 165.194 34.153 164.247 34.153H148.238V30.0752C148.238 26.5153 149.931 25.1283 154.272 25.1283H165.257C166.204 25.1283 166.787 24.5365 166.787 23.5749V20.505C166.787 19.5433 166.204 18.9516 165.257 18.9516V18.9238Z" fill="white"/>
<path d="M198.45 29.6037C196.876 19.9503 194.937 18.665 188.056 18.665H186.09C182.732 18.665 180.484 18.9794 178.927 20.5976C177.316 22.2712 176.552 25.2856 175.851 29.6037L171.765 54.1812C171.71 54.5418 171.683 55.0596 171.992 55.4295C172.329 55.8271 172.839 55.8271 173.284 55.8271H177.016C177.935 55.8271 178.354 55.6236 178.536 54.3476L179.574 47.986H194.719L195.756 54.3476C195.938 55.4572 196.311 55.8178 197.276 55.8178H201.008C201.381 55.8178 201.954 55.8178 202.3 55.4017C202.537 55.1151 202.619 54.7175 202.528 54.1812L198.441 29.6037H198.45ZM180.511 42.2716L182.577 29.8811C183.469 24.4811 184.352 24.4811 186.5 24.4811H187.656C189.904 24.4811 190.832 24.4811 191.724 29.8811L193.79 42.2716H180.511Z" fill="white"/>
<path d="M222.014 34.7449L219.293 34.3842C213.996 33.6722 213.495 32.5164 213.495 29.6407C213.495 25.9791 215.125 24.4811 219.12 24.4811H221.887C226.738 24.4811 227.366 26.6911 227.366 28.6144C227.366 29.5298 228.058 30.1678 229.05 30.1678H232.627C233.573 30.1678 234.156 29.576 234.156 28.6144C234.156 22.1972 229.978 18.665 222.397 18.665H218.72C211.202 18.665 206.706 22.7705 206.706 29.6407C206.706 35.3274 208.826 39.3959 219.157 40.7644L221.878 41.125C227.585 41.8462 228.176 42.2253 228.176 45.212C228.176 48.8459 226.511 50.2606 222.251 50.2606H218.975C214.724 50.2606 212.995 49.0955 212.995 46.2384C212.995 45.3229 212.303 44.6849 211.311 44.6849H207.734C206.788 44.6849 206.205 45.2767 206.205 46.2384C206.205 52.7757 210.228 56.086 218.164 56.086H222.997C231.043 56.086 234.957 52.526 234.957 45.212C234.957 36.8716 230.515 35.8914 222.005 34.7541L222.014 34.7449Z" fill="white"/>
</svg>
