<svg width="333" height="75" viewBox="0 0 333 75" fill="none" xmlns="http://www.w3.org/2000/svg">
<path d="M26.2796 34.0026L35.9731 24.3091L45.6666 34.0026L51.3212 28.3481L35.9731 13L20.625 28.3481L26.2796 34.0026Z" fill="white"/>
<path d="M11 37.971L16.6546 32.3164L22.3091 37.971L16.6546 43.6255L11 37.971Z" fill="white"/>
<path d="M26.2796 41.9736L35.9731 51.6672L45.6666 41.9736L51.3212 47.6282L35.9731 62.9763L20.625 47.6282L26.2796 41.9736Z" fill="white"/>
<path d="M49.668 37.971L55.3225 32.3164L60.9771 37.971L55.3225 43.6255L49.668 37.971Z" fill="white"/>
<path d="M41.6947 37.9719L35.9699 32.2471L31.7202 36.4968L31.2285 36.9885L30.21 38.007L35.9348 43.7318L41.6595 38.007L41.6947 37.9719Z" fill="white"/>
<path d="M69.7607 25.1162H82.0533C85.1088 25.1162 87.3917 25.8889 88.9722 27.4694C90.1663 28.6635 90.8337 30.2791 90.7985 31.9298V32C90.7985 32.6673 90.7283 33.3698 90.5176 34.0019C90.3419 34.5639 90.0961 35.0907 89.78 35.5824C89.4639 36.039 89.1127 36.4605 88.6912 36.8117C88.2698 37.1629 87.8483 37.479 87.3566 37.7248C88.7264 38.2165 89.9907 39.0243 90.9741 40.078C91.8522 41.0614 92.3088 42.4662 92.3088 44.2223V44.2925C92.3088 45.3813 92.098 46.4701 91.6063 47.4886C91.1497 48.4018 90.4473 49.1744 89.6044 49.7715C88.6561 50.4037 87.6025 50.8603 86.4786 51.1412C85.144 51.4573 83.7742 51.5978 82.4045 51.5978H69.831V25.1162H69.7607ZM80.824 35.8283C81.8777 35.8634 82.9313 35.6527 83.8796 35.161C84.6171 34.7044 85.0737 33.8966 85.0035 33.0185V32.9483C85.0386 32.1405 84.6874 31.403 84.0201 30.9113C83.3528 30.4547 82.4045 30.2088 81.1752 30.2088H75.4153V35.7931H80.7889L80.824 35.8283ZM82.3694 46.5052C83.423 46.5754 84.4767 46.3296 85.4249 45.8028C86.1625 45.3462 86.584 44.5033 86.5137 43.6252V43.555C86.5137 42.7121 86.1625 41.9394 85.4952 41.4477C84.8279 40.9209 83.704 40.675 82.1938 40.675H75.4504V46.5052H82.3694Z" fill="white"/>
<path d="M99.5781 25.1162H105.408V51.5978H99.5781V25.1162Z" fill="white"/>
<path d="M114.225 25.1162H119.598L132.031 41.4126V25.1162H137.791V51.5978H132.839L120.02 34.7395V51.5978H114.26V25.1162H114.225Z" fill="white"/>
<path d="M155.421 24.9082H160.795L172.139 51.6005H166.063L163.64 45.665H152.436L150.013 51.6005H144.077L155.421 24.9082ZM161.533 40.5021L158.02 31.8974L154.508 40.5021H161.533Z" fill="white"/>
<path d="M178.427 25.1162H183.8L196.198 41.4126V25.1162H201.958V51.5978H197.006L184.187 34.7395V51.5978H178.427V25.1162Z" fill="white"/>
<path d="M222.959 52.0549C221.098 52.0549 219.271 51.7037 217.55 51.0013C214.284 49.6667 211.72 47.0325 210.386 43.7662C209.683 42.0804 209.367 40.2541 209.367 38.4278V38.3575C209.367 34.74 210.737 31.263 213.231 28.6991C214.46 27.4348 215.935 26.4162 217.586 25.7489C219.377 25.0114 221.273 24.6602 223.17 24.6602C224.294 24.6602 225.453 24.7655 226.542 24.9762C227.49 25.1519 228.438 25.4328 229.316 25.8192C230.124 26.1704 230.897 26.5918 231.634 27.1187C232.337 27.6104 233.004 28.1723 233.601 28.7694L229.878 33.0542C228.93 32.1762 227.876 31.4386 226.717 30.8415C225.593 30.3147 224.364 30.0337 223.1 30.0689C220.992 30.0689 218.99 30.9118 217.586 32.4922C216.883 33.2649 216.356 34.143 216.005 35.1264C215.619 36.1449 215.443 37.2336 215.443 38.3224V38.3927C215.443 39.4814 215.619 40.5702 216.005 41.5887C216.356 42.5721 216.883 43.4501 217.586 44.2228C218.99 45.8033 220.992 46.7164 223.1 46.6813C224.434 46.7164 225.734 46.4355 226.928 45.8384C228.052 45.2062 229.105 44.4687 230.054 43.5555L233.777 47.3135C233.109 48.0159 232.407 48.6833 231.669 49.2803C230.932 49.8774 230.124 50.3691 229.281 50.7905C228.368 51.212 227.42 51.5281 226.436 51.7388C225.312 51.9847 224.118 52.09 222.959 52.0549Z" fill="white"/>
<path d="M240.695 25.1162H260.644V30.3142H246.42V35.6878H258.923V40.8858H246.42V46.435H260.82V51.6329H240.695V25.1513V25.1162Z" fill="white"/>
<path d="M277.467 27.2937V25.1162H296.678V27.2937H288.284V51.6329H285.861V27.2937H277.467Z" fill="white"/>
<path d="M302.121 51.5978V25.1162H304.544V37.2682H319.576V25.1162H322V51.5978H319.576V39.4107H304.544V51.5978H302.121Z" fill="white"/>
</svg>
