<svg width="313" height="75" viewBox="0 0 313 75" fill="none" xmlns="http://www.w3.org/2000/svg">
<path d="M235.373 53.7889C233.68 53.7889 232.422 55.0474 232.422 56.7398C232.422 57.6511 232.769 58.4322 233.333 58.9096C233.811 59.3869 234.461 59.6039 235.156 59.6039H235.373C236.978 59.6039 238.324 58.3454 238.324 56.653C238.324 55.0474 237.065 53.7021 235.373 53.7021V53.8323V53.7889Z" fill="white"/>
<path d="M290.05 17.5947C288.444 17.5947 287.099 18.94 287.099 20.5456C287.099 22.1512 288.444 23.4965 290.05 23.4965C291.655 23.4965 293 22.1512 293 20.5456C293 18.94 291.655 17.5947 290.05 17.5947Z" fill="white"/>
<path d="M86.1791 20.2026C84.1395 22.1554 83.098 24.9761 83.098 28.6213V29.5326H78.1943V33.308H83.098V58.9547H86.9602V33.308H95.5091V29.5326H86.9602V28.6213C86.9602 25.8874 87.5243 23.9346 88.913 22.8063C90.2582 21.5479 92.211 21.1139 94.9449 21.3309H95.4223V17.6857H94.9449C91.1695 17.3385 88.2186 18.2498 86.1791 20.2026Z" fill="white"/>
<path d="M114.557 28.9662C105.661 28.9662 99.2822 35.4322 99.2822 44.3282C99.2822 53.2242 105.748 59.6901 114.774 59.6901C120.372 59.6901 125.016 57.3034 127.663 53.0941L127.88 52.6167L124.452 50.5771L124.235 51.0545C122.542 54.1355 118.897 56.0449 114.774 56.0449C108.612 56.0449 104.056 52.1828 103.275 46.3678H129.008V44.415C129.008 36.9076 123.887 28.9229 114.427 28.9229H114.557V28.9662ZM103.275 42.5056C104.056 36.6906 108.612 32.6115 114.557 32.6115C120.155 32.6115 124.365 36.6038 125.146 42.5056H103.275Z" fill="white"/>
<path d="M145.151 16.9022L141.289 20.7644V29.5303H135.04V33.3057H141.289V51.6185C141.289 54.4826 142.07 56.5222 143.589 57.8674C144.934 58.9957 146.887 59.5598 149.404 59.5598C150.532 59.5598 151.791 59.4297 153.266 59.2127H153.613V55.7844H153.136C149.838 56.0014 147.321 56.1316 146.193 55.0901C145.498 54.3958 145.151 53.3977 145.151 51.6619V33.3491H153.7V29.5737H145.151V16.8154V16.9022Z" fill="white"/>
<path d="M185.511 50.3597C183.688 53.8747 179.913 56.0445 175.617 56.0445C169.151 56.0445 163.987 50.9239 163.987 44.3278C163.987 37.7317 169.107 32.611 175.617 32.611C179.956 32.611 183.601 34.7808 185.294 38.2958L185.511 38.7732L188.679 36.8204L188.462 36.4732C186.292 31.7865 181.388 28.9658 175.573 28.9658C166.807 28.9658 160.081 35.5619 160.081 44.3278C160.081 53.0936 166.677 59.6897 175.573 59.6897C181.258 59.6897 186.292 56.8256 188.679 52.1823L188.896 51.8352L185.728 49.8824L185.511 50.3163V50.3597Z" fill="white"/>
<path d="M211.68 28.9653C207.471 28.9653 204.173 30.6577 202.003 33.7388V16.9014L198.228 20.7636V58.9081H202.003V43.4159C202.003 36.6896 205.648 32.6105 211.55 32.6105C216.54 32.6105 219.535 35.6915 219.535 40.8122V59.0382H223.397V40.8122C223.397 33.652 218.84 28.9653 211.767 28.9653H211.637H211.68Z" fill="white"/>
<path d="M272.259 34.8676C269.525 31.0922 265.315 28.9658 260.412 28.9658C251.863 28.9658 245.267 35.6921 245.267 44.3278C245.267 52.9634 251.993 59.6897 260.412 59.6897C265.185 59.6897 269.525 57.52 272.259 53.788V59.0388H276.121V29.53H272.259V34.8676ZM260.672 56.0445C254.206 56.0445 249.042 50.9239 249.042 44.3278C249.042 37.7317 254.163 32.611 260.672 32.611C267.181 32.611 272.302 37.7317 272.302 44.3278C272.302 50.9239 267.181 56.0445 260.672 56.0445Z" fill="white"/>
<path d="M291.999 29.5293H288.224V59.0381H291.999V29.5293Z" fill="white"/>
<path d="M25.815 17.6855H20V23.5005H25.815V17.6855Z" fill="white"/>
<path d="M38.0084 17.6855H32.1934V23.5005H38.0084V17.6855Z" fill="white"/>
<path d="M50.3355 17.6855H44.5205V23.5005H50.3355V17.6855Z" fill="white"/>
<path d="M25.815 29.877H20V35.6919H25.815V29.877Z" fill="white"/>
<path d="M38.0084 29.877H32.1934V35.6919H38.0084V29.877Z" fill="white"/>
<path d="M25.815 42.1582H20V47.9732H25.815V42.1582Z" fill="white"/>
<path d="M59.6641 18.8115C58.7528 18.8115 57.9717 19.5926 57.9717 20.5039C57.9717 21.4152 58.7528 22.1964 59.6641 22.1964C60.5754 22.1964 61.3565 21.4152 61.3565 20.5039C61.3565 19.5926 60.5754 18.8115 59.6641 18.8115Z" fill="white"/>
<path d="M59.6641 31.1348C58.7528 31.1348 57.9717 31.9159 57.9717 32.8272C57.9717 33.7385 58.7528 34.5196 59.6641 34.5196C60.5754 34.5196 61.3565 33.7385 61.3565 32.8272C61.3565 31.9159 60.5754 31.1348 59.6641 31.1348Z" fill="white"/>
<path d="M59.6641 43.418C58.7528 43.418 57.9717 44.1991 57.9717 45.1104C57.9717 46.0217 58.7528 46.8028 59.6641 46.8028C60.5754 46.8028 61.3565 46.0217 61.3565 45.1104C61.3565 44.1991 60.5754 43.418 59.6641 43.418Z" fill="white"/>
<path d="M59.6641 55.6123C58.7528 55.6123 57.9717 56.3934 57.9717 57.3047C57.9717 58.216 58.7528 58.9971 59.6641 58.9971C60.5754 58.9971 61.3565 58.216 61.3565 57.3047C61.3565 56.3934 60.5754 55.6123 59.6641 55.6123Z" fill="white"/>
<path d="M47.3828 31.1348C46.4715 31.1348 45.6904 31.9159 45.6904 32.8272C45.6904 33.7385 46.4715 34.5196 47.3828 34.5196C48.2941 34.5196 49.0753 33.7385 49.0753 32.8272C49.0753 31.9159 48.2941 31.1348 47.3828 31.1348Z" fill="white"/>
<path d="M47.3828 43.418C46.4715 43.418 45.6904 44.1991 45.6904 45.1104C45.6904 46.0217 46.4715 46.8028 47.3828 46.8028C48.2941 46.8028 49.0753 46.0217 49.0753 45.1104C49.0753 44.1991 48.2941 43.418 47.3828 43.418Z" fill="white"/>
<path d="M47.3828 55.6123C46.4715 55.6123 45.6904 56.3934 45.6904 57.3047C45.6904 58.216 46.4715 58.9971 47.3828 58.9971C48.2941 58.9971 49.0753 58.216 49.0753 57.3047C49.0753 56.3934 48.2941 55.6123 47.3828 55.6123Z" fill="white"/>
<path d="M35.1895 43.418C34.2782 43.418 33.4971 44.1991 33.4971 45.1104C33.4971 46.0217 34.2782 46.8028 35.1895 46.8028C36.1008 46.8028 36.8819 46.0217 36.8819 45.1104C36.8819 44.1991 36.1008 43.418 35.1895 43.418Z" fill="white"/>
<path d="M35.1895 55.6123C34.2782 55.6123 33.4971 56.3934 33.4971 57.3047C33.4971 58.216 34.2782 58.9971 35.1895 58.9971C36.1008 58.9971 36.8819 58.216 36.8819 57.3047C36.8819 56.3934 36.1008 55.6123 35.1895 55.6123Z" fill="white"/>
<path d="M22.8623 55.6123C21.951 55.6123 21.1699 56.3934 21.1699 57.3047C21.1699 58.216 21.951 58.9971 22.8623 58.9971C23.7736 58.9971 24.5548 58.216 24.5548 57.3047C24.5548 56.3934 23.7736 55.6123 22.8623 55.6123Z" fill="white"/>
</svg>
