<svg width="245" height="75" viewBox="0 0 245 75" fill="none" xmlns="http://www.w3.org/2000/svg">
<path d="M46.2654 43.5649C46.148 45.2086 44.6998 46.735 43.056 46.8524C39.5728 47.0873 36.0504 47.0873 32.5671 46.8524C31.8626 46.8133 31.2364 47.4004 31.2755 48.144C31.3929 50.2966 31.3539 52.4883 31.2364 54.6409C31.1582 55.7759 30.1405 56.8326 29.0055 56.9109C26.579 57.0674 24.1524 57.0674 21.765 56.9109C20.63 56.8326 19.6124 55.7759 19.5341 54.6409C19.3776 52.1752 19.3776 49.7095 19.5341 47.2438C19.6124 46.1088 20.63 45.0521 21.765 44.9738C23.8785 44.8173 26.0311 44.8173 28.1445 44.9347C28.849 44.9347 29.4361 44.3476 29.3969 43.6431C29.1621 40.1207 29.1621 36.5592 29.3969 33.0368C29.4361 32.2931 28.849 31.6669 28.1445 31.7452C25.3657 31.9018 22.6261 31.9018 19.8473 31.7452C18.4775 31.6669 17.225 30.3754 17.1468 28.9664C16.9511 25.9528 16.9511 22.9392 17.1468 19.9256C17.225 18.5166 18.4775 17.2642 19.8473 17.1468C22.7826 16.9511 25.757 16.9511 28.6924 17.1468C30.0622 17.225 31.3146 18.5166 31.3929 19.9256C31.5886 22.7435 31.5886 25.5614 31.3929 28.3793C31.3538 29.123 31.9409 29.71 32.6845 29.6709C36.1287 29.4361 39.6119 29.4361 43.056 29.6709C44.6998 29.7883 46.148 31.2756 46.2654 32.9585C46.5002 36.52 46.5002 40.0816 46.2654 43.6431V43.5649Z" fill="white"/>
<path d="M83.6003 47.0113C80.7824 49.7901 77.3774 51.1991 73.3462 51.1991C69.315 51.1991 65.91 49.7901 63.0921 47.0113C60.3133 44.2325 58.9043 40.8275 58.9043 36.7963C58.9043 32.7651 60.3133 29.3601 63.0921 26.5813C65.8709 23.8025 69.315 22.3936 73.3462 22.3936C77.3774 22.3936 80.7824 23.8025 83.6003 26.5813C86.4182 29.3601 87.8273 32.7651 87.8273 36.7963C87.8273 40.8275 86.4182 44.2325 83.6003 47.0113ZM66.9667 43.2932C68.6888 45.0153 70.8022 45.8372 73.3462 45.8372C75.8902 45.8372 78.0036 44.9761 79.7257 43.2932C81.4478 41.6103 82.3088 39.4185 82.3088 36.7963C82.3088 34.1741 81.4478 31.9823 79.7257 30.2603C78.0036 28.5382 75.8902 27.6772 73.3462 27.6772C70.8022 27.6772 68.6888 28.5382 66.9667 30.2603C65.2446 31.9823 64.3836 34.1349 64.3836 36.7963C64.3836 39.4577 65.2446 41.6103 66.9667 43.2932Z" fill="white"/>
<path d="M102.192 30.2979C104.854 30.2979 107.163 31.3154 109.041 33.3115C110.92 35.3466 111.898 37.8123 111.898 40.7477C111.898 43.683 110.959 46.1487 109.041 48.1839C107.163 50.219 104.854 51.1975 102.192 51.1975C99.5308 51.1975 97.2609 50.219 95.7345 48.3013V58.5554H90.6074V30.8458H95.7345V33.1941C97.2609 31.2763 99.3743 30.2979 102.192 30.2979ZM97.3 44.7397C98.3176 45.7965 99.6483 46.3053 101.253 46.3053C102.858 46.3053 104.149 45.7965 105.206 44.7397C106.263 43.683 106.771 42.3523 106.771 40.7085C106.771 39.0647 106.263 37.7341 105.206 36.6773C104.149 35.6206 102.858 35.1118 101.253 35.1118C99.6483 35.1118 98.3567 35.6206 97.3 36.6773C96.2824 37.7341 95.7345 39.0647 95.7345 40.7085C95.7345 42.3523 96.2432 43.683 97.3 44.7397Z" fill="white"/>
<path d="M119.846 42.823C120.551 45.2887 122.39 46.5411 125.443 46.5411C127.4 46.5411 128.887 45.8758 129.905 44.5451L134.053 46.9325C132.096 49.7504 129.2 51.1594 125.404 51.1594C122.116 51.1594 119.494 50.181 117.498 48.1849C115.502 46.1889 114.523 43.7232 114.523 40.7096C114.523 37.696 115.502 35.2303 117.459 33.2342C119.416 31.2382 121.92 30.2598 125.012 30.2598C127.909 30.2598 130.335 31.2774 132.214 33.2734C134.092 35.2694 135.071 37.7742 135.071 40.7096C135.071 41.3749 134.992 42.0794 134.875 42.823H119.885H119.846ZM119.768 38.8701H129.905C129.631 37.5394 129.004 36.5218 128.104 35.8565C127.204 35.1911 126.147 34.878 124.973 34.878C123.603 34.878 122.468 35.2303 121.568 35.9348C120.668 36.6392 120.081 37.6177 119.768 38.8701Z" fill="white"/>
<path d="M148.847 30.2979C151 30.2979 152.8 31.0415 154.248 32.4896C155.657 33.9377 156.362 35.9337 156.362 38.5168V50.6496H151.235V39.143C151.235 37.8123 150.883 36.7947 150.178 36.1294C149.474 35.4249 148.495 35.0727 147.321 35.0727C145.99 35.0727 144.934 35.4641 144.151 36.286C143.368 37.1078 142.977 38.3211 142.977 39.9649V50.6496H137.85V30.8458H142.977V33.0766C144.229 31.2372 146.186 30.2979 148.887 30.2979H148.847Z" fill="white"/>
<path d="M176.009 22.9404H181.449V50.6501H176.009V39.1827H165.677V50.6501H160.197V22.9404H165.677V33.9382H176.009V22.9404Z" fill="white"/>
<path d="M198.705 30.8447H203.832V50.6485H198.705V48.4176C197.452 50.2571 195.495 51.1964 192.795 51.1964C190.642 51.1964 188.842 50.4528 187.394 49.0047C185.985 47.5566 185.28 45.5606 185.28 42.9775V30.8447H190.407V42.3513C190.407 43.682 190.76 44.6604 191.464 45.3649C192.168 46.0694 193.147 46.4216 194.321 46.4216C195.652 46.4216 196.709 46.0302 197.491 45.2083C198.274 44.3864 198.665 43.1732 198.665 41.5294V30.8447H198.705Z" fill="white"/>
<path d="M219.294 30.2984C221.955 30.2984 224.264 31.3159 226.143 33.312C228.022 35.3471 229 37.8128 229 40.7482C229 43.6835 228.061 46.1492 226.143 48.1844C224.264 50.2196 221.955 51.198 219.294 51.198C216.632 51.198 214.362 50.2195 212.836 48.3018V50.6501H207.709V22.9404H212.836V33.1946C214.362 31.2768 216.476 30.2984 219.294 30.2984ZM214.402 44.7402C215.419 45.797 216.75 46.3058 218.354 46.3058C219.959 46.3058 221.251 45.797 222.307 44.7402C223.364 43.6835 223.873 42.3528 223.873 40.709C223.873 39.0652 223.364 37.7346 222.307 36.6778C221.251 35.6211 219.959 35.1123 218.354 35.1123C216.75 35.1123 215.458 35.6211 214.402 36.6778C213.384 37.7346 212.836 39.0652 212.836 40.709C212.836 42.3528 213.345 43.6835 214.402 44.7402Z" fill="white"/>
</svg>
