<svg width="286" height="65" viewBox="0 0 286 65" fill="none" xmlns="http://www.w3.org/2000/svg">
<path d="M49.188 35.415C45.645 35.0845 40.7041 35.8068 37.9685 34.2642C37.366 33.9214 36.7634 33.5296 36.1609 33.0888C35.6065 32.6848 35.6065 31.84 36.1609 31.436C36.7634 30.9952 37.366 30.6035 37.9685 30.2607C40.7162 28.718 45.8861 29.4036 49.188 29.1098C57.2381 28.3997 63.7939 22.3149 63.5047 14.0263C63.2516 6.43554 57.1417 0.252769 49.646 0.00790624C41.5115 -0.249199 35.6065 6.39882 34.8594 14.5527C34.534 18.1522 35.245 23.1719 33.7266 25.9511C33.3891 26.5632 33.0035 27.1754 32.5697 27.7876C32.172 28.3507 31.3405 28.3507 30.9428 27.7876C30.5089 27.1754 30.1233 26.5632 29.7859 25.9511C28.2674 23.1597 28.9303 17.8094 28.6531 14.5527C27.9541 6.38657 21.9889 -0.261442 13.8424 0.00790624C6.34662 0.277255 0.260854 6.47227 0.00778219 14.0753C-0.25734 22.3394 6.28637 28.3752 14.3244 29.1098C17.771 29.4281 22.8083 28.718 25.5439 30.2607C26.1465 30.6035 26.749 30.9952 27.3516 31.436C27.9059 31.84 27.9059 32.6848 27.3516 33.0888C26.749 33.5296 26.1465 33.9214 25.5439 34.2642C22.7963 35.8068 17.53 35.1334 14.3244 35.415C6.28637 36.1374 -0.25734 42.1977 0.00778219 50.4863C0.260854 58.0893 6.35867 64.2843 13.8544 64.5292C21.9889 64.7985 27.93 58.1505 28.6531 49.9843C28.9664 46.4828 28.2674 41.3652 29.7859 38.586C30.1233 37.9738 30.5089 37.3617 30.9428 36.7495C31.3405 36.1863 32.172 36.1863 32.5697 36.7495C33.0035 37.3617 33.3891 37.9738 33.7266 38.586C35.245 41.3774 34.5701 46.6297 34.8594 49.9843C35.5583 58.1627 41.5477 64.823 49.6942 64.5292C57.1779 64.2598 63.2636 58.0526 63.5047 50.4496C63.7577 42.1855 57.214 36.1863 49.188 35.4273V35.415Z" fill="#006954"/>
<path d="M107.418 37.9859H105.731V21.1026C105.731 19.8293 104.948 19.0335 103.694 19.0335H98.9582C97.7049 19.0335 96.9216 19.8293 96.9216 21.1026V37.9737H90.6792C88.4015 37.9737 85.8708 37.8757 84.8224 36.6269C84.256 35.9535 84.0873 34.9496 84.3042 33.5294L87.8592 9.65531C87.9677 8.92073 87.7146 8.431 87.4856 8.16165C87.1121 7.7209 86.5336 7.48828 85.8347 7.48828H80.9901C79.8453 7.48828 79.1584 8.14941 78.9535 9.44718L75.3985 33.3458C74.808 37.386 75.4467 40.7406 77.3025 42.9199C79.2066 45.1604 82.9183 46.299 87.1603 46.299H96.9216V54.6121C96.9216 55.8853 97.7049 56.6811 98.9582 56.6811H103.694C104.948 56.6811 105.731 55.8853 105.731 54.6121V46.3112H107.418C108.671 46.3112 109.455 45.5154 109.455 44.2421V40.055C109.455 38.7817 108.671 37.9859 107.418 37.9859Z" fill="black"/>
<path d="M137.281 28.7918L133.678 28.3143C126.664 27.3716 126.002 25.8412 126.002 22.0336C126.002 17.1853 128.159 15.2019 133.449 15.2019H137.113C143.536 15.2019 144.367 18.128 144.367 20.6746C144.367 21.8866 145.283 22.7314 146.597 22.7314H151.333C152.586 22.7314 153.357 21.9479 153.357 20.6746C153.357 12.1778 147.826 7.50098 137.787 7.50098H132.919C122.965 7.50098 117.011 12.9369 117.011 22.0336C117.011 29.5631 119.819 34.9501 133.497 36.762L137.101 37.2395C144.669 38.1945 145.44 38.6965 145.44 42.651C145.44 47.4625 143.234 49.3357 137.595 49.3357H133.256C127.628 49.3357 125.339 47.7931 125.339 44.01C125.339 42.7979 124.423 41.9531 123.109 41.9531H118.373C117.12 41.9531 116.349 42.7367 116.349 44.01C116.349 52.6659 121.675 57.0489 132.184 57.0489H138.583C149.236 57.0489 154.418 52.3353 154.418 42.651C154.418 31.6077 148.537 30.3099 137.269 28.804L137.281 28.7918Z" fill="black"/>
<path d="M193.656 7.84277H178.58C167.361 7.84277 162.143 12.4829 162.143 22.4488V42.1113C162.143 52.0772 167.361 56.7173 178.58 56.7173H193.656C194.909 56.7173 195.681 55.9338 195.681 54.6605V50.5958C195.681 49.3225 194.909 48.5389 193.656 48.5389H179.11C173.29 48.5389 171.121 46.7637 171.121 41.9888V36.1856H192.318C193.56 36.1856 194.343 35.402 194.343 34.1288V30.064C194.343 28.7908 193.572 28.0072 192.318 28.0072H171.121V22.608C171.121 17.8944 173.362 16.0579 179.11 16.0579H193.656C194.909 16.0579 195.681 15.2743 195.681 14.0011V9.93635C195.681 8.66306 194.909 7.8795 193.656 7.8795V7.84277Z" fill="black"/>
<path d="M237.605 21.9846C235.52 9.20277 232.954 7.50098 223.843 7.50098H221.24C216.793 7.50098 213.817 7.91724 211.756 10.0598C209.623 12.2758 208.611 16.2671 207.683 21.9846L202.272 54.5268C202.199 55.0043 202.163 55.6899 202.573 56.1796C203.019 56.7061 203.694 56.7061 204.284 56.7061H209.225C210.442 56.7061 210.997 56.4367 211.238 54.7472L212.611 46.3239H232.664L234.038 54.7472C234.279 56.2164 234.773 56.6938 236.051 56.6938H240.992C241.486 56.6938 242.245 56.6938 242.703 56.1429C243.016 55.7634 243.125 55.2369 243.004 54.5268L237.593 21.9846H237.605ZM213.853 38.7577L216.588 22.3519C217.769 15.2019 218.938 15.2019 221.782 15.2019H223.313C226.289 15.2019 227.519 15.2019 228.7 22.3519L231.435 38.7577H213.853Z" fill="black"/>
<path d="M268.806 28.7918L265.202 28.3143C258.189 27.3716 257.526 25.8412 257.526 22.0336C257.526 17.1853 259.683 15.2019 264.973 15.2019H268.637C275.06 15.2019 275.892 18.128 275.892 20.6746C275.892 21.8866 276.808 22.7314 278.121 22.7314H282.857C284.111 22.7314 284.882 21.9479 284.882 20.6746C284.882 12.1778 279.35 7.50098 269.312 7.50098H264.443C254.489 7.50098 248.536 12.9369 248.536 22.0336C248.536 29.5631 251.344 34.9501 265.022 36.762L268.625 37.2395C276.181 38.1945 276.964 38.6965 276.964 42.651C276.964 47.4625 274.759 49.3357 269.119 49.3357H264.781C259.153 49.3357 256.863 47.7931 256.863 44.01C256.863 42.7979 255.947 41.9531 254.634 41.9531H249.898C248.644 41.9531 247.873 42.7367 247.873 44.01C247.873 52.6659 253.2 57.0489 263.708 57.0489H270.107C280.76 57.0489 285.942 52.3353 285.942 42.651C285.942 31.6077 280.061 30.3099 268.794 28.804L268.806 28.7918Z" fill="black"/>
</svg>
