<svg width="427" height="200" viewBox="0 0 427 200" fill="none" xmlns="http://www.w3.org/2000/svg">
<path d="M81.982 112.556C75.8919 116.59 72.8945 117.773 68.7387 117.773C65.8382 117.773 63.1318 116.985 60.5223 115.411C55.3984 112.261 51.9179 106.552 51.9179 100.647C51.9179 97.4972 52.6919 94.5448 54.2382 91.8866C57.2357 86.5722 62.9397 83.4223 68.7387 83.4223C72.4114 83.4223 75.6998 84.5045 78.5033 86.5722C78.9864 86.8684 79.5665 87.2614 80.2436 87.9507L81.6929 89.0329L88.169 81.2578L87.1059 80.1756C86.4288 79.4864 85.5596 78.8959 84.4964 78.2067C79.9526 74.6637 74.6367 72.8923 68.7387 72.8923C61.4885 72.8923 54.8183 75.746 49.5005 80.9636C44.3766 86.4754 41.4761 93.267 41.4761 100.649C41.4761 108.031 44.3766 115.02 49.5005 120.236C54.6243 125.453 61.4885 128.406 68.7387 128.406C73.9596 128.406 78.7924 126.929 83.3362 123.976L81.4019 121.024C77.4382 123.682 73.2806 124.962 68.7387 124.962C62.4547 124.962 56.4616 122.402 51.9179 117.777C47.3741 113.152 44.9567 107.048 44.9567 100.651C44.9567 94.2544 47.3741 88.2488 51.9179 83.6237C56.4616 78.8997 62.4547 76.4391 68.7387 76.4391C73.4765 76.4391 78.0183 77.9162 82.5621 80.9674L83.3362 81.6567L81.2098 84.1173C80.9207 84.0186 80.7267 83.9199 80.5327 83.7243C76.9551 81.2636 72.9915 79.9839 68.7387 79.9839C64.969 79.9839 61.5855 80.8706 58.588 82.6421C52.498 86.2838 48.4373 93.4684 48.4373 100.655C48.4373 104.099 49.4035 107.545 51.2408 110.794C55.0104 117.388 61.8746 121.425 68.7387 121.425C73.2825 121.425 76.9551 120.046 82.467 116.503L87.8799 124.673C80.8237 129.397 75.3119 131.366 68.7387 131.366C63.3258 131.366 58.2989 129.988 53.6581 127.233C44.2815 121.721 38.4806 111.681 38.4806 100.657C38.4806 95.1449 39.8348 90.0261 42.5412 85.2035C47.9542 75.744 57.9109 69.8391 68.7387 69.8391C76.375 69.8391 83.6272 72.6928 89.1371 77.9104L89.7172 78.4022L90.4913 79.1902L92.9087 76.6307L91.5545 75.2523C85.3656 69.6417 77.2461 66.393 68.7387 66.393C62.6487 66.393 57.0417 67.8702 51.9179 70.9214C41.6701 76.925 35 88.4424 35 100.647C35 106.651 36.5463 112.36 39.6408 117.675C45.7308 128.305 56.6556 134.998 68.7387 134.998C76.375 134.998 82.7561 132.537 91.3605 126.534L92.7147 125.647L83.5302 111.572L81.9839 112.556H81.982ZM119.378 66L147.413 119.643L159.11 97.596L164.717 134.998H168.197L160.947 86.5722L147.413 112.066L123.342 66H119.378ZM150.218 92.4771L145.675 101.04L147.704 104.781L154.085 92.4771L162.592 76.3345L162.881 75.6453L166.071 69.6417H168.391L168.681 72.0036L175.931 120.036L177.574 131.356H174.384L167.037 82.6343L166.168 76.7295L163.462 81.9471L171.195 133.523H171.098L171.387 135H181.635L171.389 66H163.945L150.216 92.4771H150.218ZM144.32 120.528L116.575 67.2797L115.995 66.2962L105.747 134.998H122.665L125.759 114.623L123.73 110.784L122.956 109.307L119.669 131.354H109.809L117.931 77.4168L147.512 134.111L158.049 113.737L157.275 108.519L157.178 107.83L147.51 126.532L144.32 120.528ZM121.409 98.6782L140.357 134.998H144.32L119.572 87.6545L113.288 128.797H116.769L121.409 98.6782ZM223.578 134.998C214.202 134.998 207.047 132.537 202.311 127.616C197.67 122.892 195.255 115.903 195.255 107.634V66.1975H211.689V107.636C211.689 115.117 215.267 118.267 223.097 118.267C230.928 118.267 234.891 114.428 234.891 107.636V66.1975H244.848V107.636C244.848 112.854 243.494 117.775 240.884 121.318C237.404 126.141 231.894 128.404 223.386 128.404C218.456 128.404 214.493 127.715 211.495 126.239C205.405 123.386 201.731 116.987 201.731 107.636V72.4954H205.211V107.634C205.211 118.757 211.495 124.859 223.386 124.859C235.277 124.859 241.367 118.757 241.367 107.634V69.7404H238.37V107.634C238.37 116.296 232.666 121.808 223.095 121.808C213.525 121.808 208.304 116.788 208.304 107.634V69.7404H198.733V107.634C198.733 123.285 207.241 131.453 223.578 131.453C232.086 131.453 237.887 129.386 241.849 125.153C245.812 120.921 247.939 114.819 247.939 107.632V66.1975H251.419V107.636C251.419 115.905 248.905 122.793 244.266 127.618C239.625 132.539 232.761 135 223.578 135V134.998ZM313.72 100.843C315.943 97.3985 317.103 93.0676 317.103 88.0475C317.103 74.3656 309.176 66.5905 295.544 66.5905H273.214V96.2175H295.932C301.056 96.2175 304.149 93.2651 304.149 88.0475C304.149 85.2906 303.183 83.0274 301.248 81.1572C299.991 79.9762 297.865 79.287 295.931 79.287H279.787V89.6215H283.267V82.7311H295.931C298.734 82.7311 300.668 84.6013 300.668 88.0455C300.668 91.0967 299.122 92.6707 295.931 92.6707H276.595V70.1334H295.059C307.047 70.1334 313.718 76.3345 313.718 88.0475C313.718 91.8866 312.944 95.2321 311.3 98.2833L310.334 99.8572L309.271 100.939L310.528 102.219L312.365 104.384C313.526 105.861 314.106 108.912 314.106 113.636C314.106 125.151 307.338 131.353 295.061 131.353H270.119V66.4918H266.639V134.899H295.059C309.077 134.899 317.584 127.026 317.584 113.64C317.584 108.521 316.327 104.289 313.718 100.845L313.72 100.843ZM297.382 128.501C300.765 128.501 303.955 127.221 306.952 124.563C309.756 121.709 311.205 118.263 311.205 114.327C311.205 109.406 309.659 105.567 306.467 102.713L303.953 100.843C308.303 98.382 310.914 93.6581 310.914 87.457C310.914 84.7988 310.334 82.2394 309.174 79.9762C306.853 75.4478 302.698 72.9871 297.38 72.9871H279.882V76.5301H297.38C299.023 76.5301 300.569 77.0218 302.213 78.0072C305.307 79.9762 307.337 83.5191 307.337 87.457C307.337 94.2486 303.276 99.0712 297.089 99.0712H273.307V102.614H297.089C303.565 102.614 307.723 107.143 307.723 114.327C307.723 118.265 306.079 121.316 302.696 123.382C301.053 124.365 299.312 124.859 297.378 124.859H276.593V109.307H295.929C299.312 109.307 300.956 110.881 300.956 113.932C300.956 116.983 299.312 118.656 295.929 118.656H283.265V112.161H279.785V122.201H295.929C299.698 122.201 302.213 120.822 303.565 117.969C304.145 116.887 304.434 115.508 304.434 113.934C304.434 108.815 301.051 105.665 295.927 105.665H273.208V128.501H297.376H297.382ZM335.158 128.896H339.411L342.795 120.627L368.026 120.726L374.213 134.998L392 134.899L361.55 66.0987H355.363L325.105 134.899H343.955L347.241 127.026H366.48L365.03 123.678H345.115L342.021 131.453H330.516L357.297 69.4442H359.617L386.492 131.453H376.244L370.057 117.378H340.088L335.158 128.894V128.896ZM346.663 111.572L358.457 82.9306L378.276 128.797H382.239L358.457 74.8593L341.056 114.623H369.091L358.457 90.7056L351.11 108.718H354.88L358.457 99.7624L363.967 111.574H346.663V111.572Z" fill="white"/>
</svg>
