<svg width="431" height="200" viewBox="0 0 431 200" fill="none" xmlns="http://www.w3.org/2000/svg">
<path d="M386.707 118.386C386.707 117.339 386.445 116.394 385.922 115.551C385.398 114.678 384.395 113.893 382.912 113.195C381.458 112.497 379.307 111.858 376.457 111.276C373.957 110.724 371.659 110.07 369.566 109.314C367.501 108.528 365.728 107.583 364.245 106.479C362.762 105.374 361.613 104.065 360.799 102.553C359.985 101.041 359.578 99.2965 359.578 97.3193C359.578 95.4002 360 93.5829 360.843 91.8673C361.686 90.1518 362.893 88.6398 364.463 87.3313C366.033 86.0228 367.938 84.9906 370.177 84.2346C372.445 83.4786 374.974 83.1006 377.766 83.1006C381.72 83.1006 385.108 83.7694 387.928 85.1069C390.778 86.4154 392.958 88.2036 394.47 90.4716C395.982 92.7106 396.738 95.2403 396.738 98.0607H386.227C386.227 96.8104 385.907 95.6473 385.268 94.5715C384.657 93.4666 383.726 92.5797 382.476 91.9109C381.226 91.2131 379.656 90.8642 377.766 90.8642C375.963 90.8642 374.465 91.1549 373.273 91.7365C372.11 92.2889 371.238 93.0159 370.656 93.9173C370.104 94.8186 369.828 95.8073 369.828 96.8831C369.828 97.6682 369.973 98.3806 370.264 99.0203C370.584 99.6309 371.107 100.198 371.834 100.721C372.561 101.216 373.55 101.681 374.8 102.117C376.079 102.553 377.678 102.975 379.598 103.382C383.203 104.138 386.3 105.112 388.888 106.304C391.505 107.467 393.511 108.979 394.907 110.84C396.302 112.672 397 114.998 397 117.819C397 119.912 396.549 121.831 395.648 123.576C394.776 125.291 393.496 126.789 391.81 128.068C390.123 129.319 388.103 130.293 385.747 130.991C383.421 131.688 380.804 132.037 377.897 132.037C373.622 132.037 370.002 131.281 367.036 129.769C364.07 128.228 361.817 126.265 360.276 123.881C358.764 121.468 358.008 118.967 358.008 116.379H368.17C368.287 118.327 368.824 119.883 369.784 121.046C370.773 122.18 371.994 123.009 373.448 123.532C374.931 124.027 376.457 124.274 378.027 124.274C379.917 124.274 381.502 124.027 382.781 123.532C384.061 123.009 385.035 122.311 385.704 121.439C386.372 120.537 386.707 119.52 386.707 118.386Z" fill="white"/>
<path d="M307.545 108.092V107.089C307.545 103.687 308.039 100.532 309.028 97.6246C310.016 94.6878 311.441 92.1436 313.302 89.9918C315.192 87.8111 317.489 86.1246 320.193 84.9324C322.927 83.7112 326.009 83.1006 329.44 83.1006C332.9 83.1006 335.982 83.7112 338.686 84.9324C341.42 86.1246 343.731 87.8111 345.621 89.9918C347.511 92.1436 348.951 94.6878 349.939 97.6246C350.928 100.532 351.422 103.687 351.422 107.089V108.092C351.422 111.494 350.928 114.649 349.939 117.557C348.951 120.465 347.511 123.009 345.621 125.19C343.731 127.341 341.434 129.028 338.73 130.249C336.026 131.441 332.958 132.037 329.527 132.037C326.067 132.037 322.97 131.441 320.237 130.249C317.533 129.028 315.236 127.341 313.346 125.19C311.456 123.009 310.016 120.465 309.028 117.557C308.039 114.649 307.545 111.494 307.545 108.092ZM318.056 107.089V108.092C318.056 110.215 318.274 112.221 318.711 114.111C319.147 116.001 319.83 117.659 320.76 119.083C321.691 120.508 322.883 121.628 324.337 122.442C325.791 123.256 327.521 123.663 329.527 123.663C331.475 123.663 333.162 123.256 334.587 122.442C336.04 121.628 337.233 120.508 338.163 119.083C339.094 117.659 339.777 116.001 340.213 114.111C340.678 112.221 340.911 110.215 340.911 108.092V107.089C340.911 104.996 340.678 103.018 340.213 101.157C339.777 99.2674 339.079 97.5955 338.119 96.1416C337.189 94.6878 335.997 93.5538 334.543 92.7396C333.118 91.8964 331.417 91.4748 329.44 91.4748C327.463 91.4748 325.747 91.8964 324.293 92.7396C322.869 93.5538 321.691 94.6878 320.76 96.1416C319.83 97.5955 319.147 99.2674 318.711 101.157C318.274 103.018 318.056 104.996 318.056 107.089Z" fill="white"/>
<path d="M289.096 83.9729H298.647V129.857C298.647 134.102 297.746 137.707 295.943 140.673C294.14 143.639 291.625 145.893 288.398 147.434C285.17 149.004 281.434 149.789 277.188 149.789C275.386 149.789 273.379 149.527 271.17 149.004C268.989 148.48 266.866 147.637 264.802 146.474C262.766 145.34 261.065 143.843 259.699 141.982L264.627 135.788C266.314 137.795 268.175 139.263 270.21 140.193C272.245 141.124 274.383 141.589 276.621 141.589C279.035 141.589 281.085 141.138 282.771 140.237C284.487 139.365 285.81 138.071 286.74 136.355C287.671 134.64 288.136 132.546 288.136 130.075V94.6587L289.096 83.9729ZM257.038 108.092V107.176C257.038 103.6 257.474 100.343 258.347 97.4065C259.219 94.4406 260.469 91.8964 262.097 89.7738C263.726 87.6221 265.703 85.9792 268.029 84.8452C270.355 83.6821 272.987 83.1006 275.924 83.1006C278.977 83.1006 281.579 83.6531 283.731 84.758C285.912 85.8629 287.729 87.4476 289.183 89.5121C290.637 91.5475 291.771 93.9899 292.585 96.8395C293.428 99.66 294.053 102.8 294.46 106.26V109.183C294.082 112.556 293.443 115.638 292.541 118.429C291.64 121.221 290.448 123.634 288.965 125.669C287.482 127.705 285.65 129.275 283.469 130.38C281.317 131.485 278.773 132.037 275.836 132.037C272.958 132.037 270.355 131.441 268.029 130.249C265.732 129.057 263.755 127.385 262.097 125.233C260.469 123.082 259.219 120.552 258.347 117.644C257.474 114.707 257.038 111.523 257.038 108.092ZM267.549 107.176V108.092C267.549 110.244 267.753 112.25 268.16 114.111C268.596 115.972 269.25 117.615 270.123 119.04C271.024 120.436 272.158 121.54 273.525 122.355C274.92 123.14 276.563 123.532 278.453 123.532C280.925 123.532 282.946 123.009 284.516 121.962C286.115 120.915 287.336 119.505 288.18 117.731C289.052 115.929 289.663 113.922 290.011 111.712V103.818C289.837 102.102 289.474 100.503 288.921 99.0203C288.398 97.5373 287.685 96.2434 286.784 95.1385C285.883 94.0045 284.749 93.1322 283.382 92.5216C282.015 91.8819 280.402 91.562 278.541 91.562C276.651 91.562 275.008 91.9691 273.612 92.7832C272.216 93.5974 271.068 94.7169 270.166 96.1416C269.294 97.5664 268.64 99.2238 268.204 101.114C267.768 103.004 267.549 105.025 267.549 107.176Z" fill="white"/>
<path d="M206.183 108.092V107.089C206.183 103.687 206.677 100.532 207.666 97.6246C208.654 94.6878 210.079 92.1436 211.94 89.9918C213.83 87.8111 216.127 86.1246 218.831 84.9324C221.564 83.7112 224.647 83.1006 228.078 83.1006C231.538 83.1006 234.62 83.7112 237.324 84.9324C240.057 86.1246 242.369 87.8111 244.259 89.9918C246.149 92.1436 247.588 94.6878 248.577 97.6246C249.566 100.532 250.06 103.687 250.06 107.089V108.092C250.06 111.494 249.566 114.649 248.577 117.557C247.588 120.465 246.149 123.009 244.259 125.19C242.369 127.341 240.072 129.028 237.368 130.249C234.664 131.441 231.596 132.037 228.165 132.037C224.705 132.037 221.608 131.441 218.875 130.249C216.171 129.028 213.873 127.341 211.983 125.19C210.093 123.009 208.654 120.465 207.666 117.557C206.677 114.649 206.183 111.494 206.183 108.092ZM216.694 107.089V108.092C216.694 110.215 216.912 112.221 217.348 114.111C217.784 116.001 218.468 117.659 219.398 119.083C220.329 120.508 221.521 121.628 222.975 122.442C224.428 123.256 226.159 123.663 228.165 123.663C230.113 123.663 231.8 123.256 233.224 122.442C234.678 121.628 235.87 120.508 236.801 119.083C237.731 117.659 238.415 116.001 238.851 114.111C239.316 112.221 239.549 110.215 239.549 108.092V107.089C239.549 104.996 239.316 103.018 238.851 101.157C238.415 99.2674 237.717 97.5955 236.757 96.1416C235.827 94.6878 234.635 93.5538 233.181 92.7396C231.756 91.8964 230.055 91.4748 228.078 91.4748C226.1 91.4748 224.385 91.8964 222.931 92.7396C221.506 93.5538 220.329 94.6878 219.398 96.1416C218.468 97.5955 217.784 99.2674 217.348 101.157C216.912 103.018 216.694 104.996 216.694 107.089Z" fill="white"/>
<path d="M200.774 122.483V131.163H168.891V122.483H200.774ZM171.944 67.6582V131.163H160.996V67.6582H171.944Z" fill="white"/>
<path d="M131.209 66.695C131.209 66.695 110.127 93.39 84.125 93.39C58.1232 93.39 37.0488 66.695 37.0488 66.695C37.0488 66.695 58.1232 40 84.125 40C110.127 40 131.209 66.695 131.209 66.695Z" fill="white"/>
<path d="M84.1247 85.2905C94.5409 85.2905 102.985 76.9659 102.985 66.697C102.985 56.4281 94.5409 48.1035 84.1247 48.1035C73.7086 48.1035 65.2646 56.4281 65.2646 66.697C65.2646 76.9659 73.7086 85.2905 84.1247 85.2905Z" fill="#1D1E1E"/>
<path d="M134.257 96.3887H34V160.993H134.257V96.3887Z" fill="white"/>
<path d="M131.209 128.654C131.209 128.654 110.127 155.349 84.125 155.349C58.1232 155.349 37.0488 128.654 37.0488 128.654C37.0488 128.654 58.131 101.959 84.1328 101.959C110.135 101.959 131.217 128.654 131.217 128.654H131.209Z" fill="#1D1E1E"/>
<path d="M84.1247 147.25C94.5409 147.25 102.985 138.925 102.985 128.656C102.985 118.387 94.5409 110.062 84.1247 110.062C73.7086 110.062 65.2646 118.387 65.2646 128.656C65.2646 138.925 73.7086 147.25 84.1247 147.25Z" fill="white"/>
</svg>
