<svg width="520" height="200" viewBox="0 0 520 200" fill="none" xmlns="http://www.w3.org/2000/svg">
<mask id="mask0_750_135" style="mask-type:luminance" maskUnits="userSpaceOnUse" x="30" y="54" width="450" height="90">
<path d="M480 54.999H30V143.71H480V54.999Z" fill="white"/>
</mask>
<g mask="url(#mask0_750_135)">
<path d="M92.1994 111.499C91.9571 115.016 88.8417 118.203 85.3889 118.445C77.9768 118.926 70.5605 118.926 63.1485 118.445C61.6167 118.344 60.3403 119.619 60.4182 121.173C60.6345 125.772 60.6042 130.366 60.3143 134.965C60.1499 137.406 57.9821 139.617 55.5893 139.784C50.4576 140.12 45.3215 140.12 40.1898 139.784C37.797 139.617 35.6292 137.406 35.4648 134.965C35.136 129.731 35.136 124.492 35.4648 119.257C35.6292 116.817 37.797 114.606 40.1898 114.438C44.6985 114.142 49.2028 114.107 53.7115 114.332C55.2432 114.407 56.485 113.105 56.3941 111.552C55.9225 104.057 55.9225 96.5546 56.3812 89.0561C56.4807 87.4937 55.2259 86.1873 53.6855 86.2756C47.8139 86.611 41.9465 86.589 36.0706 86.2094C33.1542 86.002 30.5148 83.3142 30.3115 80.3351C29.9047 73.9444 29.9047 67.5625 30.3071 61.1895C30.4975 58.206 33.1413 55.5094 36.0576 55.3108C42.31 54.9003 48.5667 54.9003 54.8235 55.3108C57.7441 55.5182 60.3792 58.206 60.5826 61.1851C60.959 67.1742 60.9764 73.1588 60.6475 79.1479C60.561 80.7102 61.8374 81.999 63.3735 81.8975C70.7076 81.4296 78.0504 81.434 85.3845 81.9107C88.8374 82.1579 91.9571 85.3355 92.1951 88.8575C92.6667 96.4045 92.6667 103.956 92.1951 111.499H92.1994Z" fill="white"/>
<path d="M171.421 118.807C165.459 124.712 158.211 127.664 149.67 127.664C141.128 127.664 133.889 124.716 127.957 118.807C122.029 112.901 119.065 105.668 119.065 97.1057C119.065 88.5436 122.029 81.3099 127.957 75.4047C133.885 69.4995 141.124 66.5469 149.67 66.5469C158.215 66.5469 165.463 69.4951 171.421 75.4047C177.375 81.3099 180.361 88.5436 180.361 97.1057C180.361 105.668 177.384 112.901 171.421 118.807ZM136.101 110.907C139.757 114.521 144.278 116.326 149.674 116.326C155.07 116.326 159.591 114.521 163.248 110.907C166.904 107.301 168.73 102.693 168.73 97.0969C168.73 91.5006 166.904 86.8797 163.248 83.2474C159.591 79.6063 155.07 77.7924 149.674 77.7924C144.278 77.7924 139.757 79.6107 136.101 83.2474C132.444 86.8885 130.618 91.505 130.618 97.0969C130.618 102.689 132.444 107.301 136.101 110.907Z" fill="white"/>
<path d="M210.879 83.332C216.56 83.332 221.402 85.4726 225.426 89.7536C229.441 94.0391 231.453 99.2823 231.453 105.496C231.453 111.711 229.441 116.954 225.426 121.239C221.411 125.525 216.56 127.661 210.879 127.661C205.198 127.661 200.421 125.617 197.219 121.535V143.284H186.341V84.506H197.219V89.4623C200.421 85.3799 204.973 83.3364 210.879 83.3364M200.516 114.019C202.71 116.23 205.492 117.338 208.862 117.338C212.233 117.338 215.028 116.23 217.248 114.019C219.472 111.808 220.58 108.97 220.58 105.496C220.58 102.023 219.468 99.1896 217.248 96.974C215.028 94.7629 212.233 93.6551 208.862 93.6551C205.492 93.6551 202.71 94.7629 200.516 96.974C198.322 99.1852 197.227 102.027 197.227 105.496C197.227 108.965 198.326 111.803 200.516 114.019Z" fill="white"/>
<path d="M248.311 109.943C249.769 115.208 253.733 117.834 260.201 117.834C264.364 117.834 267.51 116.435 269.647 113.637L278.413 118.673C274.251 124.657 268.128 127.654 260.037 127.654C253.071 127.654 247.476 125.553 243.257 121.36C239.043 117.163 236.936 111.871 236.936 105.49C236.936 99.1077 239.012 93.891 243.175 89.6629C247.337 85.4392 252.673 83.3252 259.193 83.3252C265.376 83.3252 270.478 85.4525 274.493 89.7071C278.509 93.9661 280.521 99.2225 280.521 105.49C280.521 106.893 280.382 108.372 280.101 109.943H248.315H248.311ZM248.147 101.548H269.647C269.028 98.6929 267.748 96.5656 265.809 95.1665C263.871 93.7674 261.664 93.0701 259.189 93.0701C256.264 93.0701 253.845 93.816 251.937 95.2945C250.024 96.7774 248.761 98.8606 248.147 101.548Z" fill="white"/>
<path d="M309.861 83.332C314.469 83.332 318.281 84.8723 321.284 87.9529C324.287 91.0291 325.792 95.2881 325.792 100.712V126.491H314.915V102.063C314.915 99.269 314.157 97.1197 312.639 95.6412C311.12 94.1583 309.095 93.4168 306.564 93.4168C303.751 93.4168 301.501 94.2862 299.822 96.0163C298.135 97.7508 297.291 100.355 297.291 103.828V126.496H286.413V84.5148H297.291V89.2152C299.935 85.3004 304.119 83.3364 309.852 83.3364H309.861V83.332Z" fill="white"/>
<path d="M367.448 67.7119H378.996V126.482H367.448V102.133H345.523V126.482H333.893V67.7119H345.523V91.0503H367.448V67.7119Z" fill="white"/>
<path d="M415.586 84.5049H426.463V126.486H415.586V121.785C412.942 125.7 408.758 127.664 403.024 127.664C398.416 127.664 394.604 126.124 391.601 123.043C388.59 119.967 387.093 115.708 387.093 110.284V84.5049H397.971V108.938C397.971 111.74 398.728 113.876 400.247 115.359C401.765 116.842 403.79 117.584 406.322 117.584C409.13 117.584 411.384 116.719 413.067 114.984C414.755 113.25 415.599 110.646 415.599 107.172V84.5049H415.59H415.586Z" fill="white"/>
<path d="M459.266 83.3312C464.942 83.3312 469.789 85.4717 473.808 89.7527C477.828 94.0382 479.836 99.2814 479.836 105.496C479.836 111.71 477.828 116.953 473.808 121.238C469.793 125.524 464.942 127.66 459.266 127.66C453.589 127.66 448.807 125.617 445.605 121.534V126.49H434.728V67.7119H445.605V89.4615C448.807 85.379 453.359 83.3356 459.266 83.3356M448.894 114.018C451.088 116.229 453.87 117.337 457.241 117.337C460.611 117.337 463.406 116.229 465.626 114.018C467.85 111.807 468.958 108.969 468.958 105.496C468.958 102.022 467.85 99.1887 465.626 96.9732C463.406 94.762 460.611 93.6542 457.241 93.6542C453.87 93.6542 451.088 94.762 448.894 96.9732C446.7 99.1843 445.61 102.027 445.61 105.496C445.61 108.965 446.709 111.802 448.894 114.018Z" fill="white"/>
</g>
</svg>
