<svg width="600" height="200" viewBox="0 0 600 200" fill="none" xmlns="http://www.w3.org/2000/svg">
<path d="M548.829 136.89C546.379 136.89 544.194 136.692 542.273 136.294C540.419 135.897 538.962 135.5 537.903 135.102C536.91 134.705 536.413 134.506 536.413 134.506L536.016 133.712C536.148 132.851 536.281 131.626 536.413 130.036C536.612 128.381 536.777 126.659 536.91 124.871C537.108 123.083 537.208 121.627 537.208 120.501L541.578 120.004C541.644 123.911 542.406 126.725 543.863 128.447C545.319 130.169 547.67 131.03 550.915 131.03C553.1 131.03 554.954 130.533 556.478 129.54C558.001 128.546 558.762 127.321 558.762 125.865C558.762 124.871 558.464 123.944 557.868 123.083C557.272 122.222 556.18 121.295 554.59 120.302C553.067 119.243 550.849 118.018 547.935 116.627C544.094 114.707 541.28 112.72 539.492 110.667C537.77 108.614 536.91 106.33 536.91 103.813C536.91 100.966 537.737 98.4496 539.393 96.2643C541.048 94.0791 543.333 92.3574 546.247 91.0992C549.226 89.841 552.537 89.2119 556.18 89.2119C559.159 89.2119 561.643 89.5099 563.629 90.1059C565.682 90.6356 566.708 90.9005 566.708 90.9005L567.006 91.5958C567.006 91.5958 566.874 92.1918 566.609 93.3838C566.411 94.5757 566.146 96.0988 565.815 97.9529C565.55 99.8071 565.318 101.827 565.119 104.012L560.55 104.409C560.55 104.409 560.583 104.111 560.649 103.515C560.716 102.919 560.749 102.423 560.749 102.025C560.749 99.6415 560.12 97.9198 558.861 96.8603C557.669 95.7346 555.782 95.1717 553.2 95.1717C551.147 95.1717 549.425 95.6683 548.035 96.6616C546.644 97.5887 545.949 98.7476 545.949 100.138C545.949 101.595 546.545 102.953 547.737 104.211C548.995 105.403 551.014 106.727 553.796 108.184C557.504 109.972 560.385 111.627 562.437 113.15C564.49 114.607 565.914 116.064 566.708 117.521C567.569 118.978 568 120.6 568 122.388C568 125.037 567.139 127.487 565.417 129.738C563.695 131.924 561.378 133.679 558.464 135.003C555.55 136.261 552.339 136.89 548.829 136.89Z" fill="white"/>
<path d="M484.676 131.332C486.331 131.067 487.49 130.637 488.152 130.041C488.881 129.379 489.311 128.418 489.444 127.16C489.642 125.902 489.742 124.28 489.742 122.293V74.8135C489.742 71.3039 488.649 69.516 486.464 69.4497C485.868 69.3835 485.239 69.4166 484.576 69.5491C483.98 69.6153 483.55 69.6484 483.285 69.6484C483.285 69.3173 483.285 69.0193 483.285 68.7544C483.351 68.4895 483.384 68.2578 483.384 68.0591L483.682 64.9799C485.669 64.7812 487.656 64.5164 489.642 64.1853C491.629 63.7879 493.483 63.4237 495.205 63.0926C496.926 62.7615 498.284 62.4966 499.277 62.298C500.337 62.0993 500.867 62 500.867 62L501.462 63.5893C501.198 64.0528 500.9 65.4765 500.569 67.8605C500.304 70.2444 500.039 73.4229 499.774 77.3961C499.575 81.3031 499.377 85.806 499.178 90.905C498.979 96.0039 498.814 101.5 498.681 107.394C498.615 113.287 498.582 119.379 498.582 125.67C498.582 127.525 498.847 128.849 499.377 129.644C499.906 130.372 500.734 130.736 501.86 130.736C502.39 130.736 503.019 130.703 503.747 130.637C504.542 130.571 504.939 130.538 504.939 130.538L505.237 131.034L504.244 136.1C504.244 136.1 503.913 136.067 503.25 136.001C502.588 135.934 501.727 135.868 500.668 135.802C499.675 135.802 498.615 135.769 497.489 135.703C496.43 135.703 495.403 135.703 494.41 135.703C492.953 135.703 491.397 135.736 489.742 135.802C488.152 135.934 486.795 136.034 485.669 136.1C484.61 136.232 484.08 136.299 484.08 136.299L484.676 131.332ZM500.668 112.46L500.867 110.572L511.693 99.944C512.554 99.1493 513.117 98.5202 513.382 98.0567C513.713 97.5269 513.879 97.0303 513.879 96.5668C513.879 95.8383 513.448 95.3086 512.587 94.9775C511.793 94.6464 510.468 94.4808 508.614 94.4808L508.316 93.9842L509.21 90.2096C509.21 90.2096 509.806 90.2428 510.998 90.309C512.256 90.309 513.713 90.3421 515.369 90.4083C517.09 90.4083 518.647 90.4083 520.037 90.4083C521.428 90.4083 522.885 90.3752 524.408 90.309C525.997 90.1765 527.321 90.0772 528.381 90.011C529.507 89.9448 530.069 89.9117 530.069 89.9117L530.367 90.4083L529.473 94.5802C527.222 95.2424 524.971 96.4674 522.719 98.2554C520.534 100.043 518.349 101.997 516.163 104.116C514.044 106.235 511.958 108.288 509.906 110.274L519.441 123.386C521.494 126.101 523.381 128.087 525.103 129.346C526.825 130.538 528.679 131.167 530.665 131.233L530.963 131.829L530.367 135.603C530.367 135.603 529.871 135.703 528.877 135.901C527.95 136.166 526.891 136.398 525.699 136.597C524.573 136.862 523.679 137.027 523.017 137.093C522.289 137.093 521.593 137.027 520.931 136.895C520.269 136.762 519.673 136.564 519.143 136.299C517.819 135.835 516.594 135.04 515.468 133.915C514.342 132.723 513.051 131.001 511.594 128.75L500.668 112.46Z" fill="white"/>
<path d="M447.868 131.235C449.854 131.036 451.179 130.44 451.841 129.447C452.503 128.387 452.834 126.434 452.834 123.587V102.727C452.834 100.476 452.536 98.9197 451.94 98.0588C451.344 97.1317 450.318 96.6682 448.861 96.6682C448.398 96.6682 447.934 96.7344 447.471 96.8669C447.073 96.9331 446.875 96.9662 446.875 96.9662L446.378 96.2709L446.775 92.2977C449.225 91.8342 451.609 91.3706 453.927 90.9071C456.311 90.4435 458.297 90.0462 459.887 89.7151C461.476 89.3178 462.271 89.1191 462.271 89.1191L463.065 89.8144C463.065 89.8144 462.966 90.3442 462.767 91.4037C462.635 92.397 462.502 93.6552 462.37 95.1783C462.238 96.6351 462.171 98.125 462.171 99.6481L462.569 99.9461C464.688 96.9 467.005 94.4498 469.522 92.5957C472.104 90.6753 474.455 89.7151 476.574 89.7151C477.634 89.7151 478.428 89.7813 478.958 89.9138C479.554 90.0462 479.852 90.1124 479.852 90.1124L480.15 90.7084C480.15 90.7084 480.084 91.2051 479.951 92.1984C479.819 93.1254 479.62 94.3836 479.355 95.9729C479.157 97.5622 478.958 99.317 478.759 101.237C478.627 103.092 478.495 104.879 478.362 106.601L473.396 106.899C473.396 103.985 473.23 102.065 472.899 101.138C472.568 100.211 471.806 99.7474 470.614 99.7474C469.356 99.7474 467.999 100.244 466.542 101.237C465.151 102.231 463.827 103.621 462.569 105.409C462.569 105.409 462.536 106.005 462.469 107.197C462.403 108.389 462.337 109.912 462.271 111.766C462.204 113.554 462.105 115.408 461.973 117.329C461.906 119.249 461.84 120.938 461.774 122.395C461.708 123.851 461.675 124.779 461.675 125.176C461.675 127.162 461.973 128.553 462.569 129.348C463.231 130.076 464.39 130.44 466.045 130.44C466.906 130.44 467.899 130.407 469.025 130.341C470.151 130.209 470.714 130.142 470.714 130.142L470.912 130.639L469.919 136.003C469.919 136.003 469.522 135.97 468.727 135.903C467.999 135.903 467.039 135.87 465.847 135.804C464.655 135.804 463.396 135.771 462.072 135.705C460.814 135.705 459.655 135.705 458.596 135.705C456.609 135.705 454.755 135.738 453.033 135.804C451.311 135.87 449.921 135.937 448.861 136.003C447.802 136.069 447.272 136.102 447.272 136.102L447.868 131.235Z" fill="white"/>
<path d="M415.897 136.89C411.923 136.89 408.414 135.963 405.368 134.109C402.388 132.255 400.037 129.639 398.315 126.262C396.66 122.885 395.832 118.978 395.832 114.541C395.832 109.641 396.825 105.303 398.812 101.529C400.865 97.6881 403.679 94.675 407.255 92.4898C410.831 90.3045 414.837 89.2119 419.274 89.2119C423.313 89.2119 426.823 90.139 429.803 91.9931C432.849 93.8473 435.2 96.463 436.855 99.8402C438.511 103.151 439.338 107.058 439.338 111.561C439.338 116.395 438.312 120.733 436.259 124.573C434.273 128.414 431.491 131.427 427.916 133.612C424.406 135.798 420.4 136.89 415.897 136.89ZM418.281 130.831C421.592 130.831 424.174 129.507 426.028 126.858C427.949 124.143 428.909 120.368 428.909 115.534C428.909 111.495 428.379 108.018 427.32 105.105C426.326 102.125 424.903 99.8402 423.048 98.2509C421.26 96.6616 419.108 95.867 416.592 95.867C413.347 95.867 410.765 97.2245 408.844 99.9395C406.99 102.655 406.063 106.429 406.063 111.263C406.063 115.369 406.56 118.878 407.553 121.792C408.546 124.706 409.97 126.957 411.824 128.546C413.678 130.07 415.83 130.831 418.281 130.831Z" fill="white"/>
<path d="M328.882 137.298C328.882 137.298 328.65 136.504 328.187 134.914C327.789 133.325 327.193 131.14 326.399 128.359C325.67 125.577 324.809 122.399 323.816 118.823C322.823 115.247 321.73 111.44 320.538 107.4C319.412 103.361 318.22 99.2882 316.962 95.1826C315.77 91.077 314.578 87.1369 313.386 83.3624C312.79 81.3758 311.83 79.9189 310.506 78.9919C309.248 78.0648 307.493 77.5681 305.241 77.5019C305.175 77.4357 305.142 77.3695 305.142 77.3033C305.076 77.1708 305.01 77.0715 304.943 77.0053L305.639 71.9395C305.639 71.9395 306.334 71.9726 307.725 72.0388C309.181 72.105 310.837 72.1712 312.691 72.2374C314.545 72.2374 316.068 72.2374 317.26 72.2374C319.777 72.2374 322.161 72.1712 324.412 72.0388C326.73 71.8401 328.65 71.6746 330.173 71.5421C331.696 71.3435 332.458 71.2441 332.458 71.2441L332.855 72.0388L332.358 76.8066C330.173 76.939 328.485 77.1708 327.293 77.5019C326.167 77.7668 325.372 78.1641 324.909 78.6939C324.511 79.1574 324.313 79.8196 324.313 80.6805C324.313 81.2764 324.511 82.5015 324.909 84.3557C325.306 86.2098 325.803 88.4613 326.399 91.1101C327.061 93.7589 327.789 96.6063 328.584 99.6524C329.378 102.699 330.14 105.712 330.868 108.691C331.663 111.605 332.358 114.287 332.954 116.737C333.617 119.121 334.113 121.041 334.444 122.498C334.842 123.889 335.04 124.584 335.04 124.584H336.034C336.762 122.598 337.524 120.445 338.318 118.128C339.179 115.744 340.04 113.261 340.901 110.678C341.828 108.095 342.722 105.48 343.583 102.831C344.443 100.116 345.304 97.4672 346.165 94.8846C347.026 92.302 347.854 89.8519 348.648 87.5342C348.45 86.6734 348.251 85.8456 348.052 85.051C347.854 84.1901 347.622 83.3624 347.357 82.5677C346.827 80.7136 345.9 79.4223 344.576 78.6939C343.318 77.9655 341.497 77.5681 339.113 77.5019L338.715 77.0053L339.51 71.9395C339.51 71.9395 339.941 71.9726 340.801 72.0388C341.728 72.0388 342.854 72.0719 344.179 72.1381C345.503 72.1381 346.86 72.1712 348.251 72.2374C349.642 72.2374 350.801 72.2374 351.728 72.2374C353.913 72.2374 356.164 72.1712 358.482 72.0388C360.866 71.8401 362.853 71.6746 364.442 71.5421C366.097 71.3435 366.925 71.2441 366.925 71.2441L367.322 72.0388L366.826 76.8066C364.641 76.939 362.952 77.1377 361.76 77.4026C360.634 77.6675 359.84 78.0648 359.376 78.5945C358.979 79.1243 358.78 79.8527 358.78 80.7798C358.78 81.3096 358.946 82.4684 359.277 84.2563C359.674 86.0443 360.204 88.2957 360.866 91.0108C361.528 93.6595 362.224 96.507 362.952 99.5531C363.747 102.533 364.508 105.513 365.237 108.493C366.031 111.406 366.76 114.088 367.422 116.538C368.084 118.989 368.614 120.942 369.011 122.399C369.408 123.856 369.607 124.584 369.607 124.584H370.501C371.163 122.796 371.958 120.578 372.885 117.929C373.812 115.214 374.805 112.3 375.865 109.188C376.991 106.01 378.083 102.864 379.143 99.7518C380.202 96.5732 381.162 93.6264 382.023 90.9114C382.884 88.1302 383.579 85.8125 384.109 83.9583C384.639 82.038 384.904 80.846 384.904 80.3825C384.904 79.1905 384.44 78.3628 383.513 77.8992C382.586 77.4357 381.03 77.2039 378.845 77.2039H374.474L374.077 76.7073L374.871 71.6415C374.871 71.6415 375.6 71.7077 377.057 71.8401C378.514 71.9063 380.302 72.0057 382.421 72.1381C384.606 72.2043 386.758 72.2374 388.877 72.2374C390.466 72.2374 392.089 72.2374 393.744 72.2374C395.4 72.1712 396.79 72.105 397.916 72.0388C399.042 71.9726 399.605 71.9395 399.605 71.9395L398.909 77.5019C397.188 77.5681 395.963 77.9323 395.234 78.5945C394.506 79.1905 393.777 80.4487 393.049 82.3691L373.68 135.212L363.349 137.298C363.283 136.835 362.952 135.444 362.356 133.127C361.76 130.809 360.965 127.829 359.972 124.187C359.045 120.545 357.952 116.472 356.694 111.969C355.436 107.466 354.078 102.831 352.622 98.0632H351.827L339.311 135.212L328.882 137.298Z" fill="white"/>
<path d="M269.057 136.89C264.753 136.89 261.012 135.963 257.833 134.109C254.655 132.255 252.171 129.672 250.383 126.361C248.662 123.05 247.801 119.11 247.801 114.541C247.801 109.707 248.827 105.403 250.88 101.628C252.933 97.7874 255.714 94.7744 259.224 92.5891C262.8 90.3377 266.839 89.2119 271.342 89.2119C273.593 89.2119 275.613 89.3775 277.401 89.7086C279.255 89.9734 280.712 90.3045 281.772 90.7019C282.831 91.033 283.361 91.1985 283.361 91.1985L283.758 91.8938C283.758 91.8938 283.593 92.556 283.261 93.8804C282.997 95.1386 282.699 96.8603 282.368 99.0456C282.036 101.231 281.772 103.681 281.573 106.396L276.507 106.694V103.515C276.507 101.131 275.845 99.2773 274.52 97.9529C273.196 96.5623 271.408 95.867 269.157 95.867C265.581 95.867 262.833 97.1914 260.912 99.8402C258.992 102.423 258.032 106.131 258.032 110.965C258.032 116.594 259.124 120.997 261.31 124.176C263.495 127.288 266.541 128.844 270.448 128.844C272.236 128.844 273.958 128.58 275.613 128.05C277.335 127.454 278.692 126.924 279.686 126.461C280.745 125.931 281.275 125.666 281.275 125.666L281.97 125.964L283.361 129.937C283.361 129.937 282.864 130.301 281.871 131.03C280.944 131.692 279.719 132.487 278.196 133.414C276.739 134.341 275.183 135.135 273.527 135.798C271.872 136.526 270.382 136.89 269.057 136.89Z" fill="white"/>
<path d="M219.778 136.896L220.374 131.83C222.361 131.366 223.784 130.638 224.645 129.645C225.506 128.585 225.936 127.194 225.936 125.473V101.932C225.936 100.011 225.639 98.6206 225.043 97.7597C224.447 96.8989 223.453 96.4684 222.063 96.4684C221.599 96.4684 221.069 96.5346 220.473 96.6671C219.944 96.7995 219.679 96.8657 219.679 96.8657L220.076 92.2966C222.063 91.9655 224.016 91.6344 225.936 91.3033C227.857 90.9722 229.612 90.6411 231.201 90.31C232.79 89.9789 234.048 89.714 234.975 89.5153C235.969 89.3167 236.465 89.2174 236.465 89.2174L237.161 90.608C236.83 91.2702 236.499 92.6939 236.167 94.8791C235.903 97.0644 235.671 99.7794 235.472 103.024C235.273 106.203 235.108 109.746 234.975 113.652C234.909 117.493 234.876 121.5 234.876 125.671C234.876 127.393 235.108 128.651 235.571 129.446C236.101 130.241 236.962 130.638 238.154 130.638C238.684 130.638 239.346 130.605 240.141 130.539C240.935 130.472 241.333 130.439 241.333 130.439L241.531 130.936L240.637 136.002C240.637 136.002 240.306 135.969 239.644 135.902C239.048 135.902 238.253 135.869 237.26 135.803C236.267 135.803 235.207 135.77 234.082 135.704C232.956 135.704 231.896 135.704 230.903 135.704C229.38 135.704 227.758 135.803 226.036 136.002C224.314 136.2 222.824 136.399 221.566 136.598C220.374 136.796 219.778 136.896 219.778 136.896ZM229.711 78.9864C227.791 78.9864 226.334 78.3904 225.341 77.1985C224.413 76.0065 223.95 74.6159 223.95 73.0266C223.95 71.1062 224.579 69.4838 225.837 68.1595C227.095 66.8351 228.718 66.1729 230.704 66.1729C232.558 66.1729 233.982 66.7688 234.975 67.9608C235.969 69.0865 236.465 70.4771 236.465 72.1326C236.465 74.053 235.836 75.6754 234.578 76.9998C233.386 78.3242 231.764 78.9864 229.711 78.9864Z" fill="white"/>
<path d="M193.266 136.795L193.862 131.729C195.583 131.332 196.808 130.769 197.537 130.041C198.265 129.246 198.696 128.253 198.828 127.061C199.027 125.803 199.126 124.214 199.126 122.293V74.8135C199.126 73.0918 198.961 71.8668 198.629 71.1383C198.365 70.3437 197.769 69.847 196.841 69.6484C195.981 69.4497 194.689 69.4166 192.968 69.5491L192.57 69.2511L193.067 64.9799C195.914 64.6488 198.762 64.2515 201.609 63.7879C204.523 63.2582 207.404 62.6622 210.251 62L210.847 63.5893C210.582 64.2515 210.284 65.8408 209.953 68.3571C209.688 70.8072 209.423 74.0189 209.158 77.9921C208.96 81.9653 208.761 86.5013 208.562 91.6003C208.364 96.633 208.198 102.063 208.066 107.89C208 113.651 207.966 119.578 207.966 125.67C207.966 127.458 208.198 128.75 208.662 129.544C209.191 130.339 210.052 130.736 211.244 130.736L214.622 130.538L214.82 131.034L213.926 136.001C212.536 135.934 210.88 135.868 208.96 135.802C207.039 135.736 205.384 135.703 203.993 135.703C202.735 135.703 201.113 135.802 199.126 136.001C197.206 136.199 195.252 136.464 193.266 136.795Z" fill="white"/>
<path d="M163.555 136.795C161.171 136.795 158.886 136.663 156.701 136.398C154.582 136.199 152.827 136.001 151.436 135.802C150.112 135.603 149.45 135.504 149.45 135.504L148.456 134.61V74.8135C148.456 72.8269 148.158 71.4363 147.562 70.6417C146.966 69.7808 145.973 69.3504 144.583 69.3504C144.119 69.3504 143.655 69.3835 143.192 69.4497C142.728 69.516 142.464 69.5491 142.397 69.5491L142 69.1517L142.497 64.9799C144.483 64.7812 146.47 64.5164 148.456 64.1853C150.443 63.7879 152.297 63.4237 154.019 63.0926C155.741 62.7615 157.098 62.4966 158.091 62.298C159.151 62.0993 159.681 62 159.681 62L160.277 63.5893C159.946 64.0528 159.614 65.7083 159.283 68.5558C159.018 71.337 158.754 75.0784 158.489 79.78C158.29 84.4154 158.091 89.8454 157.893 96.0701C160.74 94.0173 163.19 92.3949 165.243 91.2029C167.362 89.9448 168.72 89.3157 169.316 89.3157C173.156 89.3157 176.501 90.2096 179.348 91.9976C182.195 93.7855 184.414 96.3019 186.003 99.5466C187.592 102.725 188.387 106.5 188.387 110.87C188.387 115.77 187.294 120.174 185.109 124.081C182.924 127.988 179.944 131.1 176.169 133.418C172.461 135.67 168.256 136.795 163.555 136.795ZM166.038 130.14C169.945 130.14 172.991 128.783 175.176 126.068C177.361 123.286 178.454 119.479 178.454 114.645C178.454 111.268 177.957 108.288 176.964 105.705C175.971 103.056 174.58 101.003 172.792 99.5466C171.071 98.0236 169.084 97.2621 166.832 97.2621C165.574 97.2621 164.084 97.6925 162.363 98.5533C160.641 99.4142 159.085 100.474 157.694 101.732L157.396 128.352C158.323 128.816 159.614 129.246 161.27 129.644C162.925 129.975 164.515 130.14 166.038 130.14Z" fill="white"/>
<path d="M94.7554 101.727C94.7554 100.006 94.4574 98.7145 93.8614 97.8536C93.3317 96.9927 92.4708 96.5623 91.2789 96.5623C90.6829 96.5623 90.0869 96.6285 89.4909 96.761C88.9612 96.8272 88.6963 96.8603 88.6963 96.8603L89.1929 92.2911C90.9809 92.0263 92.8019 91.7283 94.6561 91.3972C96.5102 90.9998 98.2319 90.6356 99.8212 90.3045C101.41 89.9734 102.702 89.7086 103.695 89.5099C104.688 89.3112 105.185 89.2119 105.185 89.2119L105.88 90.6025C105.549 91.4634 105.218 92.8871 104.887 94.8737C104.622 96.8603 104.357 99.2111 104.092 101.926C103.828 104.641 103.629 107.522 103.496 110.568C103.364 113.548 103.298 116.528 103.298 119.507C103.298 125.467 105.682 128.447 110.45 128.447C112.37 128.447 114.224 127.917 116.012 126.858C117.8 125.732 119.455 124.673 120.978 123.679V101.827C120.978 99.8402 120.647 98.4827 119.985 97.7543C119.323 97.0259 118.065 96.6616 116.211 96.6616C116.012 96.6616 115.615 96.6948 115.019 96.761C114.489 96.761 114.224 96.761 114.224 96.761L114.721 92.1918C116.707 91.9269 118.661 91.6289 120.581 91.2978C122.568 90.9667 124.356 90.6687 125.945 90.4039C127.6 90.0728 128.925 89.8079 129.918 89.6092C130.978 89.4106 131.507 89.3112 131.507 89.3112L132.203 90.7019C131.805 91.6952 131.408 93.8473 131.011 97.1583C130.68 100.469 130.382 104.509 130.117 109.277C129.918 113.978 129.819 118.912 129.819 124.077C129.819 125.467 130.15 126.56 130.812 127.355C131.541 128.083 132.468 128.447 133.593 128.447C134.587 128.447 135.481 128.282 136.275 127.951C137.07 127.553 137.732 127.189 138.262 126.858C138.792 126.461 139.056 126.262 139.056 126.262L140.546 128.05C140.546 128.05 140.248 128.48 139.652 129.341C139.056 130.202 138.262 131.195 137.269 132.321C136.341 133.447 135.315 134.473 134.189 135.4C133.13 136.261 132.103 136.758 131.11 136.89C125.415 136.89 122.27 134.275 121.674 129.043L121.078 128.745C118.164 131.129 115.548 133.083 113.231 134.606C110.913 136.129 109.324 136.89 108.463 136.89C103.894 136.89 100.384 135.864 97.934 133.811C95.4838 131.758 94.2588 128.778 94.2588 124.871L94.7554 101.727Z" fill="white"/>
<path d="M36 136.503L36.6953 131.04C39.5428 130.511 41.43 129.716 42.3571 128.656C43.2842 127.597 43.7477 125.643 43.7477 122.796L43.847 82.7661C43.847 80.6471 43.6153 79.2234 43.1517 78.4949C42.6882 77.7665 41.7611 77.4023 40.3705 77.4023C39.7745 77.4023 39.0461 77.4354 38.1853 77.5016C37.3906 77.5679 36.9933 77.601 36.9933 77.601L36.596 77.1043L37.3906 72.0385C37.7217 72.0385 38.5495 72.0716 39.8739 72.1378C41.2645 72.1378 42.7875 72.1709 44.443 72.2372C46.1647 72.2372 47.6878 72.2372 49.0122 72.2372C49.8068 72.2372 50.9326 72.2372 52.3894 72.2372C53.8462 72.1709 55.3693 72.1047 56.9586 72.0385C58.5479 71.9723 59.8722 71.9392 60.9318 71.9392C62.0575 71.873 62.6204 71.8398 62.6204 71.8398C66.5936 71.8398 69.9708 72.2703 72.752 73.1311C75.5995 73.992 77.9172 75.2502 79.7051 76.9057C81.5592 78.5612 82.9167 80.5146 83.7776 82.7661C84.6385 85.0176 85.0689 87.4677 85.0689 90.1165C85.0689 93.0302 84.4398 95.8114 83.1816 98.4602C81.9234 101.043 80.2017 103.394 78.0165 105.513C75.8312 107.565 73.348 109.188 70.5668 110.38C67.8517 111.572 64.9712 112.168 61.9251 112.168H53.482L53.3827 120.909C53.3827 123.624 53.482 125.677 53.6807 127.067C53.8794 128.458 54.3098 129.385 54.972 129.848C55.6342 130.246 56.5944 130.444 57.8525 130.444C58.7796 130.444 59.8391 130.411 61.0311 130.345C62.2231 130.213 62.819 130.146 62.819 130.146L63.0177 130.643L62.1237 136.007C62.1237 136.007 61.7264 135.974 60.9318 135.908C60.2033 135.908 59.2763 135.874 58.1505 135.808C57.0248 135.808 55.8659 135.775 54.674 135.709C53.482 135.709 52.4556 135.709 51.5948 135.709C50.2704 135.709 48.7142 135.742 46.9263 135.808C45.2046 135.874 43.516 135.941 41.8605 136.007C40.205 136.073 38.8143 136.139 37.6886 136.206C36.6291 136.338 36.0662 136.437 36 136.503ZM63.5143 106.407C70.6661 105.082 74.242 100.215 74.242 91.8051C74.242 87.1035 72.8844 83.6601 70.1694 81.4748C67.4544 79.2896 63.1832 78.1969 57.3559 78.1969C56.2302 78.1969 55.5348 78.2632 55.27 78.3956C55.0713 78.528 54.9389 78.9916 54.8727 79.7862C54.6078 83.8256 54.376 88.0306 54.1773 92.4011C53.9787 96.7716 53.8131 100.977 53.6807 105.016L63.5143 106.407Z" fill="white"/>
</svg>
