<svg width="450" height="200" viewBox="0 0 450 200" fill="none" xmlns="http://www.w3.org/2000/svg">
<g clip-path="url(#clip0_750_140)">
<path d="M225.501 126C170.179 126 118.161 123.327 79.0342 118.473C39.6746 113.591 18 107.031 18 100C18 92.9688 39.6746 86.4087 79.0322 81.5273C118.161 76.6731 170.176 74 225.501 74C280.826 74 332.841 76.6731 371.968 81.5273C411.325 86.4087 433 92.9709 433 100C433 107.029 411.325 113.591 371.968 118.473C332.839 123.327 280.824 126 225.501 126ZM225.501 74.6426C170.239 74.6426 118.288 77.3115 79.2196 82.1573C40.9428 86.9069 18.9912 93.4105 18.9912 100C18.9912 106.589 40.9428 113.093 79.2196 117.843C118.288 122.689 170.239 125.357 225.501 125.357C280.763 125.357 332.714 122.689 371.782 117.843C410.059 113.095 432.011 106.592 432.011 100C432.011 93.4084 410.059 86.9069 371.782 82.1573C332.714 77.3115 280.763 74.6426 225.501 74.6426Z" fill="white"/>
<path d="M71.5189 93.8545H60.5139C60.2411 92.4814 59.1313 91.529 57.1864 90.9973C55.8558 90.6205 53.911 90.4321 51.3518 90.4321C49.3382 90.4321 47.7099 90.6938 46.4647 91.2129C45.2194 91.7341 44.5968 92.4039 44.5968 93.2224C44.5968 94.4176 45.9961 95.1607 48.7927 95.4496L61.2302 96.7453C69.043 97.5658 72.9515 99.7805 72.9515 103.391C72.9515 108.708 66.6213 111.364 53.963 111.364C48.0264 111.364 43.5036 110.933 40.3989 110.069C35.7575 108.806 33.4191 106.525 33.3857 103.224H44.5427C44.6114 105.771 47.7494 107.044 53.9609 107.044C59.1813 107.044 61.7925 106.058 61.7925 104.086C61.7925 103.222 61.2469 102.592 60.1558 102.192C59.302 101.859 57.784 101.583 55.5997 101.361L46.5396 100.463C42.6499 100.086 39.7659 99.5 37.8898 98.7025C35.3306 97.5951 34.05 95.9457 34.05 93.752C34.05 88.791 40.0887 86.3105 52.1681 86.3105C64.2475 86.3105 71.0025 88.8245 71.5147 93.8525L71.5189 93.8545Z" fill="white"/>
<path d="M77.0977 110.698V86.5781H86.1057V95.4827C86.8262 94.6852 88.163 93.9882 90.1162 93.3895C92.2401 92.7469 94.5556 92.4266 97.0565 92.4266C100.107 92.4266 102.66 92.8369 104.717 93.6553C107.493 94.7627 108.882 96.4917 108.882 98.8382V110.698H99.8738V100.599C99.8738 98.1621 97.8603 96.9438 93.8352 96.9438C88.6815 96.9438 86.1057 98.6602 86.1057 102.093V110.698H77.0977Z" fill="white"/>
<path d="M123.878 98.3398H115.176C115.653 95.8802 117.565 94.1763 120.909 93.2239C123.297 92.5604 126.793 92.2275 131.401 92.2275C137.374 92.2275 141.603 92.8136 144.095 93.9879C146.073 94.9404 147.062 96.37 147.062 98.2749V107.112C147.062 108.509 147.404 109.704 148.087 110.7H139.079C138.704 109.947 138.498 109.317 138.465 108.806C135.837 110.512 131.556 111.364 125.619 111.364C117.498 111.364 113.438 109.436 113.438 105.582C113.438 102.26 117.225 100.433 124.801 100.1L134.373 99.669C135.806 99.602 136.778 99.4471 137.29 99.2043C137.802 98.9615 138.059 98.4947 138.059 97.8081C138.059 96.391 135.704 95.6814 130.995 95.6814C128.847 95.6814 127.343 95.8132 126.491 96.0791C125.332 96.4328 124.461 97.1864 123.882 98.3377L123.878 98.3398ZM138.363 103.489V102.028C137.167 102.405 135.395 102.66 133.04 102.792L127.82 103.091C126.148 103.179 124.936 103.397 124.186 103.74C123.437 104.084 123.06 104.642 123.06 105.419C123.06 106.196 123.578 106.803 124.622 107.246C125.663 107.69 127.035 107.91 128.742 107.91C131.268 107.91 133.434 107.544 135.243 106.813C137.324 105.995 138.365 104.885 138.365 103.491L138.363 103.489Z" fill="white"/>
<path d="M175.725 110.699V100.599C175.725 98.1623 173.712 96.9441 169.687 96.9441C164.533 96.9441 161.957 98.6605 161.957 102.093V110.699H152.949V92.8895H161.651V95.4809H161.753C162.64 94.6625 164.056 93.9633 166.001 93.3877C168.15 92.7451 170.47 92.4248 172.962 92.4248C175.998 92.4248 178.541 92.8351 180.59 93.6535C183.353 94.7608 184.735 96.4899 184.735 98.8364V110.697H175.727L175.725 110.699Z" fill="white"/>
<path d="M191.287 110.698V86.9756H201.216V95.8802H221.791V86.9756H231.719V110.698H221.791V100.399H201.216V110.698H191.287Z" fill="white"/>
<path d="M247.128 98.3398H238.426C238.903 95.8802 240.815 94.1763 244.159 93.2239C246.547 92.5604 250.043 92.2275 254.651 92.2275C260.624 92.2275 264.853 92.8136 267.345 93.9879C269.323 94.9404 270.312 96.37 270.312 98.2749V107.112C270.312 108.509 270.654 109.704 271.337 110.7H262.329C261.954 109.947 261.748 109.317 261.715 108.806C259.087 110.512 254.806 111.364 248.869 111.364C240.748 111.364 236.688 109.436 236.688 105.582C236.688 102.26 240.475 100.433 248.051 100.1L257.623 99.669C259.056 99.602 260.028 99.4471 260.54 99.2043C261.052 98.9615 261.309 98.4947 261.309 97.8081C261.309 96.391 258.954 95.6814 254.245 95.6814C252.097 95.6814 250.593 95.8132 249.741 96.0791C248.582 96.4328 247.711 97.1864 247.132 98.3377L247.128 98.3398ZM261.613 103.489V102.028C260.417 102.405 258.645 102.66 256.29 102.792L251.07 103.091C249.398 103.179 248.186 103.397 247.436 103.74C246.687 104.084 246.31 104.642 246.31 105.419C246.31 106.196 246.828 106.803 247.872 107.246C248.913 107.69 250.285 107.91 251.992 107.91C254.518 107.91 256.684 107.544 258.493 106.813C260.574 105.995 261.615 104.885 261.615 103.491L261.613 103.489Z" fill="white"/>
<path d="M276.199 90.6976V86.5781H285.207V90.6976H276.199ZM276.199 110.698V92.8892H285.207V110.698H276.199Z" fill="white"/>
<path d="M299.691 110.698L288.124 86.9756H298.052L305.116 104.253H305.218L312.689 86.9756H322.619L330.091 104.253H330.193L337.256 86.9756H347.186L335.619 110.698H325.383L317.705 93.8204H317.603L309.926 110.698H299.689H299.691Z" fill="white"/>
<path d="M346.935 101.794C346.935 98.5597 348.605 96.1232 351.951 94.4842C355.02 92.9791 359.389 92.2256 365.053 92.2256C370.717 92.2256 375.102 92.9791 378.207 94.4842C381.515 96.1232 383.171 98.5597 383.171 101.794C383.171 105.028 381.515 107.464 378.207 109.103C375.102 110.61 370.717 111.362 365.053 111.362C359.389 111.362 355.02 110.608 351.951 109.103C348.607 107.464 346.935 105.028 346.935 101.794ZM356.249 101.794C356.249 103.544 357.017 104.89 358.552 105.832C360.086 106.774 362.254 107.245 365.053 107.245C367.851 107.245 370.019 106.774 371.554 105.832C373.088 104.89 373.857 103.546 373.857 101.794C373.857 100.042 373.088 98.6979 371.554 97.7559C370.019 96.8139 367.851 96.343 365.053 96.343C362.254 96.343 360.088 96.8139 358.552 97.7559C357.017 98.6979 356.249 100.044 356.249 101.794Z" fill="white"/>
<path d="M386.754 101.794C386.754 98.5597 388.424 96.1232 391.77 94.4842C394.839 92.9791 399.208 92.2256 404.872 92.2256C410.536 92.2256 414.921 92.9791 418.026 94.4842C421.335 96.1232 422.99 98.5597 422.99 101.794C422.99 105.028 421.335 107.464 418.026 109.103C414.921 110.61 410.536 111.362 404.872 111.362C399.208 111.362 394.839 110.608 391.77 109.103C388.426 107.464 386.754 105.028 386.754 101.794ZM396.07 101.794C396.07 103.544 396.838 104.89 398.373 105.832C399.908 106.774 402.075 107.245 404.874 107.245C407.673 107.245 409.84 106.774 411.375 105.832C412.91 104.89 413.678 103.546 413.678 101.794C413.678 100.042 412.91 98.6979 411.375 97.7559C409.84 96.8139 407.673 96.343 404.874 96.343C402.075 96.343 399.91 96.8139 398.373 97.7559C396.838 98.6979 396.07 100.044 396.07 101.794Z" fill="white"/>
</g>
<defs>
<clipPath id="clip0_750_140">
<rect width="415" height="52" fill="white" transform="translate(18 74)"/>
</clipPath>
</defs>
</svg>
