<svg width="472" height="200" viewBox="0 0 472 200" fill="none" xmlns="http://www.w3.org/2000/svg">
<path fill-rule="evenodd" clip-rule="evenodd" d="M70.8409 82.4138L70.6828 83.0297L76.8209 85.2141L77.0845 84.6367C77.6355 83.4242 78.9388 81.9712 80.2901 81.2542C80.9322 80.9126 81.3682 80.8549 81.5886 80.8693C81.6749 80.8741 81.7419 80.8934 81.8186 80.9271C81.8953 80.9656 82.0103 81.0473 82.1636 81.2158C82.6619 81.7787 82.8871 82.7217 82.1972 84.2999C81.4928 85.9214 80.1367 87.3263 79.0634 87.8989L76.1261 89.4626L79.2407 95.3615L82.178 93.7978C84.7032 92.4554 87.0415 89.8428 88.2921 86.9751C89.5523 84.0786 90.0123 80.0514 87.1517 76.794C85.7526 75.2062 83.9749 74.3401 82.063 74.2006C80.7405 74.1044 79.4851 74.369 78.3734 74.7972C78.2536 73.5655 77.9613 72.2519 77.3432 71.0346C76.4472 69.264 74.9043 67.8157 72.6522 67.2143C68.517 66.1077 65.1485 68.09 63.0689 70.6112C61.0468 73.0699 59.8825 76.385 59.7483 79.3922L59.6045 82.7266L66.2458 83.0201L66.3895 79.6857C66.4614 78.0257 67.1562 76.1252 68.1912 74.8646C68.6895 74.2631 69.1591 73.9071 69.5999 73.7339C70.0264 73.5607 70.4672 73.5414 70.9416 73.6665C71.0997 73.7098 71.1764 73.7531 71.2291 73.7964C71.2818 73.8397 71.3441 73.9119 71.4207 74.0611C71.6124 74.4364 71.7801 75.1196 71.7993 76.1781C71.8328 78.3048 71.2626 80.7779 70.8457 82.3994L70.8409 82.4138ZM63.6008 71.0635C64.8274 69.5719 66.5045 68.3113 68.517 67.8206C66.5045 68.3065 64.8274 69.5671 63.6008 71.0635ZM94.6842 114.54L87.4248 110.811C90.7886 106.543 93.9654 101.386 96.6104 96.7954C98.0958 94.2212 99.4375 91.777 100.573 89.7128L101.067 88.8131C102.346 86.4891 103.209 84.9543 103.692 84.271L104.09 83.7033L98.6517 79.8589L98.254 80.4267C97.5113 81.4852 96.4379 83.4194 95.2448 85.5846L94.7465 86.4891C93.6109 88.5533 92.2979 90.9398 90.8509 93.4514C87.4871 99.2829 83.558 105.49 79.7295 109.565C79.0107 110.33 78.6945 111.389 78.8717 112.423C79.049 113.458 79.7007 114.348 80.6351 114.829L91.6511 120.487L94.6794 114.545L94.6842 114.54ZM116.156 93.1916L117.44 90.1122L111.306 87.5332L110.022 90.6126C108.963 93.1531 107.957 96.5548 108.455 99.9421C109.002 103.652 111.278 106.861 115.705 108.723C117.981 109.681 120.214 109.897 122.313 109.435C124.378 108.983 126.084 107.929 127.449 106.702C130.109 104.316 131.824 100.962 132.811 98.5949L133.08 97.9549L126.946 95.376L126.678 96.0159C125.816 98.0848 124.57 100.332 123.022 101.722C122.284 102.386 121.575 102.762 120.899 102.911C120.257 103.05 119.414 103.041 118.278 102.56C117.052 102.045 116.299 101.453 115.83 100.861C115.36 100.269 115.14 99.6341 115.039 98.9653C114.804 97.3727 115.264 95.3375 116.16 93.1867L116.156 93.1916ZM72.8199 117.87L66.8351 120.785L67.137 121.411C68.8045 124.861 72.6618 128.994 77.5924 132.251C82.5949 135.562 89.0827 138.237 96.2558 138.338C110.18 138.53 118.379 131.732 121.144 125.087L122.428 122.008L116.295 119.429L115.01 122.508C113.439 126.285 107.957 131.823 96.3469 131.659C90.7502 131.582 85.4794 129.475 81.2484 126.675C76.9455 123.826 74.0993 120.521 73.117 118.495L72.8151 117.87H72.8199ZM119.682 79.0987L118.997 79.1901L119.816 85.3584L120.492 85.2766C121.757 85.1227 122.653 85.2141 123.242 85.4595C123.53 85.5798 123.779 85.7482 123.999 85.9695L124.742 86.773C125.423 87.6295 126.156 88.2598 126.956 88.5966C128.427 89.2173 130.588 89.2894 133.334 88.9334L134.024 88.842L133.204 82.6736L132.529 82.7506C131.101 82.9142 130.162 82.8324 129.61 82.6015C129.275 82.4619 128.82 82.0722 128.274 81.2879V81.2831C127.981 80.8789 127.699 80.5373 127.421 80.2919C127.018 79.9263 126.568 79.6376 126.065 79.4259C124.565 78.7956 122.404 78.7234 119.682 79.0891V79.0987ZM92.9352 152.724C126.563 153.191 148.413 128.176 148.796 100.394C148.988 86.4651 142.486 72.9689 132.418 62.9176C122.351 52.8664 108.666 46.2025 94.4111 46.0053C66.011 45.6107 39.3934 67.4838 39.0053 95.3567C38.6219 123.076 59.2452 152.253 92.9352 152.724ZM142.15 100.298C141.815 124.514 122.869 146.46 93.0311 146.046C63.7206 145.637 45.3159 120.227 45.6561 95.4481C45.9771 71.9729 68.8428 52.3276 94.32 52.6836C106.591 52.8568 118.69 58.6258 127.732 67.6522C136.779 76.6833 142.313 88.5148 142.15 100.298Z" fill="white"/>
<path fill-rule="evenodd" clip-rule="evenodd" d="M303.215 141.063C296.627 147.679 288.615 150.989 279.185 150.989C271.739 150.989 265.682 148.728 261.025 144.21C256.526 139.904 253.818 134.043 252.908 126.619C249.266 129.954 245.462 131.623 241.494 131.623C239.994 131.623 238.653 131.301 237.474 130.656C236.564 130.17 235.787 129.501 235.145 128.64C233.645 126.595 233.161 123.554 233.698 119.522C234.019 116.939 235.035 112.743 236.75 106.935L237.234 105.16L237.795 103.221C238.221 101.662 238.571 100.315 238.84 99.1841C239.534 96.0663 239.803 93.9636 239.645 92.8907C235.735 93.1072 231.422 96.7351 226.707 103.784C221.939 110.886 218.298 119.142 215.777 128.558L210.794 127.187C207.421 130.146 204.124 131.623 200.909 131.623C197.694 131.623 195.365 130.358 193.434 127.832C190.061 123.42 189.629 116.481 192.15 107.012L195.926 92.8907H186.524V84.5764H198.178L202.519 68.2751L210.555 70.4547L206.779 84.5764H218.916L228.399 49.1494L236.434 51.329L225.586 91.8418C230.406 87.0014 235.203 84.5812 239.97 84.5812C241.47 84.5812 242.812 84.9036 243.991 85.5483C244.848 86.0343 245.596 86.679 246.243 87.4874C247.795 89.5323 248.308 92.5972 247.771 96.6869C247.45 99.1071 246.43 103.303 244.719 109.274L244.235 111.049L243.674 112.906C243.248 114.465 242.898 115.813 242.63 116.943C241.878 120.066 241.585 122.188 241.743 123.319C244.048 123.213 246.324 121.813 248.576 119.123C251.149 116.164 253.128 112.127 254.523 107.017C256.128 100.883 258.969 95.7439 263.042 91.606C267.594 86.9244 272.793 84.586 278.634 84.586C281.902 84.586 284.581 85.635 286.67 87.7328C288.759 89.8306 289.856 92.5491 289.966 95.8834C290.072 101.585 287.662 106.671 282.736 111.136C277.273 116.14 269.985 118.993 260.876 119.691C260.608 126.74 262.055 132.335 265.218 136.478C268.38 140.621 273.042 142.69 279.2 142.69C286.272 142.69 292.3 140.188 297.283 135.184L303.23 141.073L303.215 141.063ZM200.909 123.309C201.498 123.309 202.251 123.039 203.161 122.501C204.287 121.856 205.384 120.966 206.458 119.84C209.299 116.722 211.465 112.445 212.97 107.008L216.745 92.8859H204.531L200.19 109.187C199.28 112.685 198.853 115.697 198.906 118.223C198.959 120.374 199.337 121.909 200.032 122.823C200.3 123.145 200.593 123.309 200.914 123.309H200.909ZM278.62 92.8859C274.868 92.8859 271.442 94.6324 268.332 98.1304C265.654 101.142 263.723 104.828 262.544 109.187L262.223 110.154L261.983 111.203C268.303 110.395 273.315 108.35 277.01 105.069C280.172 102.215 281.696 99.2322 281.591 96.1096C281.538 94.7094 281.135 93.7712 280.383 93.2852C280.062 93.1216 279.712 93.0158 279.339 92.9629L278.936 92.8811H278.615L278.62 92.8859Z" fill="white"/>
<path d="M382.977 124.38C382.297 125.178 381.583 125.924 380.836 126.622C377.247 129.956 373.442 131.626 369.422 131.626C367.922 131.626 366.58 131.303 365.402 130.659C364.544 130.173 363.796 129.504 363.15 128.643C361.597 126.598 361.084 123.557 361.621 119.525C361.942 117.105 362.963 112.909 364.673 106.938C365.852 102.742 366.657 99.4081 367.083 96.9302C367.405 94.9912 367.457 93.6488 367.246 92.8934C363.873 92.9992 360.361 96.1748 356.719 102.415C353.078 108.709 349.81 117.211 346.915 127.916L346.753 128.561L338.717 126.381C338.822 126.059 338.88 125.842 338.88 125.737L343.945 106.933C345.176 102.738 345.981 99.4033 346.355 96.9254C346.623 94.9864 346.652 93.6439 346.436 92.8885C343.063 92.9944 339.551 96.2229 335.909 102.574C332.21 108.973 328.918 117.639 326.024 128.561L317.988 126.381L328.357 87.644L335.348 89.5013C338.832 86.2198 342.579 84.5791 346.599 84.5791C350.888 84.5791 353.538 86.7587 354.553 91.1179C358.516 86.7587 362.776 84.5791 367.333 84.5791C370.121 84.5791 372.263 85.5751 373.763 87.567C375.21 89.559 375.8 92.3833 375.531 96.0401C375.263 99.0521 374.3 103.464 372.637 109.276L372.153 111.052L371.592 112.909C371.161 114.468 370.84 115.815 370.629 116.946C369.877 120.069 369.585 122.191 369.748 123.321C372 123.215 374.276 121.815 376.581 119.126C379.154 116.167 381.109 112.13 382.446 107.02H382.469L387.611 87.6536L395.646 89.8332L390.505 109.2C389.863 111.62 389.542 113.905 389.542 116.061C389.542 120.901 391.497 123.321 395.407 123.321C401.674 123.321 406.255 117.942 409.149 107.183V107.02L414.372 87.6536L422.326 89.8332L417.185 109.2C416.327 112.481 415.901 115.089 415.901 117.028C415.901 117.514 415.93 118.053 415.982 118.64C416.035 119.448 416.145 120.146 416.303 120.737C416.677 122.46 417.295 123.321 418.153 123.321C418.69 123.321 419.384 123.052 420.242 122.513C421.315 121.868 422.384 120.978 423.457 119.852C426.351 116.677 428.522 112.399 429.964 107.02L438 109.2C436.126 116.138 433.151 121.709 429.078 125.905C425.379 129.725 421.684 131.635 417.985 131.635C416.001 131.635 414.209 131.044 412.599 129.86C410.937 128.729 409.787 127.276 409.145 125.501C405.34 129.591 400.759 131.635 395.402 131.635C390.85 131.635 387.314 130.129 384.793 127.117C384.079 126.29 383.476 125.381 382.973 124.394L382.977 124.38Z" fill="white"/>
<path d="M403.069 71.0166C400.606 71.0166 397.362 72.2002 393.347 74.5675L397.525 81.751C399.509 80.6203 401.195 80.0574 402.59 80.0574C403.285 80.0574 403.955 80.1921 404.597 80.4616L406.366 81.2699C407.918 82.1311 409.312 82.5594 410.544 82.5594C412.954 82.5594 416.198 81.3757 420.266 79.0085L416.088 71.8249C413.893 73.0615 412.125 73.6822 410.783 73.6822C409.82 73.6822 408.613 73.2251 407.166 72.3109C406.471 71.8827 405.882 71.5844 405.398 71.4256C404.645 71.1561 403.869 71.0214 403.069 71.0214V71.0166Z" fill="white"/>
</svg>
